M48
; DRILL file {KiCad (6.0.0-rc1-dev-1542-gf9f87b3ff-dirty)} date Monday, 04 February 2019 at 09:57:13
; FORMAT={2:4/ absolute / inch / suppress leading zeros}
; #@! TF.CreationDate,2019-02-04T09:57:13-08:00
; #@! TF.GenerationSoftware,Kicad,Pcbnew,(6.0.0-rc1-dev-1542-gf9f87b3ff-dirty)
FMAT,2
INCH,TZ
T1C0.0150
T2C0.0160
T3C0.0200
T4C0.0315
T5C0.0350
T6C0.0354
T7C0.0450
T8C0.0472
%
G90
G05
T1
X50235Y-33325
X50395Y-33965
X50395Y-56605
X50635Y-57165
X51075Y-59115
X51115Y-30365
X51115Y-42045
X51115Y-61325
X51995Y-26285
X51995Y-55405
X52235Y-32685
X52235Y-43085
X52315Y-46765
X52555Y-26205
X52555Y-28365
X52715Y-46765
X53675Y-56045
X53835Y-40365
X53915Y-39965
X53915Y-41505
X54235Y-54365
X54395Y-55965
X54475Y-45725
X54635Y-44365
X54715Y-39885
X54865Y-42225
X55095Y-29555
X55195Y-26525
X55355Y-28525
X55355Y-49245
X55915Y-43085
X56795Y-53645
X56805Y-54945
X57035Y-51805
X57115Y-34445
X57205Y-22355
X57285Y-49645
X57355Y-27725
X57355Y-31245
X57355Y-51485
X57435Y-26365
X57435Y-49085
X57605Y-50335
X57675Y-29125
X57915Y-39325
X58155Y-29165
X58635Y-37405
X58715Y-28045
X58715Y-45885
X58795Y-29165
X58915Y-21645
X59035Y-44685
X59035Y-48205
X59035Y-53885
X59435Y-35165
X59435Y-42525
X59515Y-35565
X59835Y-34125
X59835Y-34525
X59995Y-50125
X60315Y-35805
X60475Y-23305
X60475Y-34285
X60475Y-38605
X60475Y-49245
X60555Y-42445
X60795Y-33645
X60795Y-34685
X60955Y-35805
X61115Y-42685
X61195Y-37805
X61275Y-20445
X61515Y-34525
X61775Y-28445
X61835Y-38205
X62085Y-35395
X62155Y-46445
X62395Y-37885
X62705Y-26145
X62715Y-28685
X62875Y-31325
X63435Y-32925
X63655Y-39145
X63675Y-26205
X63755Y-28845
X63755Y-52765
X63805Y-37065
X63995Y-39885
X64075Y-38205
X64115Y-26175
X64155Y-44495
X64395Y-39485
X64795Y-38205
X64955Y-34365
X64955Y-53325
X65035Y-30525
X65035Y-39485
X65035Y-46445
X65275Y-37165
X65435Y-30525
X65435Y-61495
X65445Y-52035
X65515Y-38285
X65595Y-38765
X65785Y-47515
X65995Y-36925
X65995Y-37805
X66065Y-29905
X66075Y-25885
X66315Y-40765
X66715Y-25885
X66775Y-34475
X66875Y-30365
X66875Y-50605
X66915Y-38855
X66955Y-39405
X66955Y-48725
X67195Y-45725
X67435Y-34205
X67505Y-35855
X67915Y-41565
T2
X50655Y-62165
X53695Y-24395
X54155Y-22515
X54845Y-21765
X56585Y-59285
X56735Y-23295
X56765Y-25655
X56825Y-61215
X57475Y-41015
X57885Y-25425
X58775Y-51895
X59155Y-55785
X59355Y-57675
X59985Y-61305
X60385Y-62645
X60675Y-51505
X60685Y-25035
X61725Y-62905
X62835Y-47985
X63635Y-47515
X63675Y-43525
X65065Y-45445
X65365Y-43565
X66125Y-45435
X66175Y-43565
T3
X54055Y-21875
X55055Y-20875
X56055Y-21875
T4
X64745Y-21225
X64745Y-22225
X64745Y-23225
X65745Y-20225
X65745Y-24225
X66745Y-21225
X66745Y-22225
X66745Y-23225
X53131Y-62599
X54115Y-60631
X55099Y-62599
T5
X49205Y-53695
X55645Y-55765
X55645Y-60565
X51475Y-60765
X54635Y-57995
X54635Y-58995
X58505Y-24495
X54635Y-36995
X54635Y-37995
X49205Y-43195
X55645Y-46165
X55645Y-50965
X51475Y-50245
X54635Y-47475
X54635Y-48475
X51475Y-24485
X55645Y-26965
X55645Y-31765
X49205Y-26995
X54635Y-26495
X54635Y-27495
X49205Y-32695
X55645Y-36565
X55645Y-41365
X51475Y-39765
T6
X59385Y-52885
X60385Y-52885
X61385Y-52885
T7
X50155Y-53695
X53525Y-53695
X56595Y-55765
X59965Y-55765
X56595Y-60565
X59965Y-60565
X51475Y-56445
X51475Y-59815
X58505Y-20175
X58505Y-23545
X50155Y-43195
X53525Y-43195
X56595Y-46165
X59965Y-46165
X56595Y-50965
X59965Y-50965
X51475Y-45925
X51475Y-49295
X51475Y-20165
X51475Y-23535
X56595Y-26965
X59965Y-26965
X56595Y-31765
X59965Y-31765
X50155Y-26995
X53525Y-26995
X50155Y-32695
X53525Y-32695
X56595Y-36565
X59965Y-36565
X56595Y-41365
X59965Y-41365
X51475Y-35445
X51475Y-38815
T8
X62466Y-62015
X64435Y-62015
X66404Y-62015
X62466Y-42815
X64435Y-42815
X66404Y-42815
X62466Y-52415
X64435Y-52415
X66404Y-52415
X62466Y-33215
X64435Y-33215
X66404Y-33215
T0
M30
