G04 #@! TF.GenerationSoftware,KiCad,Pcbnew,(6.0.0-rc1-dev-1542-gf9f87b3ff-dirty)*
G04 #@! TF.CreationDate,2019-02-04T09:57:11-08:00
G04 #@! TF.ProjectId,qcd-23,7163642d-3233-42e6-9b69-6361645f7063,rev?*
G04 #@! TF.SameCoordinates,Original*
G04 #@! TF.FileFunction,Legend,Bot*
G04 #@! TF.FilePolarity,Positive*
%FSLAX46Y46*%
G04 Gerber Fmt 4.6, Leading zero omitted, Abs format (unit mm)*
G04 Created by KiCad (PCBNEW (6.0.0-rc1-dev-1542-gf9f87b3ff-dirty)) date Monday, 04 February 2019 at 09:57:11*
%MOMM*%
%LPD*%
G04 APERTURE LIST*
%ADD10C,0.127000*%
%ADD11C,0.254000*%
%ADD12C,0.152400*%
%ADD13C,0.144780*%
%ADD14C,0.115824*%
%ADD15C,0.096520*%
G04 APERTURE END LIST*
D10*
X133032500Y-56413400D02*
G75*
G03X133032500Y-56413400I-2286000J0D01*
G01*
X132321300Y-56413400D02*
G75*
G03X132321300Y-56413400I-1574800J0D01*
G01*
D11*
X135191500Y-60921900D02*
X126301500Y-60921900D01*
X135191500Y-50253900D02*
X135191500Y-60921900D01*
X126301500Y-50253900D02*
X135191500Y-50253900D01*
X126301500Y-60921900D02*
X126301500Y-50253900D01*
D10*
X149402800Y-68491100D02*
G75*
G03X149402800Y-68491100I-2286000J0D01*
G01*
X148691600Y-68491100D02*
G75*
G03X148691600Y-68491100I-1574800J0D01*
G01*
D11*
X142608300Y-72936100D02*
X142608300Y-64046100D01*
X153276300Y-72936100D02*
X142608300Y-72936100D01*
X153276300Y-64046100D02*
X153276300Y-72936100D01*
X142608300Y-64046100D02*
X153276300Y-64046100D01*
D10*
X149402800Y-80683100D02*
G75*
G03X149402800Y-80683100I-2286000J0D01*
G01*
X148691600Y-80683100D02*
G75*
G03X148691600Y-80683100I-1574800J0D01*
G01*
D11*
X142608300Y-85128100D02*
X142608300Y-76238100D01*
X153276300Y-85128100D02*
X142608300Y-85128100D01*
X153276300Y-76238100D02*
X153276300Y-85128100D01*
X142608300Y-76238100D02*
X153276300Y-76238100D01*
D10*
X133045200Y-68567300D02*
G75*
G03X133045200Y-68567300I-2286000J0D01*
G01*
X132334000Y-68567300D02*
G75*
G03X132334000Y-68567300I-1574800J0D01*
G01*
D11*
X126250700Y-73012300D02*
X126250700Y-64122300D01*
X136918700Y-73012300D02*
X126250700Y-73012300D01*
X136918700Y-64122300D02*
X136918700Y-73012300D01*
X126250700Y-64122300D02*
X136918700Y-64122300D01*
D10*
X166402900Y-69507100D02*
X160926900Y-69507100D01*
X167664900Y-71412100D02*
G75*
G03X167664900Y-71412100I-4000000J0D01*
G01*
X171792900Y-71412100D02*
G75*
G03X171792900Y-71412100I-8128000J0D01*
G01*
X167064900Y-71412100D02*
G75*
G03X167064900Y-71412100I-3400000J0D01*
G01*
X156664900Y-81196993D02*
X156664900Y-75539100D01*
X156664900Y-81196991D02*
G75*
G03X157245007Y-81777100I580108J-1D01*
G01*
X170211793Y-81777100D02*
X157245007Y-81777100D01*
X170211791Y-81777100D02*
G75*
G03X170664900Y-81323993I1J453108D01*
G01*
X170664900Y-75539100D02*
X170664900Y-81323993D01*
D11*
X140804900Y-68567300D02*
G75*
G03X139781100Y-66803000I-2032000J56D01*
G01*
X140085500Y-70118500D02*
G75*
G03X140804900Y-68567300I-1312600J1551163D01*
G01*
X136740900Y-68567300D02*
G75*
G02X137816700Y-66774400I2032000J-60D01*
G01*
X137472000Y-70128300D02*
G75*
G02X136740900Y-68567300I1300900J1560988D01*
G01*
D12*
X140296900Y-68567300D02*
G75*
G03X139708500Y-67364300I-1524000J-8D01*
G01*
X139708500Y-69770300D02*
G75*
G03X140296900Y-68567300I-935600J1203008D01*
G01*
X137248900Y-68567300D02*
G75*
G02X137858500Y-67348100I1524000J0D01*
G01*
X137887099Y-69807400D02*
G75*
G02X137248900Y-68567300I885801J1240134D01*
G01*
D10*
X133045200Y-83045300D02*
G75*
G03X133045200Y-83045300I-2286000J0D01*
G01*
X132334000Y-83045300D02*
G75*
G03X132334000Y-83045300I-1574800J0D01*
G01*
D11*
X126250700Y-87490300D02*
X126250700Y-78600300D01*
X136918700Y-87490300D02*
X126250700Y-87490300D01*
X136918700Y-78600300D02*
X136918700Y-87490300D01*
X126250700Y-78600300D02*
X136918700Y-78600300D01*
D10*
X149402800Y-92875100D02*
G75*
G03X149402800Y-92875100I-2286000J0D01*
G01*
X148691600Y-92875100D02*
G75*
G03X148691600Y-92875100I-1574800J0D01*
G01*
D11*
X142608300Y-97320100D02*
X142608300Y-88430100D01*
X153276300Y-97320100D02*
X142608300Y-97320100D01*
X153276300Y-88430100D02*
X153276300Y-97320100D01*
X142608300Y-88430100D02*
X153276300Y-88430100D01*
D10*
X149402800Y-105067100D02*
G75*
G03X149402800Y-105067100I-2286000J0D01*
G01*
X148691600Y-105067100D02*
G75*
G03X148691600Y-105067100I-1574800J0D01*
G01*
D11*
X142608300Y-109512100D02*
X142608300Y-100622100D01*
X153276300Y-109512100D02*
X142608300Y-109512100D01*
X153276300Y-100622100D02*
X153276300Y-109512100D01*
X142608300Y-100622100D02*
X153276300Y-100622100D01*
D10*
X133032500Y-95224600D02*
G75*
G03X133032500Y-95224600I-2286000J0D01*
G01*
X132321300Y-95224600D02*
G75*
G03X132321300Y-95224600I-1574800J0D01*
G01*
D11*
X135191500Y-99733100D02*
X126301500Y-99733100D01*
X135191500Y-89065100D02*
X135191500Y-99733100D01*
X126301500Y-89065100D02*
X135191500Y-89065100D01*
X126301500Y-99733100D02*
X126301500Y-89065100D01*
D10*
X166402900Y-93891100D02*
X160926900Y-93891100D01*
X167664900Y-95796100D02*
G75*
G03X167664900Y-95796100I-4000000J0D01*
G01*
X171792900Y-95796100D02*
G75*
G03X171792900Y-95796100I-8128000J0D01*
G01*
X167064900Y-95796100D02*
G75*
G03X167064900Y-95796100I-3400000J0D01*
G01*
X156664900Y-105580993D02*
X156664900Y-99923100D01*
X156664900Y-105580991D02*
G75*
G03X157245007Y-106161100I580108J-1D01*
G01*
X170211793Y-106161100D02*
X157245007Y-106161100D01*
X170211791Y-106161100D02*
G75*
G03X170664900Y-105707993I1J453108D01*
G01*
X170664900Y-99923100D02*
X170664900Y-105707993D01*
D11*
X140804900Y-95237300D02*
G75*
G03X139781100Y-93473000I-2032000J56D01*
G01*
X140085500Y-96788500D02*
G75*
G03X140804900Y-95237300I-1312600J1551163D01*
G01*
X136740900Y-95237300D02*
G75*
G02X137816700Y-93444400I2032000J-60D01*
G01*
X137472000Y-96798300D02*
G75*
G02X136740900Y-95237300I1300900J1560988D01*
G01*
D12*
X140296900Y-95237300D02*
G75*
G03X139708500Y-94034300I-1524000J-8D01*
G01*
X139708500Y-96440300D02*
G75*
G03X140296900Y-95237300I-935600J1203008D01*
G01*
X137248900Y-95237300D02*
G75*
G02X137858500Y-94018100I1524000J0D01*
G01*
X137887099Y-96477400D02*
G75*
G02X137248900Y-95237300I885801J1240134D01*
G01*
D10*
X133045200Y-109715300D02*
G75*
G03X133045200Y-109715300I-2286000J0D01*
G01*
X132334000Y-109715300D02*
G75*
G03X132334000Y-109715300I-1574800J0D01*
G01*
D11*
X126250700Y-114160300D02*
X126250700Y-105270300D01*
X136918700Y-114160300D02*
X126250700Y-114160300D01*
X136918700Y-105270300D02*
X136918700Y-114160300D01*
X126250700Y-105270300D02*
X136918700Y-105270300D01*
D10*
X149402800Y-117259100D02*
G75*
G03X149402800Y-117259100I-2286000J0D01*
G01*
X148691600Y-117259100D02*
G75*
G03X148691600Y-117259100I-1574800J0D01*
G01*
D11*
X142608300Y-121704100D02*
X142608300Y-112814100D01*
X153276300Y-121704100D02*
X142608300Y-121704100D01*
X153276300Y-112814100D02*
X153276300Y-121704100D01*
X142608300Y-112814100D02*
X153276300Y-112814100D01*
D10*
X149402800Y-129451100D02*
G75*
G03X149402800Y-129451100I-2286000J0D01*
G01*
X148691600Y-129451100D02*
G75*
G03X148691600Y-129451100I-1574800J0D01*
G01*
D11*
X142608300Y-133896100D02*
X142608300Y-125006100D01*
X153276300Y-133896100D02*
X142608300Y-133896100D01*
X153276300Y-125006100D02*
X153276300Y-133896100D01*
X142608300Y-125006100D02*
X153276300Y-125006100D01*
D10*
X133032500Y-121843800D02*
G75*
G03X133032500Y-121843800I-2286000J0D01*
G01*
X132321300Y-121843800D02*
G75*
G03X132321300Y-121843800I-1574800J0D01*
G01*
D11*
X135191500Y-126352300D02*
X126301500Y-126352300D01*
X135191500Y-115684300D02*
X135191500Y-126352300D01*
X126301500Y-115684300D02*
X135191500Y-115684300D01*
X126301500Y-126352300D02*
X126301500Y-115684300D01*
D10*
X166402900Y-118275100D02*
X160926900Y-118275100D01*
X167664900Y-120180100D02*
G75*
G03X167664900Y-120180100I-4000000J0D01*
G01*
X171792900Y-120180100D02*
G75*
G03X171792900Y-120180100I-8128000J0D01*
G01*
X167064900Y-120180100D02*
G75*
G03X167064900Y-120180100I-3400000J0D01*
G01*
X156664900Y-129964993D02*
X156664900Y-124307100D01*
X156664900Y-129964991D02*
G75*
G03X157245007Y-130545100I580108J-1D01*
G01*
X170211793Y-130545100D02*
X157245007Y-130545100D01*
X170211791Y-130545100D02*
G75*
G03X170664900Y-130091993I1J453108D01*
G01*
X170664900Y-124307100D02*
X170664900Y-130091993D01*
D11*
X140804900Y-121856500D02*
G75*
G03X139781100Y-120092200I-2032000J56D01*
G01*
X140085500Y-123407700D02*
G75*
G03X140804900Y-121856500I-1312600J1551163D01*
G01*
X136740900Y-121856500D02*
G75*
G02X137816700Y-120063600I2032000J-60D01*
G01*
X137472000Y-123417500D02*
G75*
G02X136740900Y-121856500I1300900J1560988D01*
G01*
D12*
X140296900Y-121856500D02*
G75*
G03X139708500Y-120653500I-1524000J-8D01*
G01*
X139708500Y-123059500D02*
G75*
G03X140296900Y-121856500I-935600J1203008D01*
G01*
X137248900Y-121856500D02*
G75*
G02X137858500Y-120637300I1524000J0D01*
G01*
X137887099Y-123096600D02*
G75*
G02X137248900Y-121856500I885801J1240134D01*
G01*
D10*
X133045200Y-136385300D02*
G75*
G03X133045200Y-136385300I-2286000J0D01*
G01*
X132334000Y-136385300D02*
G75*
G03X132334000Y-136385300I-1574800J0D01*
G01*
D11*
X126250700Y-140830300D02*
X126250700Y-131940300D01*
X136918700Y-140830300D02*
X126250700Y-140830300D01*
X136918700Y-131940300D02*
X136918700Y-140830300D01*
X126250700Y-131940300D02*
X136918700Y-131940300D01*
D10*
X149402800Y-141643100D02*
G75*
G03X149402800Y-141643100I-2286000J0D01*
G01*
X148691600Y-141643100D02*
G75*
G03X148691600Y-141643100I-1574800J0D01*
G01*
D11*
X142608300Y-146088100D02*
X142608300Y-137198100D01*
X153276300Y-146088100D02*
X142608300Y-146088100D01*
X153276300Y-137198100D02*
X153276300Y-146088100D01*
X142608300Y-137198100D02*
X153276300Y-137198100D01*
D10*
X149402800Y-153835100D02*
G75*
G03X149402800Y-153835100I-2286000J0D01*
G01*
X148691600Y-153835100D02*
G75*
G03X148691600Y-153835100I-1574800J0D01*
G01*
D11*
X142608300Y-158280100D02*
X142608300Y-149390100D01*
X153276300Y-158280100D02*
X142608300Y-158280100D01*
X153276300Y-149390100D02*
X153276300Y-158280100D01*
X142608300Y-149390100D02*
X153276300Y-149390100D01*
D10*
X133032500Y-148564600D02*
G75*
G03X133032500Y-148564600I-2286000J0D01*
G01*
X132321300Y-148564600D02*
G75*
G03X132321300Y-148564600I-1574800J0D01*
G01*
D11*
X135191500Y-153073100D02*
X126301500Y-153073100D01*
X135191500Y-142405100D02*
X135191500Y-153073100D01*
X126301500Y-142405100D02*
X135191500Y-142405100D01*
X126301500Y-153073100D02*
X126301500Y-142405100D01*
D10*
X166402900Y-142659100D02*
X160926900Y-142659100D01*
X167664900Y-144564100D02*
G75*
G03X167664900Y-144564100I-4000000J0D01*
G01*
X171792900Y-144564100D02*
G75*
G03X171792900Y-144564100I-8128000J0D01*
G01*
X167064900Y-144564100D02*
G75*
G03X167064900Y-144564100I-3400000J0D01*
G01*
X156664900Y-154348993D02*
X156664900Y-148691100D01*
X156664900Y-154348991D02*
G75*
G03X157245007Y-154929100I580108J-1D01*
G01*
X170211793Y-154929100D02*
X157245007Y-154929100D01*
X170211791Y-154929100D02*
G75*
G03X170664900Y-154475993I1J453108D01*
G01*
X170664900Y-148691100D02*
X170664900Y-154475993D01*
D11*
X140804900Y-148577300D02*
G75*
G03X139781100Y-146813000I-2032000J56D01*
G01*
X140085500Y-150128500D02*
G75*
G03X140804900Y-148577300I-1312600J1551163D01*
G01*
X136740900Y-148577300D02*
G75*
G02X137816700Y-146784400I2032000J-60D01*
G01*
X137472000Y-150138300D02*
G75*
G02X136740900Y-148577300I1300900J1560988D01*
G01*
D12*
X140296900Y-148577300D02*
G75*
G03X139708500Y-147374300I-1524000J-8D01*
G01*
X139708500Y-149780300D02*
G75*
G03X140296900Y-148577300I-935600J1203008D01*
G01*
X137248900Y-148577300D02*
G75*
G02X137858500Y-147358100I1524000J0D01*
G01*
X137887099Y-149817400D02*
G75*
G02X137248900Y-148577300I885801J1240134D01*
G01*
D10*
X150888700Y-56438800D02*
G75*
G03X150888700Y-56438800I-2286000J0D01*
G01*
X150177500Y-56438800D02*
G75*
G03X150177500Y-56438800I-1574800J0D01*
G01*
D11*
X153047700Y-60947300D02*
X144157700Y-60947300D01*
X153047700Y-50279300D02*
X153047700Y-60947300D01*
X144157700Y-50279300D02*
X153047700Y-50279300D01*
X144157700Y-60947300D02*
X144157700Y-50279300D01*
X168897300Y-62166500D02*
X168897300Y-60896500D01*
X168897300Y-52006500D02*
X168897300Y-50736500D01*
X168262300Y-51371500D02*
X169532300Y-51371500D01*
D10*
X166992300Y-57086500D02*
X166992300Y-58991500D01*
X166992300Y-57086500D02*
X166357300Y-57086500D01*
X167627300Y-57086500D02*
X166992300Y-57086500D01*
X166357300Y-56451500D02*
X166992300Y-56451500D01*
X166992300Y-57086500D02*
X166357300Y-56451500D01*
X167627300Y-56451500D02*
X166992300Y-57086500D01*
X166992300Y-56451500D02*
X167627300Y-56451500D01*
X166992300Y-53911500D02*
X166992300Y-56451500D01*
D11*
X170802300Y-52641500D02*
X170802300Y-60261500D01*
X163182300Y-52641500D02*
X170802300Y-52641500D01*
X163182300Y-60261500D02*
X163182300Y-52641500D01*
X170802300Y-60261500D02*
X163182300Y-60261500D01*
D10*
X138039700Y-59362500D02*
X136539700Y-59362500D01*
X138039700Y-58962500D02*
X138039700Y-59362500D01*
X141639700Y-58962500D02*
X138039700Y-58962500D01*
X141639700Y-59362500D02*
X141639700Y-58962500D01*
X139839700Y-54462500D02*
X139839700Y-54262500D01*
X138739700Y-55562500D02*
X138539700Y-55562500D01*
X140839700Y-55562500D02*
X141139700Y-55562500D01*
X139839700Y-54662500D02*
X139639700Y-54862500D01*
X139839700Y-54662500D02*
X140039700Y-54862500D01*
X139839700Y-56462500D02*
X139839700Y-54662500D01*
X143139700Y-52362500D02*
X143139700Y-59362500D01*
X136539700Y-52362500D02*
X143139700Y-52362500D01*
X136539700Y-59362500D02*
X136539700Y-52362500D01*
X140839700Y-55562500D02*
G75*
G03X140839700Y-55562500I-1000000J0D01*
G01*
X143139700Y-59362500D02*
X141639700Y-59362500D01*
D13*
X125710647Y-51409231D02*
X124504147Y-51409231D01*
X124504147Y-51868850D01*
X124561600Y-51983754D01*
X124619052Y-52041207D01*
X124733957Y-52098659D01*
X124906314Y-52098659D01*
X125021219Y-52041207D01*
X125078671Y-51983754D01*
X125136123Y-51868850D01*
X125136123Y-51409231D01*
X125710647Y-52615731D02*
X124504147Y-52615731D01*
X125710647Y-53190254D02*
X124504147Y-53190254D01*
X125710647Y-53879683D01*
X124504147Y-53879683D01*
X124561600Y-55086183D02*
X124504147Y-54971278D01*
X124504147Y-54798921D01*
X124561600Y-54626564D01*
X124676504Y-54511659D01*
X124791409Y-54454207D01*
X125021219Y-54396754D01*
X125193576Y-54396754D01*
X125423385Y-54454207D01*
X125538290Y-54511659D01*
X125653195Y-54626564D01*
X125710647Y-54798921D01*
X125710647Y-54913826D01*
X125653195Y-55086183D01*
X125595742Y-55143635D01*
X125193576Y-55143635D01*
X125193576Y-54913826D01*
X125710647Y-56292683D02*
X125710647Y-55603254D01*
X125710647Y-55947969D02*
X124504147Y-55947969D01*
X124676504Y-55833064D01*
X124791409Y-55718159D01*
X124848861Y-55603254D01*
D12*
X152661378Y-63760047D02*
X152661378Y-62553547D01*
X152374116Y-62553547D01*
X152201759Y-62611000D01*
X152086854Y-62725904D01*
X152029401Y-62840809D01*
X151971949Y-63070619D01*
X151971949Y-63242976D01*
X152029401Y-63472785D01*
X152086854Y-63587690D01*
X152201759Y-63702595D01*
X152374116Y-63760047D01*
X152661378Y-63760047D01*
X151454878Y-63760047D02*
X151454878Y-62553547D01*
X151052711Y-62553547D02*
X150650544Y-63760047D01*
X150248378Y-62553547D01*
X149214235Y-63760047D02*
X149903663Y-63760047D01*
X149558949Y-63760047D02*
X149558949Y-62553547D01*
X149673854Y-62725904D01*
X149788759Y-62840809D01*
X149903663Y-62898261D01*
X151971949Y-75952047D02*
X152374116Y-75377523D01*
X152661378Y-75952047D02*
X152661378Y-74745547D01*
X152201759Y-74745547D01*
X152086854Y-74803000D01*
X152029401Y-74860452D01*
X151971949Y-74975357D01*
X151971949Y-75147714D01*
X152029401Y-75262619D01*
X152086854Y-75320071D01*
X152201759Y-75377523D01*
X152661378Y-75377523D01*
X151454878Y-75320071D02*
X151052711Y-75320071D01*
X150880354Y-75952047D02*
X151454878Y-75952047D01*
X151454878Y-74745547D01*
X150880354Y-74745547D01*
X150420735Y-75894595D02*
X150248378Y-75952047D01*
X149961116Y-75952047D01*
X149846211Y-75894595D01*
X149788759Y-75837142D01*
X149731306Y-75722238D01*
X149731306Y-75607333D01*
X149788759Y-75492428D01*
X149846211Y-75434976D01*
X149961116Y-75377523D01*
X150190925Y-75320071D01*
X150305830Y-75262619D01*
X150363282Y-75205166D01*
X150420735Y-75090261D01*
X150420735Y-74975357D01*
X150363282Y-74860452D01*
X150305830Y-74803000D01*
X150190925Y-74745547D01*
X149903663Y-74745547D01*
X149731306Y-74803000D01*
X149214235Y-75320071D02*
X148812068Y-75320071D01*
X148639711Y-75952047D02*
X149214235Y-75952047D01*
X149214235Y-74745547D01*
X148639711Y-74745547D01*
X148294997Y-74745547D02*
X147605568Y-74745547D01*
X147950282Y-75952047D02*
X147950282Y-74745547D01*
X146571425Y-75952047D02*
X147260854Y-75952047D01*
X146916140Y-75952047D02*
X146916140Y-74745547D01*
X147031044Y-74917904D01*
X147145949Y-75032809D01*
X147260854Y-75090261D01*
X136073968Y-62629747D02*
X135844159Y-62629747D01*
X135729254Y-62687200D01*
X135614349Y-62802104D01*
X135556897Y-63031914D01*
X135556897Y-63434080D01*
X135614349Y-63663890D01*
X135729254Y-63778795D01*
X135844159Y-63836247D01*
X136073968Y-63836247D01*
X136188873Y-63778795D01*
X136303778Y-63663890D01*
X136361230Y-63434080D01*
X136361230Y-63031914D01*
X136303778Y-62802104D01*
X136188873Y-62687200D01*
X136073968Y-62629747D01*
X135039825Y-62629747D02*
X135039825Y-63606438D01*
X134982373Y-63721342D01*
X134924920Y-63778795D01*
X134810016Y-63836247D01*
X134580206Y-63836247D01*
X134465301Y-63778795D01*
X134407849Y-63721342D01*
X134350397Y-63606438D01*
X134350397Y-62629747D01*
X133948230Y-62629747D02*
X133258801Y-62629747D01*
X133603516Y-63836247D02*
X133603516Y-62629747D01*
X132224659Y-63836247D02*
X132914087Y-63836247D01*
X132569373Y-63836247D02*
X132569373Y-62629747D01*
X132684278Y-62802104D01*
X132799182Y-62917009D01*
X132914087Y-62974461D01*
D13*
X166935959Y-79905647D02*
X166533792Y-81112147D01*
X166131626Y-79905647D01*
X165040030Y-81112147D02*
X165442197Y-80537623D01*
X165729459Y-81112147D02*
X165729459Y-79905647D01*
X165269840Y-79905647D01*
X165154935Y-79963100D01*
X165097483Y-80020552D01*
X165040030Y-80135457D01*
X165040030Y-80307814D01*
X165097483Y-80422719D01*
X165154935Y-80480171D01*
X165269840Y-80537623D01*
X165729459Y-80537623D01*
X164522959Y-81112147D02*
X164522959Y-79905647D01*
X164235697Y-79905647D01*
X164063340Y-79963100D01*
X163948435Y-80078004D01*
X163890983Y-80192909D01*
X163833530Y-80422719D01*
X163833530Y-80595076D01*
X163890983Y-80824885D01*
X163948435Y-80939790D01*
X164063340Y-81054695D01*
X164235697Y-81112147D01*
X164522959Y-81112147D01*
X163316459Y-81112147D02*
X163316459Y-79905647D01*
X162914292Y-79905647D02*
X162512126Y-81112147D01*
X162109959Y-79905647D01*
X161075816Y-81112147D02*
X161765245Y-81112147D01*
X161420530Y-81112147D02*
X161420530Y-79905647D01*
X161535435Y-80078004D01*
X161650340Y-80192909D01*
X161765245Y-80250361D01*
X169019968Y-82890747D02*
X169709397Y-82890747D01*
X169364683Y-82890747D02*
X169364683Y-81684247D01*
X169479587Y-81856604D01*
X169594492Y-81971509D01*
X169709397Y-82028961D01*
X167985826Y-81684247D02*
X168215635Y-81684247D01*
X168330540Y-81741700D01*
X168387992Y-81799152D01*
X168502897Y-81971509D01*
X168560349Y-82201319D01*
X168560349Y-82660938D01*
X168502897Y-82775842D01*
X168445445Y-82833295D01*
X168330540Y-82890747D01*
X168100730Y-82890747D01*
X167985826Y-82833295D01*
X167928373Y-82775842D01*
X167870921Y-82660938D01*
X167870921Y-82373676D01*
X167928373Y-82258771D01*
X167985826Y-82201319D01*
X168100730Y-82143866D01*
X168330540Y-82143866D01*
X168445445Y-82201319D01*
X168502897Y-82258771D01*
X168560349Y-82373676D01*
X167353849Y-82890747D02*
X167353849Y-81684247D01*
X166951683Y-82546033D01*
X166549516Y-81684247D01*
X166549516Y-82890747D01*
X165974992Y-82890747D02*
X165974992Y-81684247D01*
X165572826Y-82546033D01*
X165170659Y-81684247D01*
X165170659Y-82890747D01*
X164596135Y-82431128D02*
X163676897Y-82431128D01*
X163159826Y-81799152D02*
X163102373Y-81741700D01*
X162987468Y-81684247D01*
X162700207Y-81684247D01*
X162585302Y-81741700D01*
X162527849Y-81799152D01*
X162470397Y-81914057D01*
X162470397Y-82028961D01*
X162527849Y-82201319D01*
X163217278Y-82890747D01*
X162470397Y-82890747D01*
X161321349Y-82890747D02*
X162010778Y-82890747D01*
X161666064Y-82890747D02*
X161666064Y-81684247D01*
X161780968Y-81856604D01*
X161895873Y-81971509D01*
X162010778Y-82028961D01*
X160804278Y-82890747D02*
X160804278Y-81684247D01*
X160517016Y-81684247D01*
X160344659Y-81741700D01*
X160229754Y-81856604D01*
X160172302Y-81971509D01*
X160114849Y-82201319D01*
X160114849Y-82373676D01*
X160172302Y-82603485D01*
X160229754Y-82718390D01*
X160344659Y-82833295D01*
X160517016Y-82890747D01*
X160804278Y-82890747D01*
X159597778Y-82258771D02*
X159195611Y-82258771D01*
X159023254Y-82890747D02*
X159597778Y-82890747D01*
X159597778Y-81684247D01*
X159023254Y-81684247D01*
X158678540Y-81684247D02*
X157989111Y-81684247D01*
X158333826Y-82890747D02*
X158333826Y-81684247D01*
D14*
X139196838Y-71624076D02*
X139196838Y-71164457D01*
X138231638Y-71164457D01*
X138691257Y-71945809D02*
X138691257Y-72267542D01*
X139196838Y-72405428D02*
X139196838Y-71945809D01*
X138231638Y-71945809D01*
X138231638Y-72405428D01*
X139196838Y-72819085D02*
X138231638Y-72819085D01*
X138231638Y-73048895D01*
X138277600Y-73186781D01*
X138369523Y-73278704D01*
X138461447Y-73324666D01*
X138645295Y-73370628D01*
X138783180Y-73370628D01*
X138967028Y-73324666D01*
X139058952Y-73278704D01*
X139150876Y-73186781D01*
X139196838Y-73048895D01*
X139196838Y-72819085D01*
X139196838Y-74289866D02*
X139196838Y-73738323D01*
X139196838Y-74014095D02*
X138231638Y-74014095D01*
X138369523Y-73922171D01*
X138461447Y-73830247D01*
X138507409Y-73738323D01*
X141343138Y-68755690D02*
X140883519Y-68433957D01*
X141343138Y-68204147D02*
X140377938Y-68204147D01*
X140377938Y-68571842D01*
X140423900Y-68663766D01*
X140469861Y-68709728D01*
X140561785Y-68755690D01*
X140699671Y-68755690D01*
X140791595Y-68709728D01*
X140837557Y-68663766D01*
X140883519Y-68571842D01*
X140883519Y-68204147D01*
X140837557Y-69169347D02*
X140837557Y-69491081D01*
X141343138Y-69628966D02*
X141343138Y-69169347D01*
X140377938Y-69169347D01*
X140377938Y-69628966D01*
X141343138Y-70042623D02*
X140377938Y-70042623D01*
X140377938Y-70272433D01*
X140423900Y-70410319D01*
X140515823Y-70502242D01*
X140607747Y-70548204D01*
X140791595Y-70594166D01*
X140929480Y-70594166D01*
X141113328Y-70548204D01*
X141205252Y-70502242D01*
X141297176Y-70410319D01*
X141343138Y-70272433D01*
X141343138Y-70042623D01*
D12*
X136303778Y-78314247D02*
X136303778Y-77107747D01*
X135844159Y-77107747D01*
X135729254Y-77165200D01*
X135671801Y-77222652D01*
X135614349Y-77337557D01*
X135614349Y-77509914D01*
X135671801Y-77624819D01*
X135729254Y-77682271D01*
X135844159Y-77739723D01*
X136303778Y-77739723D01*
X135097278Y-78314247D02*
X135097278Y-77107747D01*
X134522754Y-78314247D02*
X134522754Y-77107747D01*
X133833325Y-78314247D01*
X133833325Y-77107747D01*
X132626825Y-77165200D02*
X132741730Y-77107747D01*
X132914087Y-77107747D01*
X133086444Y-77165200D01*
X133201349Y-77280104D01*
X133258801Y-77395009D01*
X133316254Y-77624819D01*
X133316254Y-77797176D01*
X133258801Y-78026985D01*
X133201349Y-78141890D01*
X133086444Y-78256795D01*
X132914087Y-78314247D01*
X132799182Y-78314247D01*
X132626825Y-78256795D01*
X132569373Y-78199342D01*
X132569373Y-77797176D01*
X132799182Y-77797176D01*
X132109754Y-77222652D02*
X132052301Y-77165200D01*
X131937397Y-77107747D01*
X131650135Y-77107747D01*
X131535230Y-77165200D01*
X131477778Y-77222652D01*
X131420325Y-77337557D01*
X131420325Y-77452461D01*
X131477778Y-77624819D01*
X132167206Y-78314247D01*
X131420325Y-78314247D01*
X152661378Y-88144047D02*
X152661378Y-86937547D01*
X152374116Y-86937547D01*
X152201759Y-86995000D01*
X152086854Y-87109904D01*
X152029401Y-87224809D01*
X151971949Y-87454619D01*
X151971949Y-87626976D01*
X152029401Y-87856785D01*
X152086854Y-87971690D01*
X152201759Y-88086595D01*
X152374116Y-88144047D01*
X152661378Y-88144047D01*
X151454878Y-88144047D02*
X151454878Y-86937547D01*
X151052711Y-86937547D02*
X150650544Y-88144047D01*
X150248378Y-86937547D01*
X149903663Y-87052452D02*
X149846211Y-86995000D01*
X149731306Y-86937547D01*
X149444044Y-86937547D01*
X149329140Y-86995000D01*
X149271687Y-87052452D01*
X149214235Y-87167357D01*
X149214235Y-87282261D01*
X149271687Y-87454619D01*
X149961116Y-88144047D01*
X149214235Y-88144047D01*
X151971949Y-100336047D02*
X152374116Y-99761523D01*
X152661378Y-100336047D02*
X152661378Y-99129547D01*
X152201759Y-99129547D01*
X152086854Y-99187000D01*
X152029401Y-99244452D01*
X151971949Y-99359357D01*
X151971949Y-99531714D01*
X152029401Y-99646619D01*
X152086854Y-99704071D01*
X152201759Y-99761523D01*
X152661378Y-99761523D01*
X151454878Y-99704071D02*
X151052711Y-99704071D01*
X150880354Y-100336047D02*
X151454878Y-100336047D01*
X151454878Y-99129547D01*
X150880354Y-99129547D01*
X150420735Y-100278595D02*
X150248378Y-100336047D01*
X149961116Y-100336047D01*
X149846211Y-100278595D01*
X149788759Y-100221142D01*
X149731306Y-100106238D01*
X149731306Y-99991333D01*
X149788759Y-99876428D01*
X149846211Y-99818976D01*
X149961116Y-99761523D01*
X150190925Y-99704071D01*
X150305830Y-99646619D01*
X150363282Y-99589166D01*
X150420735Y-99474261D01*
X150420735Y-99359357D01*
X150363282Y-99244452D01*
X150305830Y-99187000D01*
X150190925Y-99129547D01*
X149903663Y-99129547D01*
X149731306Y-99187000D01*
X149214235Y-99704071D02*
X148812068Y-99704071D01*
X148639711Y-100336047D02*
X149214235Y-100336047D01*
X149214235Y-99129547D01*
X148639711Y-99129547D01*
X148294997Y-99129547D02*
X147605568Y-99129547D01*
X147950282Y-100336047D02*
X147950282Y-99129547D01*
X147260854Y-99244452D02*
X147203401Y-99187000D01*
X147088497Y-99129547D01*
X146801235Y-99129547D01*
X146686330Y-99187000D01*
X146628878Y-99244452D01*
X146571425Y-99359357D01*
X146571425Y-99474261D01*
X146628878Y-99646619D01*
X147318306Y-100336047D01*
X146571425Y-100336047D01*
X124808947Y-89909831D02*
X124808947Y-90139640D01*
X124866400Y-90254545D01*
X124981304Y-90369450D01*
X125211114Y-90426902D01*
X125613280Y-90426902D01*
X125843090Y-90369450D01*
X125957995Y-90254545D01*
X126015447Y-90139640D01*
X126015447Y-89909831D01*
X125957995Y-89794926D01*
X125843090Y-89680021D01*
X125613280Y-89622569D01*
X125211114Y-89622569D01*
X124981304Y-89680021D01*
X124866400Y-89794926D01*
X124808947Y-89909831D01*
X124808947Y-90943974D02*
X125785638Y-90943974D01*
X125900542Y-91001426D01*
X125957995Y-91058879D01*
X126015447Y-91173783D01*
X126015447Y-91403593D01*
X125957995Y-91518498D01*
X125900542Y-91575950D01*
X125785638Y-91633402D01*
X124808947Y-91633402D01*
X124808947Y-92035569D02*
X124808947Y-92724998D01*
X126015447Y-92380283D02*
X124808947Y-92380283D01*
X124923852Y-93069712D02*
X124866400Y-93127164D01*
X124808947Y-93242069D01*
X124808947Y-93529331D01*
X124866400Y-93644236D01*
X124923852Y-93701688D01*
X125038757Y-93759140D01*
X125153661Y-93759140D01*
X125326019Y-93701688D01*
X126015447Y-93012260D01*
X126015447Y-93759140D01*
D13*
X166935959Y-104289647D02*
X166533792Y-105496147D01*
X166131626Y-104289647D01*
X165040030Y-105496147D02*
X165442197Y-104921623D01*
X165729459Y-105496147D02*
X165729459Y-104289647D01*
X165269840Y-104289647D01*
X165154935Y-104347100D01*
X165097483Y-104404552D01*
X165040030Y-104519457D01*
X165040030Y-104691814D01*
X165097483Y-104806719D01*
X165154935Y-104864171D01*
X165269840Y-104921623D01*
X165729459Y-104921623D01*
X164522959Y-105496147D02*
X164522959Y-104289647D01*
X164235697Y-104289647D01*
X164063340Y-104347100D01*
X163948435Y-104462004D01*
X163890983Y-104576909D01*
X163833530Y-104806719D01*
X163833530Y-104979076D01*
X163890983Y-105208885D01*
X163948435Y-105323790D01*
X164063340Y-105438695D01*
X164235697Y-105496147D01*
X164522959Y-105496147D01*
X163316459Y-105496147D02*
X163316459Y-104289647D01*
X162914292Y-104289647D02*
X162512126Y-105496147D01*
X162109959Y-104289647D01*
X161765245Y-104404552D02*
X161707792Y-104347100D01*
X161592887Y-104289647D01*
X161305626Y-104289647D01*
X161190721Y-104347100D01*
X161133268Y-104404552D01*
X161075816Y-104519457D01*
X161075816Y-104634361D01*
X161133268Y-104806719D01*
X161822697Y-105496147D01*
X161075816Y-105496147D01*
X169096168Y-101585147D02*
X169785597Y-101585147D01*
X169440883Y-101585147D02*
X169440883Y-100378647D01*
X169555787Y-100551004D01*
X169670692Y-100665909D01*
X169785597Y-100723361D01*
X168062026Y-100378647D02*
X168291835Y-100378647D01*
X168406740Y-100436100D01*
X168464192Y-100493552D01*
X168579097Y-100665909D01*
X168636549Y-100895719D01*
X168636549Y-101355338D01*
X168579097Y-101470242D01*
X168521645Y-101527695D01*
X168406740Y-101585147D01*
X168176930Y-101585147D01*
X168062026Y-101527695D01*
X168004573Y-101470242D01*
X167947121Y-101355338D01*
X167947121Y-101068076D01*
X168004573Y-100953171D01*
X168062026Y-100895719D01*
X168176930Y-100838266D01*
X168406740Y-100838266D01*
X168521645Y-100895719D01*
X168579097Y-100953171D01*
X168636549Y-101068076D01*
X167430049Y-101585147D02*
X167430049Y-100378647D01*
X167027883Y-101240433D01*
X166625716Y-100378647D01*
X166625716Y-101585147D01*
X166051192Y-101585147D02*
X166051192Y-100378647D01*
X165649026Y-101240433D01*
X165246859Y-100378647D01*
X165246859Y-101585147D01*
X164672335Y-101125528D02*
X163753097Y-101125528D01*
X163236026Y-100493552D02*
X163178573Y-100436100D01*
X163063668Y-100378647D01*
X162776407Y-100378647D01*
X162661502Y-100436100D01*
X162604049Y-100493552D01*
X162546597Y-100608457D01*
X162546597Y-100723361D01*
X162604049Y-100895719D01*
X163293478Y-101585147D01*
X162546597Y-101585147D01*
X161397549Y-101585147D02*
X162086978Y-101585147D01*
X161742264Y-101585147D02*
X161742264Y-100378647D01*
X161857168Y-100551004D01*
X161972073Y-100665909D01*
X162086978Y-100723361D01*
X160880478Y-101585147D02*
X160880478Y-100378647D01*
X160593216Y-100378647D01*
X160420859Y-100436100D01*
X160305954Y-100551004D01*
X160248502Y-100665909D01*
X160191049Y-100895719D01*
X160191049Y-101068076D01*
X160248502Y-101297885D01*
X160305954Y-101412790D01*
X160420859Y-101527695D01*
X160593216Y-101585147D01*
X160880478Y-101585147D01*
X159673978Y-100953171D02*
X159271811Y-100953171D01*
X159099454Y-101585147D02*
X159673978Y-101585147D01*
X159673978Y-100378647D01*
X159099454Y-100378647D01*
X158754740Y-100378647D02*
X158065311Y-100378647D01*
X158410026Y-101585147D02*
X158410026Y-100378647D01*
D14*
X139298438Y-98548076D02*
X139298438Y-98088457D01*
X138333238Y-98088457D01*
X138792857Y-98869809D02*
X138792857Y-99191542D01*
X139298438Y-99329428D02*
X139298438Y-98869809D01*
X138333238Y-98869809D01*
X138333238Y-99329428D01*
X139298438Y-99743085D02*
X138333238Y-99743085D01*
X138333238Y-99972895D01*
X138379200Y-100110781D01*
X138471123Y-100202704D01*
X138563047Y-100248666D01*
X138746895Y-100294628D01*
X138884780Y-100294628D01*
X139068628Y-100248666D01*
X139160552Y-100202704D01*
X139252476Y-100110781D01*
X139298438Y-99972895D01*
X139298438Y-99743085D01*
X138425161Y-100662323D02*
X138379200Y-100708285D01*
X138333238Y-100800209D01*
X138333238Y-101030019D01*
X138379200Y-101121942D01*
X138425161Y-101167904D01*
X138517085Y-101213866D01*
X138609009Y-101213866D01*
X138746895Y-101167904D01*
X139298438Y-100616362D01*
X139298438Y-101213866D01*
X140784338Y-93555766D02*
X141749538Y-93785576D01*
X141060109Y-93969423D01*
X141749538Y-94153271D01*
X140784338Y-94383081D01*
X141749538Y-94750776D02*
X140784338Y-94750776D01*
X141243957Y-94750776D02*
X141243957Y-95302319D01*
X141749538Y-95302319D02*
X140784338Y-95302319D01*
X141749538Y-95761938D02*
X140784338Y-95761938D01*
X140784338Y-96083671D02*
X140784338Y-96635214D01*
X141749538Y-96359442D02*
X140784338Y-96359442D01*
X141243957Y-96956947D02*
X141243957Y-97278681D01*
X141749538Y-97416566D02*
X141749538Y-96956947D01*
X140784338Y-96956947D01*
X140784338Y-97416566D01*
D12*
X136303778Y-104984247D02*
X136303778Y-103777747D01*
X135844159Y-103777747D01*
X135729254Y-103835200D01*
X135671801Y-103892652D01*
X135614349Y-104007557D01*
X135614349Y-104179914D01*
X135671801Y-104294819D01*
X135729254Y-104352271D01*
X135844159Y-104409723D01*
X136303778Y-104409723D01*
X135097278Y-104984247D02*
X135097278Y-103777747D01*
X134522754Y-104984247D02*
X134522754Y-103777747D01*
X133833325Y-104984247D01*
X133833325Y-103777747D01*
X132626825Y-103835200D02*
X132741730Y-103777747D01*
X132914087Y-103777747D01*
X133086444Y-103835200D01*
X133201349Y-103950104D01*
X133258801Y-104065009D01*
X133316254Y-104294819D01*
X133316254Y-104467176D01*
X133258801Y-104696985D01*
X133201349Y-104811890D01*
X133086444Y-104926795D01*
X132914087Y-104984247D01*
X132799182Y-104984247D01*
X132626825Y-104926795D01*
X132569373Y-104869342D01*
X132569373Y-104467176D01*
X132799182Y-104467176D01*
X132167206Y-103777747D02*
X131420325Y-103777747D01*
X131822492Y-104237366D01*
X131650135Y-104237366D01*
X131535230Y-104294819D01*
X131477778Y-104352271D01*
X131420325Y-104467176D01*
X131420325Y-104754438D01*
X131477778Y-104869342D01*
X131535230Y-104926795D01*
X131650135Y-104984247D01*
X131994849Y-104984247D01*
X132109754Y-104926795D01*
X132167206Y-104869342D01*
X152661378Y-112528047D02*
X152661378Y-111321547D01*
X152374116Y-111321547D01*
X152201759Y-111379000D01*
X152086854Y-111493904D01*
X152029401Y-111608809D01*
X151971949Y-111838619D01*
X151971949Y-112010976D01*
X152029401Y-112240785D01*
X152086854Y-112355690D01*
X152201759Y-112470595D01*
X152374116Y-112528047D01*
X152661378Y-112528047D01*
X151454878Y-112528047D02*
X151454878Y-111321547D01*
X151052711Y-111321547D02*
X150650544Y-112528047D01*
X150248378Y-111321547D01*
X149961116Y-111321547D02*
X149214235Y-111321547D01*
X149616401Y-111781166D01*
X149444044Y-111781166D01*
X149329140Y-111838619D01*
X149271687Y-111896071D01*
X149214235Y-112010976D01*
X149214235Y-112298238D01*
X149271687Y-112413142D01*
X149329140Y-112470595D01*
X149444044Y-112528047D01*
X149788759Y-112528047D01*
X149903663Y-112470595D01*
X149961116Y-112413142D01*
X151971949Y-124720047D02*
X152374116Y-124145523D01*
X152661378Y-124720047D02*
X152661378Y-123513547D01*
X152201759Y-123513547D01*
X152086854Y-123571000D01*
X152029401Y-123628452D01*
X151971949Y-123743357D01*
X151971949Y-123915714D01*
X152029401Y-124030619D01*
X152086854Y-124088071D01*
X152201759Y-124145523D01*
X152661378Y-124145523D01*
X151454878Y-124088071D02*
X151052711Y-124088071D01*
X150880354Y-124720047D02*
X151454878Y-124720047D01*
X151454878Y-123513547D01*
X150880354Y-123513547D01*
X150420735Y-124662595D02*
X150248378Y-124720047D01*
X149961116Y-124720047D01*
X149846211Y-124662595D01*
X149788759Y-124605142D01*
X149731306Y-124490238D01*
X149731306Y-124375333D01*
X149788759Y-124260428D01*
X149846211Y-124202976D01*
X149961116Y-124145523D01*
X150190925Y-124088071D01*
X150305830Y-124030619D01*
X150363282Y-123973166D01*
X150420735Y-123858261D01*
X150420735Y-123743357D01*
X150363282Y-123628452D01*
X150305830Y-123571000D01*
X150190925Y-123513547D01*
X149903663Y-123513547D01*
X149731306Y-123571000D01*
X149214235Y-124088071D02*
X148812068Y-124088071D01*
X148639711Y-124720047D02*
X149214235Y-124720047D01*
X149214235Y-123513547D01*
X148639711Y-123513547D01*
X148294997Y-123513547D02*
X147605568Y-123513547D01*
X147950282Y-124720047D02*
X147950282Y-123513547D01*
X147318306Y-123513547D02*
X146571425Y-123513547D01*
X146973592Y-123973166D01*
X146801235Y-123973166D01*
X146686330Y-124030619D01*
X146628878Y-124088071D01*
X146571425Y-124202976D01*
X146571425Y-124490238D01*
X146628878Y-124605142D01*
X146686330Y-124662595D01*
X146801235Y-124720047D01*
X147145949Y-124720047D01*
X147260854Y-124662595D01*
X147318306Y-124605142D01*
X124808947Y-116529031D02*
X124808947Y-116758840D01*
X124866400Y-116873745D01*
X124981304Y-116988650D01*
X125211114Y-117046102D01*
X125613280Y-117046102D01*
X125843090Y-116988650D01*
X125957995Y-116873745D01*
X126015447Y-116758840D01*
X126015447Y-116529031D01*
X125957995Y-116414126D01*
X125843090Y-116299221D01*
X125613280Y-116241769D01*
X125211114Y-116241769D01*
X124981304Y-116299221D01*
X124866400Y-116414126D01*
X124808947Y-116529031D01*
X124808947Y-117563174D02*
X125785638Y-117563174D01*
X125900542Y-117620626D01*
X125957995Y-117678079D01*
X126015447Y-117792983D01*
X126015447Y-118022793D01*
X125957995Y-118137698D01*
X125900542Y-118195150D01*
X125785638Y-118252602D01*
X124808947Y-118252602D01*
X124808947Y-118654769D02*
X124808947Y-119344198D01*
X126015447Y-118999483D02*
X124808947Y-118999483D01*
X124808947Y-119631460D02*
X124808947Y-120378340D01*
X125268566Y-119976174D01*
X125268566Y-120148531D01*
X125326019Y-120263436D01*
X125383471Y-120320888D01*
X125498376Y-120378340D01*
X125785638Y-120378340D01*
X125900542Y-120320888D01*
X125957995Y-120263436D01*
X126015447Y-120148531D01*
X126015447Y-119803817D01*
X125957995Y-119688912D01*
X125900542Y-119631460D01*
D13*
X166935959Y-128673647D02*
X166533792Y-129880147D01*
X166131626Y-128673647D01*
X165040030Y-129880147D02*
X165442197Y-129305623D01*
X165729459Y-129880147D02*
X165729459Y-128673647D01*
X165269840Y-128673647D01*
X165154935Y-128731100D01*
X165097483Y-128788552D01*
X165040030Y-128903457D01*
X165040030Y-129075814D01*
X165097483Y-129190719D01*
X165154935Y-129248171D01*
X165269840Y-129305623D01*
X165729459Y-129305623D01*
X164522959Y-129880147D02*
X164522959Y-128673647D01*
X164235697Y-128673647D01*
X164063340Y-128731100D01*
X163948435Y-128846004D01*
X163890983Y-128960909D01*
X163833530Y-129190719D01*
X163833530Y-129363076D01*
X163890983Y-129592885D01*
X163948435Y-129707790D01*
X164063340Y-129822695D01*
X164235697Y-129880147D01*
X164522959Y-129880147D01*
X163316459Y-129880147D02*
X163316459Y-128673647D01*
X162914292Y-128673647D02*
X162512126Y-129880147D01*
X162109959Y-128673647D01*
X161822697Y-128673647D02*
X161075816Y-128673647D01*
X161477983Y-129133266D01*
X161305626Y-129133266D01*
X161190721Y-129190719D01*
X161133268Y-129248171D01*
X161075816Y-129363076D01*
X161075816Y-129650338D01*
X161133268Y-129765242D01*
X161190721Y-129822695D01*
X161305626Y-129880147D01*
X161650340Y-129880147D01*
X161765245Y-129822695D01*
X161822697Y-129765242D01*
X168867568Y-125715147D02*
X169556997Y-125715147D01*
X169212283Y-125715147D02*
X169212283Y-124508647D01*
X169327187Y-124681004D01*
X169442092Y-124795909D01*
X169556997Y-124853361D01*
X167833426Y-124508647D02*
X168063235Y-124508647D01*
X168178140Y-124566100D01*
X168235592Y-124623552D01*
X168350497Y-124795909D01*
X168407949Y-125025719D01*
X168407949Y-125485338D01*
X168350497Y-125600242D01*
X168293045Y-125657695D01*
X168178140Y-125715147D01*
X167948330Y-125715147D01*
X167833426Y-125657695D01*
X167775973Y-125600242D01*
X167718521Y-125485338D01*
X167718521Y-125198076D01*
X167775973Y-125083171D01*
X167833426Y-125025719D01*
X167948330Y-124968266D01*
X168178140Y-124968266D01*
X168293045Y-125025719D01*
X168350497Y-125083171D01*
X168407949Y-125198076D01*
X167201449Y-125715147D02*
X167201449Y-124508647D01*
X166799283Y-125370433D01*
X166397116Y-124508647D01*
X166397116Y-125715147D01*
X165822592Y-125715147D02*
X165822592Y-124508647D01*
X165420426Y-125370433D01*
X165018259Y-124508647D01*
X165018259Y-125715147D01*
X164443735Y-125255528D02*
X163524497Y-125255528D01*
X163007426Y-124623552D02*
X162949973Y-124566100D01*
X162835068Y-124508647D01*
X162547807Y-124508647D01*
X162432902Y-124566100D01*
X162375449Y-124623552D01*
X162317997Y-124738457D01*
X162317997Y-124853361D01*
X162375449Y-125025719D01*
X163064878Y-125715147D01*
X162317997Y-125715147D01*
X161168949Y-125715147D02*
X161858378Y-125715147D01*
X161513664Y-125715147D02*
X161513664Y-124508647D01*
X161628568Y-124681004D01*
X161743473Y-124795909D01*
X161858378Y-124853361D01*
X160651878Y-125715147D02*
X160651878Y-124508647D01*
X160364616Y-124508647D01*
X160192259Y-124566100D01*
X160077354Y-124681004D01*
X160019902Y-124795909D01*
X159962449Y-125025719D01*
X159962449Y-125198076D01*
X160019902Y-125427885D01*
X160077354Y-125542790D01*
X160192259Y-125657695D01*
X160364616Y-125715147D01*
X160651878Y-125715147D01*
X159445378Y-125083171D02*
X159043211Y-125083171D01*
X158870854Y-125715147D02*
X159445378Y-125715147D01*
X159445378Y-124508647D01*
X158870854Y-124508647D01*
X158526140Y-124508647D02*
X157836711Y-124508647D01*
X158181426Y-125715147D02*
X158181426Y-124508647D01*
D14*
X139196838Y-125167276D02*
X139196838Y-124707657D01*
X138231638Y-124707657D01*
X138691257Y-125489009D02*
X138691257Y-125810742D01*
X139196838Y-125948628D02*
X139196838Y-125489009D01*
X138231638Y-125489009D01*
X138231638Y-125948628D01*
X139196838Y-126362285D02*
X138231638Y-126362285D01*
X138231638Y-126592095D01*
X138277600Y-126729981D01*
X138369523Y-126821904D01*
X138461447Y-126867866D01*
X138645295Y-126913828D01*
X138783180Y-126913828D01*
X138967028Y-126867866D01*
X139058952Y-126821904D01*
X139150876Y-126729981D01*
X139196838Y-126592095D01*
X139196838Y-126362285D01*
X138231638Y-127235562D02*
X138231638Y-127833066D01*
X138599333Y-127511333D01*
X138599333Y-127649219D01*
X138645295Y-127741142D01*
X138691257Y-127787104D01*
X138783180Y-127833066D01*
X139012990Y-127833066D01*
X139104914Y-127787104D01*
X139150876Y-127741142D01*
X139196838Y-127649219D01*
X139196838Y-127373447D01*
X139150876Y-127281523D01*
X139104914Y-127235562D01*
X140202557Y-121394166D02*
X140248519Y-121532052D01*
X140294480Y-121578014D01*
X140386404Y-121623976D01*
X140524290Y-121623976D01*
X140616214Y-121578014D01*
X140662176Y-121532052D01*
X140708138Y-121440128D01*
X140708138Y-121072433D01*
X139742938Y-121072433D01*
X139742938Y-121394166D01*
X139788900Y-121486090D01*
X139834861Y-121532052D01*
X139926785Y-121578014D01*
X140018709Y-121578014D01*
X140110633Y-121532052D01*
X140156595Y-121486090D01*
X140202557Y-121394166D01*
X140202557Y-121072433D01*
X140708138Y-122497252D02*
X140708138Y-122037633D01*
X139742938Y-122037633D01*
X139742938Y-122818985D02*
X140524290Y-122818985D01*
X140616214Y-122864947D01*
X140662176Y-122910909D01*
X140708138Y-123002833D01*
X140708138Y-123186681D01*
X140662176Y-123278604D01*
X140616214Y-123324566D01*
X140524290Y-123370528D01*
X139742938Y-123370528D01*
X140202557Y-123830147D02*
X140202557Y-124151881D01*
X140708138Y-124289766D02*
X140708138Y-123830147D01*
X139742938Y-123830147D01*
X139742938Y-124289766D01*
D12*
X136303778Y-131654247D02*
X136303778Y-130447747D01*
X135844159Y-130447747D01*
X135729254Y-130505200D01*
X135671801Y-130562652D01*
X135614349Y-130677557D01*
X135614349Y-130849914D01*
X135671801Y-130964819D01*
X135729254Y-131022271D01*
X135844159Y-131079723D01*
X136303778Y-131079723D01*
X135097278Y-131654247D02*
X135097278Y-130447747D01*
X134522754Y-131654247D02*
X134522754Y-130447747D01*
X133833325Y-131654247D01*
X133833325Y-130447747D01*
X132626825Y-130505200D02*
X132741730Y-130447747D01*
X132914087Y-130447747D01*
X133086444Y-130505200D01*
X133201349Y-130620104D01*
X133258801Y-130735009D01*
X133316254Y-130964819D01*
X133316254Y-131137176D01*
X133258801Y-131366985D01*
X133201349Y-131481890D01*
X133086444Y-131596795D01*
X132914087Y-131654247D01*
X132799182Y-131654247D01*
X132626825Y-131596795D01*
X132569373Y-131539342D01*
X132569373Y-131137176D01*
X132799182Y-131137176D01*
X131535230Y-130849914D02*
X131535230Y-131654247D01*
X131822492Y-130390295D02*
X132109754Y-131252080D01*
X131362873Y-131252080D01*
X152661378Y-136912047D02*
X152661378Y-135705547D01*
X152374116Y-135705547D01*
X152201759Y-135763000D01*
X152086854Y-135877904D01*
X152029401Y-135992809D01*
X151971949Y-136222619D01*
X151971949Y-136394976D01*
X152029401Y-136624785D01*
X152086854Y-136739690D01*
X152201759Y-136854595D01*
X152374116Y-136912047D01*
X152661378Y-136912047D01*
X151454878Y-136912047D02*
X151454878Y-135705547D01*
X151052711Y-135705547D02*
X150650544Y-136912047D01*
X150248378Y-135705547D01*
X149329140Y-136107714D02*
X149329140Y-136912047D01*
X149616401Y-135648095D02*
X149903663Y-136509880D01*
X149156782Y-136509880D01*
X151971949Y-149104047D02*
X152374116Y-148529523D01*
X152661378Y-149104047D02*
X152661378Y-147897547D01*
X152201759Y-147897547D01*
X152086854Y-147955000D01*
X152029401Y-148012452D01*
X151971949Y-148127357D01*
X151971949Y-148299714D01*
X152029401Y-148414619D01*
X152086854Y-148472071D01*
X152201759Y-148529523D01*
X152661378Y-148529523D01*
X151454878Y-148472071D02*
X151052711Y-148472071D01*
X150880354Y-149104047D02*
X151454878Y-149104047D01*
X151454878Y-147897547D01*
X150880354Y-147897547D01*
X150420735Y-149046595D02*
X150248378Y-149104047D01*
X149961116Y-149104047D01*
X149846211Y-149046595D01*
X149788759Y-148989142D01*
X149731306Y-148874238D01*
X149731306Y-148759333D01*
X149788759Y-148644428D01*
X149846211Y-148586976D01*
X149961116Y-148529523D01*
X150190925Y-148472071D01*
X150305830Y-148414619D01*
X150363282Y-148357166D01*
X150420735Y-148242261D01*
X150420735Y-148127357D01*
X150363282Y-148012452D01*
X150305830Y-147955000D01*
X150190925Y-147897547D01*
X149903663Y-147897547D01*
X149731306Y-147955000D01*
X149214235Y-148472071D02*
X148812068Y-148472071D01*
X148639711Y-149104047D02*
X149214235Y-149104047D01*
X149214235Y-147897547D01*
X148639711Y-147897547D01*
X148294997Y-147897547D02*
X147605568Y-147897547D01*
X147950282Y-149104047D02*
X147950282Y-147897547D01*
X146686330Y-148299714D02*
X146686330Y-149104047D01*
X146973592Y-147840095D02*
X147260854Y-148701880D01*
X146513973Y-148701880D01*
X124808947Y-143249831D02*
X124808947Y-143479640D01*
X124866400Y-143594545D01*
X124981304Y-143709450D01*
X125211114Y-143766902D01*
X125613280Y-143766902D01*
X125843090Y-143709450D01*
X125957995Y-143594545D01*
X126015447Y-143479640D01*
X126015447Y-143249831D01*
X125957995Y-143134926D01*
X125843090Y-143020021D01*
X125613280Y-142962569D01*
X125211114Y-142962569D01*
X124981304Y-143020021D01*
X124866400Y-143134926D01*
X124808947Y-143249831D01*
X124808947Y-144283974D02*
X125785638Y-144283974D01*
X125900542Y-144341426D01*
X125957995Y-144398879D01*
X126015447Y-144513783D01*
X126015447Y-144743593D01*
X125957995Y-144858498D01*
X125900542Y-144915950D01*
X125785638Y-144973402D01*
X124808947Y-144973402D01*
X124808947Y-145375569D02*
X124808947Y-146064998D01*
X126015447Y-145720283D02*
X124808947Y-145720283D01*
X125211114Y-146984236D02*
X126015447Y-146984236D01*
X124751495Y-146696974D02*
X125613280Y-146409712D01*
X125613280Y-147156593D01*
D13*
X166935959Y-153057647D02*
X166533792Y-154264147D01*
X166131626Y-153057647D01*
X165040030Y-154264147D02*
X165442197Y-153689623D01*
X165729459Y-154264147D02*
X165729459Y-153057647D01*
X165269840Y-153057647D01*
X165154935Y-153115100D01*
X165097483Y-153172552D01*
X165040030Y-153287457D01*
X165040030Y-153459814D01*
X165097483Y-153574719D01*
X165154935Y-153632171D01*
X165269840Y-153689623D01*
X165729459Y-153689623D01*
X164522959Y-154264147D02*
X164522959Y-153057647D01*
X164235697Y-153057647D01*
X164063340Y-153115100D01*
X163948435Y-153230004D01*
X163890983Y-153344909D01*
X163833530Y-153574719D01*
X163833530Y-153747076D01*
X163890983Y-153976885D01*
X163948435Y-154091790D01*
X164063340Y-154206695D01*
X164235697Y-154264147D01*
X164522959Y-154264147D01*
X163316459Y-154264147D02*
X163316459Y-153057647D01*
X162914292Y-153057647D02*
X162512126Y-154264147D01*
X162109959Y-153057647D01*
X161190721Y-153459814D02*
X161190721Y-154264147D01*
X161477983Y-153000195D02*
X161765245Y-153861980D01*
X161018364Y-153861980D01*
X169019968Y-149997547D02*
X169709397Y-149997547D01*
X169364683Y-149997547D02*
X169364683Y-148791047D01*
X169479587Y-148963404D01*
X169594492Y-149078309D01*
X169709397Y-149135761D01*
X167985826Y-148791047D02*
X168215635Y-148791047D01*
X168330540Y-148848500D01*
X168387992Y-148905952D01*
X168502897Y-149078309D01*
X168560349Y-149308119D01*
X168560349Y-149767738D01*
X168502897Y-149882642D01*
X168445445Y-149940095D01*
X168330540Y-149997547D01*
X168100730Y-149997547D01*
X167985826Y-149940095D01*
X167928373Y-149882642D01*
X167870921Y-149767738D01*
X167870921Y-149480476D01*
X167928373Y-149365571D01*
X167985826Y-149308119D01*
X168100730Y-149250666D01*
X168330540Y-149250666D01*
X168445445Y-149308119D01*
X168502897Y-149365571D01*
X168560349Y-149480476D01*
X167353849Y-149997547D02*
X167353849Y-148791047D01*
X166951683Y-149652833D01*
X166549516Y-148791047D01*
X166549516Y-149997547D01*
X165974992Y-149997547D02*
X165974992Y-148791047D01*
X165572826Y-149652833D01*
X165170659Y-148791047D01*
X165170659Y-149997547D01*
X164596135Y-149537928D02*
X163676897Y-149537928D01*
X163159826Y-148905952D02*
X163102373Y-148848500D01*
X162987468Y-148791047D01*
X162700207Y-148791047D01*
X162585302Y-148848500D01*
X162527849Y-148905952D01*
X162470397Y-149020857D01*
X162470397Y-149135761D01*
X162527849Y-149308119D01*
X163217278Y-149997547D01*
X162470397Y-149997547D01*
X161321349Y-149997547D02*
X162010778Y-149997547D01*
X161666064Y-149997547D02*
X161666064Y-148791047D01*
X161780968Y-148963404D01*
X161895873Y-149078309D01*
X162010778Y-149135761D01*
X160804278Y-149997547D02*
X160804278Y-148791047D01*
X160517016Y-148791047D01*
X160344659Y-148848500D01*
X160229754Y-148963404D01*
X160172302Y-149078309D01*
X160114849Y-149308119D01*
X160114849Y-149480476D01*
X160172302Y-149710285D01*
X160229754Y-149825190D01*
X160344659Y-149940095D01*
X160517016Y-149997547D01*
X160804278Y-149997547D01*
X159597778Y-149365571D02*
X159195611Y-149365571D01*
X159023254Y-149997547D02*
X159597778Y-149997547D01*
X159597778Y-148791047D01*
X159023254Y-148791047D01*
X158678540Y-148791047D02*
X157989111Y-148791047D01*
X158333826Y-149997547D02*
X158333826Y-148791047D01*
D14*
X139196838Y-142845676D02*
X139196838Y-142386057D01*
X138231638Y-142386057D01*
X138691257Y-143167409D02*
X138691257Y-143489142D01*
X139196838Y-143627028D02*
X139196838Y-143167409D01*
X138231638Y-143167409D01*
X138231638Y-143627028D01*
X139196838Y-144040685D02*
X138231638Y-144040685D01*
X138231638Y-144270495D01*
X138277600Y-144408381D01*
X138369523Y-144500304D01*
X138461447Y-144546266D01*
X138645295Y-144592228D01*
X138783180Y-144592228D01*
X138967028Y-144546266D01*
X139058952Y-144500304D01*
X139150876Y-144408381D01*
X139196838Y-144270495D01*
X139196838Y-144040685D01*
X138553371Y-145419542D02*
X139196838Y-145419542D01*
X138185676Y-145189733D02*
X138875104Y-144959923D01*
X138875104Y-145557428D01*
X139738100Y-147394090D02*
X139692138Y-147302166D01*
X139692138Y-147164281D01*
X139738100Y-147026395D01*
X139830023Y-146934471D01*
X139921947Y-146888509D01*
X140105795Y-146842547D01*
X140243680Y-146842547D01*
X140427528Y-146888509D01*
X140519452Y-146934471D01*
X140611376Y-147026395D01*
X140657338Y-147164281D01*
X140657338Y-147256204D01*
X140611376Y-147394090D01*
X140565414Y-147440052D01*
X140243680Y-147440052D01*
X140243680Y-147256204D01*
X140657338Y-148405252D02*
X140197719Y-148083519D01*
X140657338Y-147853709D02*
X139692138Y-147853709D01*
X139692138Y-148221404D01*
X139738100Y-148313328D01*
X139784061Y-148359290D01*
X139875985Y-148405252D01*
X140013871Y-148405252D01*
X140105795Y-148359290D01*
X140151757Y-148313328D01*
X140197719Y-148221404D01*
X140197719Y-147853709D01*
X140151757Y-148818909D02*
X140151757Y-149140642D01*
X140657338Y-149278528D02*
X140657338Y-148818909D01*
X139692138Y-148818909D01*
X139692138Y-149278528D01*
X140151757Y-149692185D02*
X140151757Y-150013919D01*
X140657338Y-150151804D02*
X140657338Y-149692185D01*
X139692138Y-149692185D01*
X139692138Y-150151804D01*
X140657338Y-150565462D02*
X139692138Y-150565462D01*
X140657338Y-151117004D01*
X139692138Y-151117004D01*
D13*
X154082447Y-52660011D02*
X154082447Y-53349440D01*
X155288947Y-53004726D02*
X154082447Y-53004726D01*
X154944233Y-53694154D02*
X154944233Y-54268678D01*
X155288947Y-53579249D02*
X154082447Y-53981416D01*
X155288947Y-54383583D01*
X155288947Y-54785749D02*
X154082447Y-54785749D01*
X154082447Y-55245368D01*
X154139900Y-55360273D01*
X154197352Y-55417726D01*
X154312257Y-55475178D01*
X154484614Y-55475178D01*
X154599519Y-55417726D01*
X154656971Y-55360273D01*
X154714423Y-55245368D01*
X154714423Y-54785749D01*
X154082447Y-56222059D02*
X154082447Y-56451868D01*
X154139900Y-56566773D01*
X154254804Y-56681678D01*
X154484614Y-56739130D01*
X154886780Y-56739130D01*
X155116590Y-56681678D01*
X155231495Y-56566773D01*
X155288947Y-56451868D01*
X155288947Y-56222059D01*
X155231495Y-56107154D01*
X155116590Y-55992249D01*
X154886780Y-55934797D01*
X154484614Y-55934797D01*
X154254804Y-55992249D01*
X154139900Y-56107154D01*
X154082447Y-56222059D01*
X154082447Y-57256202D02*
X155059138Y-57256202D01*
X155174042Y-57313654D01*
X155231495Y-57371107D01*
X155288947Y-57486011D01*
X155288947Y-57715821D01*
X155231495Y-57830726D01*
X155174042Y-57888178D01*
X155059138Y-57945630D01*
X154082447Y-57945630D01*
X154082447Y-58347797D02*
X154082447Y-59037226D01*
X155288947Y-58692511D02*
X154082447Y-58692511D01*
X155288947Y-60071368D02*
X155288947Y-59381940D01*
X155288947Y-59726654D02*
X154082447Y-59726654D01*
X154254804Y-59611749D01*
X154369709Y-59496845D01*
X154427161Y-59381940D01*
D15*
X161219847Y-60611499D02*
X160013347Y-60611499D01*
X160013347Y-61071118D01*
X160070800Y-61186023D01*
X160128252Y-61243476D01*
X160243157Y-61300928D01*
X160415514Y-61300928D01*
X160530419Y-61243476D01*
X160587871Y-61186023D01*
X160645323Y-61071118D01*
X160645323Y-60611499D01*
X160587871Y-62220166D02*
X160645323Y-62392523D01*
X160702776Y-62449976D01*
X160817680Y-62507428D01*
X160990038Y-62507428D01*
X161104942Y-62449976D01*
X161162395Y-62392523D01*
X161219847Y-62277618D01*
X161219847Y-61817999D01*
X160013347Y-61817999D01*
X160013347Y-62220166D01*
X160070800Y-62335071D01*
X160128252Y-62392523D01*
X160243157Y-62449976D01*
X160358061Y-62449976D01*
X160472966Y-62392523D01*
X160530419Y-62335071D01*
X160587871Y-62220166D01*
X160587871Y-61817999D01*
X161219847Y-63656476D02*
X161219847Y-62967047D01*
X161219847Y-63311761D02*
X160013347Y-63311761D01*
X160185704Y-63196857D01*
X160300609Y-63081952D01*
X160358061Y-62967047D01*
X158108347Y-61766595D02*
X159314847Y-62053857D01*
X158453061Y-62283666D01*
X159314847Y-62513476D01*
X158108347Y-62800738D01*
X159314847Y-63260357D02*
X158108347Y-63260357D01*
X158682871Y-63260357D02*
X158682871Y-63949785D01*
X159314847Y-63949785D02*
X158108347Y-63949785D01*
X159314847Y-64524309D02*
X158108347Y-64524309D01*
X158108347Y-64926476D02*
X158108347Y-65615904D01*
X159314847Y-65271190D02*
X158108347Y-65271190D01*
X158682871Y-66018071D02*
X158682871Y-66420238D01*
X159314847Y-66592595D02*
X159314847Y-66018071D01*
X158108347Y-66018071D01*
X158108347Y-66592595D01*
X158855228Y-67109666D02*
X158855228Y-68028904D01*
X159314847Y-68603428D02*
X158108347Y-68603428D01*
X158970133Y-69005595D01*
X158108347Y-69407761D01*
X159314847Y-69407761D01*
X158108347Y-70212095D02*
X158108347Y-70441904D01*
X158165800Y-70556809D01*
X158280704Y-70671714D01*
X158510514Y-70729166D01*
X158912680Y-70729166D01*
X159142490Y-70671714D01*
X159257395Y-70556809D01*
X159314847Y-70441904D01*
X159314847Y-70212095D01*
X159257395Y-70097190D01*
X159142490Y-69982285D01*
X158912680Y-69924833D01*
X158510514Y-69924833D01*
X158280704Y-69982285D01*
X158165800Y-70097190D01*
X158108347Y-70212095D01*
X159314847Y-71246238D02*
X158108347Y-71246238D01*
X158970133Y-71648404D01*
X158108347Y-72050571D01*
X159314847Y-72050571D01*
D13*
X143117273Y-51974447D02*
X143691797Y-51974447D01*
X143691797Y-50767947D01*
X142715107Y-51342471D02*
X142312940Y-51342471D01*
X142140583Y-51974447D02*
X142715107Y-51974447D01*
X142715107Y-50767947D01*
X142140583Y-50767947D01*
X141623511Y-51974447D02*
X141623511Y-50767947D01*
X141336249Y-50767947D01*
X141163892Y-50825400D01*
X141048987Y-50940304D01*
X140991535Y-51055209D01*
X140934083Y-51285019D01*
X140934083Y-51457376D01*
X140991535Y-51687185D01*
X141048987Y-51802090D01*
X141163892Y-51916995D01*
X141336249Y-51974447D01*
X141623511Y-51974447D01*
X140704273Y-52089352D02*
X139785035Y-52089352D01*
X139497773Y-51974447D02*
X139497773Y-50767947D01*
X139210511Y-50767947D01*
X139038154Y-50825400D01*
X138923249Y-50940304D01*
X138865797Y-51055209D01*
X138808345Y-51285019D01*
X138808345Y-51457376D01*
X138865797Y-51687185D01*
X138923249Y-51802090D01*
X139038154Y-51916995D01*
X139210511Y-51974447D01*
X139497773Y-51974447D01*
X138291273Y-51974447D02*
X138291273Y-50767947D01*
X137716749Y-51974447D02*
X137716749Y-50767947D01*
X137314583Y-51629733D01*
X136912416Y-50767947D01*
X136912416Y-51974447D01*
X135705916Y-51974447D02*
X136395345Y-51974447D01*
X136050630Y-51974447D02*
X136050630Y-50767947D01*
X136165535Y-50940304D01*
X136280440Y-51055209D01*
X136395345Y-51112661D01*
X144541354Y-62490047D02*
X145230783Y-62490047D01*
X144886069Y-62490047D02*
X144886069Y-61283547D01*
X145000973Y-61455904D01*
X145115878Y-61570809D01*
X145230783Y-61628261D01*
X143794473Y-61283547D02*
X143679569Y-61283547D01*
X143564664Y-61341000D01*
X143507212Y-61398452D01*
X143449759Y-61513357D01*
X143392307Y-61743166D01*
X143392307Y-62030428D01*
X143449759Y-62260238D01*
X143507212Y-62375142D01*
X143564664Y-62432595D01*
X143679569Y-62490047D01*
X143794473Y-62490047D01*
X143909378Y-62432595D01*
X143966831Y-62375142D01*
X144024283Y-62260238D01*
X144081735Y-62030428D01*
X144081735Y-61743166D01*
X144024283Y-61513357D01*
X143966831Y-61398452D01*
X143909378Y-61341000D01*
X143794473Y-61283547D01*
X142875235Y-62490047D02*
X142875235Y-61283547D01*
X142760331Y-62030428D02*
X142415616Y-62490047D01*
X142415616Y-61685714D02*
X142875235Y-62145333D01*
X140979307Y-61685714D02*
X140979307Y-62892214D01*
X140979307Y-61743166D02*
X140864402Y-61685714D01*
X140634593Y-61685714D01*
X140519688Y-61743166D01*
X140462235Y-61800619D01*
X140404783Y-61915523D01*
X140404783Y-62260238D01*
X140462235Y-62375142D01*
X140519688Y-62432595D01*
X140634593Y-62490047D01*
X140864402Y-62490047D01*
X140979307Y-62432595D01*
X139715354Y-62490047D02*
X139830259Y-62432595D01*
X139887712Y-62317690D01*
X139887712Y-61283547D01*
X138738664Y-62490047D02*
X138738664Y-61858071D01*
X138796116Y-61743166D01*
X138911021Y-61685714D01*
X139140831Y-61685714D01*
X139255735Y-61743166D01*
X138738664Y-62432595D02*
X138853569Y-62490047D01*
X139140831Y-62490047D01*
X139255735Y-62432595D01*
X139313188Y-62317690D01*
X139313188Y-62202785D01*
X139255735Y-62087880D01*
X139140831Y-62030428D01*
X138853569Y-62030428D01*
X138738664Y-61972976D01*
X138221593Y-62432595D02*
X138106688Y-62490047D01*
X137876878Y-62490047D01*
X137761973Y-62432595D01*
X137704521Y-62317690D01*
X137704521Y-62260238D01*
X137761973Y-62145333D01*
X137876878Y-62087880D01*
X138049235Y-62087880D01*
X138164140Y-62030428D01*
X138221593Y-61915523D01*
X138221593Y-61858071D01*
X138164140Y-61743166D01*
X138049235Y-61685714D01*
X137876878Y-61685714D01*
X137761973Y-61743166D01*
X137359807Y-61685714D02*
X136900188Y-61685714D01*
X137187450Y-61283547D02*
X137187450Y-62317690D01*
X137129997Y-62432595D01*
X137015093Y-62490047D01*
X136900188Y-62490047D01*
X136498021Y-62490047D02*
X136498021Y-61685714D01*
X136498021Y-61283547D02*
X136555473Y-61341000D01*
X136498021Y-61398452D01*
X136440569Y-61341000D01*
X136498021Y-61283547D01*
X136498021Y-61398452D01*
X135406426Y-62432595D02*
X135521331Y-62490047D01*
X135751140Y-62490047D01*
X135866045Y-62432595D01*
X135923497Y-62375142D01*
X135980950Y-62260238D01*
X135980950Y-61915523D01*
X135923497Y-61800619D01*
X135866045Y-61743166D01*
X135751140Y-61685714D01*
X135521331Y-61685714D01*
X135406426Y-61743166D01*
M02*
