G04 #@! TF.GenerationSoftware,KiCad,Pcbnew,(6.0.0-rc1-dev-1542-gf9f87b3ff-dirty)*
G04 #@! TF.CreationDate,2019-02-04T09:57:11-08:00
G04 #@! TF.ProjectId,qcd-23,7163642d-3233-42e6-9b69-6361645f7063,rev?*
G04 #@! TF.SameCoordinates,Original*
G04 #@! TF.FileFunction,Paste,Top*
G04 #@! TF.FilePolarity,Positive*
%FSLAX46Y46*%
G04 Gerber Fmt 4.6, Leading zero omitted, Abs format (unit mm)*
G04 Created by KiCad (PCBNEW (6.0.0-rc1-dev-1542-gf9f87b3ff-dirty)) date Monday, 04 February 2019 at 09:57:11*
%MOMM*%
%LPD*%
G04 APERTURE LIST*
%ADD10R,1.000000X1.000000*%
%ADD11R,0.400000X1.200000*%
%ADD12C,0.127000*%
%ADD13C,0.400000*%
%ADD14R,1.200000X0.400000*%
%ADD15R,1.000000X1.400000*%
%ADD16R,1.400000X1.000000*%
%ADD17R,3.556000X1.016000*%
%ADD18R,3.000000X1.600000*%
%ADD19R,6.200000X5.800000*%
%ADD20R,1.700000X1.800000*%
%ADD21R,1.000000X2.300000*%
%ADD22R,1.800000X1.700000*%
%ADD23R,1.016000X3.556000*%
%ADD24R,0.500000X1.250000*%
%ADD25R,1.250000X0.500000*%
%ADD26R,1.150000X1.400000*%
G04 APERTURE END LIST*
D10*
X128816100Y-59790700D03*
X128816100Y-58090700D03*
X146000100Y-75730100D03*
X147700100Y-75730100D03*
X148208100Y-83223100D03*
X146508100Y-83223100D03*
X127546100Y-52958100D03*
X127546100Y-51258100D03*
X128689100Y-65658100D03*
X128689100Y-63958100D03*
X163741100Y-78690100D03*
X163741100Y-80390100D03*
X150572100Y-77762100D03*
X152272100Y-77762100D03*
X133896100Y-67768100D03*
X133896100Y-69468100D03*
X138507100Y-65316100D03*
X140207100Y-65316100D03*
X140207100Y-63665100D03*
X138507100Y-63665100D03*
X168909100Y-122466100D03*
X167209100Y-122466100D03*
D11*
X149222100Y-72686100D03*
D12*
G36*
X148746844Y-72086235D02*
G01*
X148749563Y-72086638D01*
X148752228Y-72087306D01*
X148754815Y-72088231D01*
X148757299Y-72089406D01*
X148759656Y-72090819D01*
X148761863Y-72092456D01*
X148763899Y-72094301D01*
X148765744Y-72096337D01*
X148767381Y-72098544D01*
X148768794Y-72100901D01*
X148769969Y-72103385D01*
X148770894Y-72105972D01*
X148771562Y-72108637D01*
X148771965Y-72111356D01*
X148772100Y-72114100D01*
X148772100Y-73258100D01*
X148771965Y-73260844D01*
X148771562Y-73263563D01*
X148770894Y-73266228D01*
X148769969Y-73268815D01*
X148768794Y-73271299D01*
X148767381Y-73273656D01*
X148765744Y-73275863D01*
X148763899Y-73277899D01*
X148761863Y-73279744D01*
X148759656Y-73281381D01*
X148757299Y-73282794D01*
X148754815Y-73283969D01*
X148752228Y-73284894D01*
X148749563Y-73285562D01*
X148746844Y-73285965D01*
X148744100Y-73286100D01*
X148400100Y-73286100D01*
X148397356Y-73285965D01*
X148394637Y-73285562D01*
X148391972Y-73284894D01*
X148389385Y-73283969D01*
X148386901Y-73282794D01*
X148384544Y-73281381D01*
X148382337Y-73279744D01*
X148380301Y-73277899D01*
X148378456Y-73275863D01*
X148376819Y-73273656D01*
X148375406Y-73271299D01*
X148374231Y-73268815D01*
X148373306Y-73266228D01*
X148372638Y-73263563D01*
X148372235Y-73260844D01*
X148372100Y-73258100D01*
X148372100Y-72114100D01*
X148372235Y-72111356D01*
X148372638Y-72108637D01*
X148373306Y-72105972D01*
X148374231Y-72103385D01*
X148375406Y-72100901D01*
X148376819Y-72098544D01*
X148378456Y-72096337D01*
X148380301Y-72094301D01*
X148382337Y-72092456D01*
X148384544Y-72090819D01*
X148386901Y-72089406D01*
X148389385Y-72088231D01*
X148391972Y-72087306D01*
X148394637Y-72086638D01*
X148397356Y-72086235D01*
X148400100Y-72086100D01*
X148744100Y-72086100D01*
X148746844Y-72086235D01*
X148746844Y-72086235D01*
G37*
D13*
X148572100Y-72686100D03*
D11*
X147922100Y-72686100D03*
X147272100Y-72686100D03*
X147272100Y-66836100D03*
X147922100Y-66836100D03*
X148572100Y-66836100D03*
X149222100Y-66836100D03*
D14*
X130844100Y-65910100D03*
D12*
G36*
X131418844Y-65060235D02*
G01*
X131421563Y-65060638D01*
X131424228Y-65061306D01*
X131426815Y-65062231D01*
X131429299Y-65063406D01*
X131431656Y-65064819D01*
X131433863Y-65066456D01*
X131435899Y-65068301D01*
X131437744Y-65070337D01*
X131439381Y-65072544D01*
X131440794Y-65074901D01*
X131441969Y-65077385D01*
X131442894Y-65079972D01*
X131443562Y-65082637D01*
X131443965Y-65085356D01*
X131444100Y-65088100D01*
X131444100Y-65432100D01*
X131443965Y-65434844D01*
X131443562Y-65437563D01*
X131442894Y-65440228D01*
X131441969Y-65442815D01*
X131440794Y-65445299D01*
X131439381Y-65447656D01*
X131437744Y-65449863D01*
X131435899Y-65451899D01*
X131433863Y-65453744D01*
X131431656Y-65455381D01*
X131429299Y-65456794D01*
X131426815Y-65457969D01*
X131424228Y-65458894D01*
X131421563Y-65459562D01*
X131418844Y-65459965D01*
X131416100Y-65460100D01*
X130272100Y-65460100D01*
X130269356Y-65459965D01*
X130266637Y-65459562D01*
X130263972Y-65458894D01*
X130261385Y-65457969D01*
X130258901Y-65456794D01*
X130256544Y-65455381D01*
X130254337Y-65453744D01*
X130252301Y-65451899D01*
X130250456Y-65449863D01*
X130248819Y-65447656D01*
X130247406Y-65445299D01*
X130246231Y-65442815D01*
X130245306Y-65440228D01*
X130244638Y-65437563D01*
X130244235Y-65434844D01*
X130244100Y-65432100D01*
X130244100Y-65088100D01*
X130244235Y-65085356D01*
X130244638Y-65082637D01*
X130245306Y-65079972D01*
X130246231Y-65077385D01*
X130247406Y-65074901D01*
X130248819Y-65072544D01*
X130250456Y-65070337D01*
X130252301Y-65068301D01*
X130254337Y-65066456D01*
X130256544Y-65064819D01*
X130258901Y-65063406D01*
X130261385Y-65062231D01*
X130263972Y-65061306D01*
X130266637Y-65060638D01*
X130269356Y-65060235D01*
X130272100Y-65060100D01*
X131416100Y-65060100D01*
X131418844Y-65060235D01*
X131418844Y-65060235D01*
G37*
D13*
X130844100Y-65260100D03*
D14*
X130844100Y-64610100D03*
X130844100Y-63960100D03*
X136694100Y-63960100D03*
X136694100Y-64610100D03*
X136694100Y-65260100D03*
X136694100Y-65910100D03*
D15*
X129263100Y-73909100D03*
X131163100Y-73909100D03*
X130213100Y-71709100D03*
D10*
X131864100Y-67895100D03*
X131864100Y-69595100D03*
X166027100Y-80517100D03*
X166027100Y-78817100D03*
D15*
X168379100Y-80640100D03*
X170279100Y-80640100D03*
X169329100Y-78440100D03*
X164310100Y-89108100D03*
X162410100Y-89108100D03*
X163360100Y-91308100D03*
X146408100Y-81148100D03*
X148308100Y-81148100D03*
X147358100Y-78948100D03*
D10*
X149302100Y-75730100D03*
X151002100Y-75730100D03*
X127634100Y-80556100D03*
X125934100Y-80556100D03*
X133896100Y-80214100D03*
X133896100Y-81914100D03*
X130252100Y-80048100D03*
X131952100Y-80048100D03*
X166103300Y-109523900D03*
X166103300Y-107823900D03*
X150699100Y-102908100D03*
X152399100Y-102908100D03*
X133642100Y-88469100D03*
X133642100Y-90169100D03*
X135420100Y-88469100D03*
X135420100Y-90169100D03*
X135254100Y-85890100D03*
X133554100Y-85890100D03*
X168909100Y-125006100D03*
X167209100Y-125006100D03*
X144603100Y-101130100D03*
X146303100Y-101130100D03*
X142913100Y-101042100D03*
X142913100Y-102742100D03*
D11*
X148841100Y-98467100D03*
D12*
G36*
X148365844Y-97867235D02*
G01*
X148368563Y-97867638D01*
X148371228Y-97868306D01*
X148373815Y-97869231D01*
X148376299Y-97870406D01*
X148378656Y-97871819D01*
X148380863Y-97873456D01*
X148382899Y-97875301D01*
X148384744Y-97877337D01*
X148386381Y-97879544D01*
X148387794Y-97881901D01*
X148388969Y-97884385D01*
X148389894Y-97886972D01*
X148390562Y-97889637D01*
X148390965Y-97892356D01*
X148391100Y-97895100D01*
X148391100Y-99039100D01*
X148390965Y-99041844D01*
X148390562Y-99044563D01*
X148389894Y-99047228D01*
X148388969Y-99049815D01*
X148387794Y-99052299D01*
X148386381Y-99054656D01*
X148384744Y-99056863D01*
X148382899Y-99058899D01*
X148380863Y-99060744D01*
X148378656Y-99062381D01*
X148376299Y-99063794D01*
X148373815Y-99064969D01*
X148371228Y-99065894D01*
X148368563Y-99066562D01*
X148365844Y-99066965D01*
X148363100Y-99067100D01*
X148019100Y-99067100D01*
X148016356Y-99066965D01*
X148013637Y-99066562D01*
X148010972Y-99065894D01*
X148008385Y-99064969D01*
X148005901Y-99063794D01*
X148003544Y-99062381D01*
X148001337Y-99060744D01*
X147999301Y-99058899D01*
X147997456Y-99056863D01*
X147995819Y-99054656D01*
X147994406Y-99052299D01*
X147993231Y-99049815D01*
X147992306Y-99047228D01*
X147991638Y-99044563D01*
X147991235Y-99041844D01*
X147991100Y-99039100D01*
X147991100Y-97895100D01*
X147991235Y-97892356D01*
X147991638Y-97889637D01*
X147992306Y-97886972D01*
X147993231Y-97884385D01*
X147994406Y-97881901D01*
X147995819Y-97879544D01*
X147997456Y-97877337D01*
X147999301Y-97875301D01*
X148001337Y-97873456D01*
X148003544Y-97871819D01*
X148005901Y-97870406D01*
X148008385Y-97869231D01*
X148010972Y-97868306D01*
X148013637Y-97867638D01*
X148016356Y-97867235D01*
X148019100Y-97867100D01*
X148363100Y-97867100D01*
X148365844Y-97867235D01*
X148365844Y-97867235D01*
G37*
D13*
X148191100Y-98467100D03*
D11*
X147541100Y-98467100D03*
X146891100Y-98467100D03*
X146891100Y-92617100D03*
X147541100Y-92617100D03*
X148191100Y-92617100D03*
X148841100Y-92617100D03*
X130127100Y-81822100D03*
D12*
G36*
X130951844Y-81222235D02*
G01*
X130954563Y-81222638D01*
X130957228Y-81223306D01*
X130959815Y-81224231D01*
X130962299Y-81225406D01*
X130964656Y-81226819D01*
X130966863Y-81228456D01*
X130968899Y-81230301D01*
X130970744Y-81232337D01*
X130972381Y-81234544D01*
X130973794Y-81236901D01*
X130974969Y-81239385D01*
X130975894Y-81241972D01*
X130976562Y-81244637D01*
X130976965Y-81247356D01*
X130977100Y-81250100D01*
X130977100Y-82394100D01*
X130976965Y-82396844D01*
X130976562Y-82399563D01*
X130975894Y-82402228D01*
X130974969Y-82404815D01*
X130973794Y-82407299D01*
X130972381Y-82409656D01*
X130970744Y-82411863D01*
X130968899Y-82413899D01*
X130966863Y-82415744D01*
X130964656Y-82417381D01*
X130962299Y-82418794D01*
X130959815Y-82419969D01*
X130957228Y-82420894D01*
X130954563Y-82421562D01*
X130951844Y-82421965D01*
X130949100Y-82422100D01*
X130605100Y-82422100D01*
X130602356Y-82421965D01*
X130599637Y-82421562D01*
X130596972Y-82420894D01*
X130594385Y-82419969D01*
X130591901Y-82418794D01*
X130589544Y-82417381D01*
X130587337Y-82415744D01*
X130585301Y-82413899D01*
X130583456Y-82411863D01*
X130581819Y-82409656D01*
X130580406Y-82407299D01*
X130579231Y-82404815D01*
X130578306Y-82402228D01*
X130577638Y-82399563D01*
X130577235Y-82396844D01*
X130577100Y-82394100D01*
X130577100Y-81250100D01*
X130577235Y-81247356D01*
X130577638Y-81244637D01*
X130578306Y-81241972D01*
X130579231Y-81239385D01*
X130580406Y-81236901D01*
X130581819Y-81234544D01*
X130583456Y-81232337D01*
X130585301Y-81230301D01*
X130587337Y-81228456D01*
X130589544Y-81226819D01*
X130591901Y-81225406D01*
X130594385Y-81224231D01*
X130596972Y-81223306D01*
X130599637Y-81222638D01*
X130602356Y-81222235D01*
X130605100Y-81222100D01*
X130949100Y-81222100D01*
X130951844Y-81222235D01*
X130951844Y-81222235D01*
G37*
D13*
X130777100Y-81822100D03*
D11*
X131427100Y-81822100D03*
X132077100Y-81822100D03*
X132077100Y-87672100D03*
X131427100Y-87672100D03*
X130777100Y-87672100D03*
X130127100Y-87672100D03*
D16*
X136393100Y-78712100D03*
X136393100Y-76812100D03*
X134193100Y-77762100D03*
D10*
X130252100Y-78270100D03*
X131952100Y-78270100D03*
X168821100Y-93676100D03*
X168821100Y-95376100D03*
D15*
X172057100Y-92918100D03*
X170157100Y-92918100D03*
X171107100Y-95118100D03*
X160754100Y-89743100D03*
X158854100Y-89743100D03*
X159804100Y-91943100D03*
X139296100Y-102738100D03*
X141196100Y-102738100D03*
X140246100Y-100538100D03*
D10*
X148540100Y-101257100D03*
X150240100Y-101257100D03*
D17*
X156498500Y-114236500D03*
X156498500Y-129476500D03*
X162347700Y-129476500D03*
X156498500Y-126936500D03*
X162347700Y-126936500D03*
X156498500Y-124396500D03*
X162347700Y-124396500D03*
X156498500Y-121856500D03*
X162347700Y-121856500D03*
X156498500Y-119316500D03*
X162347700Y-119316500D03*
X156498500Y-116776500D03*
X156498500Y-111696500D03*
X162347700Y-116776500D03*
X162347700Y-114236500D03*
X162347700Y-111696500D03*
D10*
X127126100Y-107353100D03*
X125426100Y-107353100D03*
X134277100Y-105360100D03*
X134277100Y-107060100D03*
X130887100Y-104813100D03*
X132587100Y-104813100D03*
X160566100Y-133857100D03*
X160566100Y-132157100D03*
X147625700Y-127800100D03*
X149325700Y-127800100D03*
X133007100Y-115266100D03*
X133007100Y-116966100D03*
X134785100Y-115266100D03*
X134785100Y-116966100D03*
X136270100Y-112814100D03*
X134570100Y-112814100D03*
X168909100Y-127546100D03*
X167209100Y-127546100D03*
X142151100Y-121920900D03*
X142151100Y-123620900D03*
X142215500Y-120078500D03*
X143915500Y-120078500D03*
D14*
X145449100Y-123720500D03*
D12*
G36*
X146023844Y-122870635D02*
G01*
X146026563Y-122871038D01*
X146029228Y-122871706D01*
X146031815Y-122872631D01*
X146034299Y-122873806D01*
X146036656Y-122875219D01*
X146038863Y-122876856D01*
X146040899Y-122878701D01*
X146042744Y-122880737D01*
X146044381Y-122882944D01*
X146045794Y-122885301D01*
X146046969Y-122887785D01*
X146047894Y-122890372D01*
X146048562Y-122893037D01*
X146048965Y-122895756D01*
X146049100Y-122898500D01*
X146049100Y-123242500D01*
X146048965Y-123245244D01*
X146048562Y-123247963D01*
X146047894Y-123250628D01*
X146046969Y-123253215D01*
X146045794Y-123255699D01*
X146044381Y-123258056D01*
X146042744Y-123260263D01*
X146040899Y-123262299D01*
X146038863Y-123264144D01*
X146036656Y-123265781D01*
X146034299Y-123267194D01*
X146031815Y-123268369D01*
X146029228Y-123269294D01*
X146026563Y-123269962D01*
X146023844Y-123270365D01*
X146021100Y-123270500D01*
X144877100Y-123270500D01*
X144874356Y-123270365D01*
X144871637Y-123269962D01*
X144868972Y-123269294D01*
X144866385Y-123268369D01*
X144863901Y-123267194D01*
X144861544Y-123265781D01*
X144859337Y-123264144D01*
X144857301Y-123262299D01*
X144855456Y-123260263D01*
X144853819Y-123258056D01*
X144852406Y-123255699D01*
X144851231Y-123253215D01*
X144850306Y-123250628D01*
X144849638Y-123247963D01*
X144849235Y-123245244D01*
X144849100Y-123242500D01*
X144849100Y-122898500D01*
X144849235Y-122895756D01*
X144849638Y-122893037D01*
X144850306Y-122890372D01*
X144851231Y-122887785D01*
X144852406Y-122885301D01*
X144853819Y-122882944D01*
X144855456Y-122880737D01*
X144857301Y-122878701D01*
X144859337Y-122876856D01*
X144861544Y-122875219D01*
X144863901Y-122873806D01*
X144866385Y-122872631D01*
X144868972Y-122871706D01*
X144871637Y-122871038D01*
X144874356Y-122870635D01*
X144877100Y-122870500D01*
X146021100Y-122870500D01*
X146023844Y-122870635D01*
X146023844Y-122870635D01*
G37*
D13*
X145449100Y-123070500D03*
D14*
X145449100Y-122420500D03*
X145449100Y-121770500D03*
X151299100Y-121770500D03*
X151299100Y-122420500D03*
X151299100Y-123070500D03*
X151299100Y-123720500D03*
D11*
X130635100Y-106841100D03*
D12*
G36*
X131459844Y-106241235D02*
G01*
X131462563Y-106241638D01*
X131465228Y-106242306D01*
X131467815Y-106243231D01*
X131470299Y-106244406D01*
X131472656Y-106245819D01*
X131474863Y-106247456D01*
X131476899Y-106249301D01*
X131478744Y-106251337D01*
X131480381Y-106253544D01*
X131481794Y-106255901D01*
X131482969Y-106258385D01*
X131483894Y-106260972D01*
X131484562Y-106263637D01*
X131484965Y-106266356D01*
X131485100Y-106269100D01*
X131485100Y-107413100D01*
X131484965Y-107415844D01*
X131484562Y-107418563D01*
X131483894Y-107421228D01*
X131482969Y-107423815D01*
X131481794Y-107426299D01*
X131480381Y-107428656D01*
X131478744Y-107430863D01*
X131476899Y-107432899D01*
X131474863Y-107434744D01*
X131472656Y-107436381D01*
X131470299Y-107437794D01*
X131467815Y-107438969D01*
X131465228Y-107439894D01*
X131462563Y-107440562D01*
X131459844Y-107440965D01*
X131457100Y-107441100D01*
X131113100Y-107441100D01*
X131110356Y-107440965D01*
X131107637Y-107440562D01*
X131104972Y-107439894D01*
X131102385Y-107438969D01*
X131099901Y-107437794D01*
X131097544Y-107436381D01*
X131095337Y-107434744D01*
X131093301Y-107432899D01*
X131091456Y-107430863D01*
X131089819Y-107428656D01*
X131088406Y-107426299D01*
X131087231Y-107423815D01*
X131086306Y-107421228D01*
X131085638Y-107418563D01*
X131085235Y-107415844D01*
X131085100Y-107413100D01*
X131085100Y-106269100D01*
X131085235Y-106266356D01*
X131085638Y-106263637D01*
X131086306Y-106260972D01*
X131087231Y-106258385D01*
X131088406Y-106255901D01*
X131089819Y-106253544D01*
X131091456Y-106251337D01*
X131093301Y-106249301D01*
X131095337Y-106247456D01*
X131097544Y-106245819D01*
X131099901Y-106244406D01*
X131102385Y-106243231D01*
X131104972Y-106242306D01*
X131107637Y-106241638D01*
X131110356Y-106241235D01*
X131113100Y-106241100D01*
X131457100Y-106241100D01*
X131459844Y-106241235D01*
X131459844Y-106241235D01*
G37*
D13*
X131285100Y-106841100D03*
D11*
X131935100Y-106841100D03*
X132585100Y-106841100D03*
X132585100Y-112691100D03*
X131935100Y-112691100D03*
X131285100Y-112691100D03*
X130635100Y-112691100D03*
D16*
X135504100Y-103350100D03*
X135504100Y-101450100D03*
X133304100Y-102400100D03*
D10*
X129324100Y-105536100D03*
X129324100Y-103836100D03*
X158725500Y-136334500D03*
X160425500Y-136334500D03*
D15*
X171295100Y-88981100D03*
X169395100Y-88981100D03*
X170345100Y-91181100D03*
X172260300Y-101782700D03*
X170360300Y-101782700D03*
X171310300Y-103982700D03*
X147170100Y-119933900D03*
X149070100Y-119933900D03*
X148120100Y-117733900D03*
D10*
X143700500Y-123570100D03*
X143700500Y-121870100D03*
X127585100Y-133896100D03*
X129285100Y-133896100D03*
X131903100Y-136182100D03*
X133603100Y-136182100D03*
X126530100Y-140588100D03*
X126530100Y-138888100D03*
X160693100Y-156668100D03*
X160693100Y-158368100D03*
X145746100Y-135166100D03*
X147446100Y-135166100D03*
X134873100Y-143421100D03*
X133173100Y-143421100D03*
X137172700Y-143612500D03*
X137172700Y-145312500D03*
X136055100Y-141096100D03*
X136055100Y-139396100D03*
X168782100Y-130086100D03*
X167082100Y-130086100D03*
X141516100Y-135459100D03*
X141516100Y-137159100D03*
X139865100Y-135459100D03*
X139865100Y-137159100D03*
D14*
X145449100Y-138808100D03*
D12*
G36*
X146023844Y-137958235D02*
G01*
X146026563Y-137958638D01*
X146029228Y-137959306D01*
X146031815Y-137960231D01*
X146034299Y-137961406D01*
X146036656Y-137962819D01*
X146038863Y-137964456D01*
X146040899Y-137966301D01*
X146042744Y-137968337D01*
X146044381Y-137970544D01*
X146045794Y-137972901D01*
X146046969Y-137975385D01*
X146047894Y-137977972D01*
X146048562Y-137980637D01*
X146048965Y-137983356D01*
X146049100Y-137986100D01*
X146049100Y-138330100D01*
X146048965Y-138332844D01*
X146048562Y-138335563D01*
X146047894Y-138338228D01*
X146046969Y-138340815D01*
X146045794Y-138343299D01*
X146044381Y-138345656D01*
X146042744Y-138347863D01*
X146040899Y-138349899D01*
X146038863Y-138351744D01*
X146036656Y-138353381D01*
X146034299Y-138354794D01*
X146031815Y-138355969D01*
X146029228Y-138356894D01*
X146026563Y-138357562D01*
X146023844Y-138357965D01*
X146021100Y-138358100D01*
X144877100Y-138358100D01*
X144874356Y-138357965D01*
X144871637Y-138357562D01*
X144868972Y-138356894D01*
X144866385Y-138355969D01*
X144863901Y-138354794D01*
X144861544Y-138353381D01*
X144859337Y-138351744D01*
X144857301Y-138349899D01*
X144855456Y-138347863D01*
X144853819Y-138345656D01*
X144852406Y-138343299D01*
X144851231Y-138340815D01*
X144850306Y-138338228D01*
X144849638Y-138335563D01*
X144849235Y-138332844D01*
X144849100Y-138330100D01*
X144849100Y-137986100D01*
X144849235Y-137983356D01*
X144849638Y-137980637D01*
X144850306Y-137977972D01*
X144851231Y-137975385D01*
X144852406Y-137972901D01*
X144853819Y-137970544D01*
X144855456Y-137968337D01*
X144857301Y-137966301D01*
X144859337Y-137964456D01*
X144861544Y-137962819D01*
X144863901Y-137961406D01*
X144866385Y-137960231D01*
X144868972Y-137959306D01*
X144871637Y-137958638D01*
X144874356Y-137958235D01*
X144877100Y-137958100D01*
X146021100Y-137958100D01*
X146023844Y-137958235D01*
X146023844Y-137958235D01*
G37*
D13*
X145449100Y-138158100D03*
D14*
X145449100Y-137508100D03*
X145449100Y-136858100D03*
X151299100Y-136858100D03*
X151299100Y-137508100D03*
X151299100Y-138158100D03*
X151299100Y-138808100D03*
X128431100Y-140586100D03*
D12*
G36*
X129005844Y-139736235D02*
G01*
X129008563Y-139736638D01*
X129011228Y-139737306D01*
X129013815Y-139738231D01*
X129016299Y-139739406D01*
X129018656Y-139740819D01*
X129020863Y-139742456D01*
X129022899Y-139744301D01*
X129024744Y-139746337D01*
X129026381Y-139748544D01*
X129027794Y-139750901D01*
X129028969Y-139753385D01*
X129029894Y-139755972D01*
X129030562Y-139758637D01*
X129030965Y-139761356D01*
X129031100Y-139764100D01*
X129031100Y-140108100D01*
X129030965Y-140110844D01*
X129030562Y-140113563D01*
X129029894Y-140116228D01*
X129028969Y-140118815D01*
X129027794Y-140121299D01*
X129026381Y-140123656D01*
X129024744Y-140125863D01*
X129022899Y-140127899D01*
X129020863Y-140129744D01*
X129018656Y-140131381D01*
X129016299Y-140132794D01*
X129013815Y-140133969D01*
X129011228Y-140134894D01*
X129008563Y-140135562D01*
X129005844Y-140135965D01*
X129003100Y-140136100D01*
X127859100Y-140136100D01*
X127856356Y-140135965D01*
X127853637Y-140135562D01*
X127850972Y-140134894D01*
X127848385Y-140133969D01*
X127845901Y-140132794D01*
X127843544Y-140131381D01*
X127841337Y-140129744D01*
X127839301Y-140127899D01*
X127837456Y-140125863D01*
X127835819Y-140123656D01*
X127834406Y-140121299D01*
X127833231Y-140118815D01*
X127832306Y-140116228D01*
X127831638Y-140113563D01*
X127831235Y-140110844D01*
X127831100Y-140108100D01*
X127831100Y-139764100D01*
X127831235Y-139761356D01*
X127831638Y-139758637D01*
X127832306Y-139755972D01*
X127833231Y-139753385D01*
X127834406Y-139750901D01*
X127835819Y-139748544D01*
X127837456Y-139746337D01*
X127839301Y-139744301D01*
X127841337Y-139742456D01*
X127843544Y-139740819D01*
X127845901Y-139739406D01*
X127848385Y-139738231D01*
X127850972Y-139737306D01*
X127853637Y-139736638D01*
X127856356Y-139736235D01*
X127859100Y-139736100D01*
X129003100Y-139736100D01*
X129005844Y-139736235D01*
X129005844Y-139736235D01*
G37*
D13*
X128431100Y-139936100D03*
D14*
X128431100Y-139286100D03*
X128431100Y-138636100D03*
X134281100Y-138636100D03*
X134281100Y-139286100D03*
X134281100Y-139936100D03*
X134281100Y-140586100D03*
D15*
X127866100Y-148712100D03*
X129766100Y-148712100D03*
X128816100Y-146512100D03*
D10*
X126569100Y-142659100D03*
X128269100Y-142659100D03*
X170243500Y-131621900D03*
X170243500Y-129921900D03*
D15*
X167866100Y-89489100D03*
X165966100Y-89489100D03*
X166916100Y-91689100D03*
X172184100Y-97109100D03*
X170284100Y-97109100D03*
X171234100Y-99309100D03*
D16*
X142362100Y-133449100D03*
X142362100Y-131549100D03*
X140162100Y-132499100D03*
D10*
X143167100Y-137159100D03*
X143167100Y-135459100D03*
X152653100Y-51473100D03*
X150953100Y-51473100D03*
D14*
X145322100Y-55877100D03*
D12*
G36*
X145896844Y-55027235D02*
G01*
X145899563Y-55027638D01*
X145902228Y-55028306D01*
X145904815Y-55029231D01*
X145907299Y-55030406D01*
X145909656Y-55031819D01*
X145911863Y-55033456D01*
X145913899Y-55035301D01*
X145915744Y-55037337D01*
X145917381Y-55039544D01*
X145918794Y-55041901D01*
X145919969Y-55044385D01*
X145920894Y-55046972D01*
X145921562Y-55049637D01*
X145921965Y-55052356D01*
X145922100Y-55055100D01*
X145922100Y-55399100D01*
X145921965Y-55401844D01*
X145921562Y-55404563D01*
X145920894Y-55407228D01*
X145919969Y-55409815D01*
X145918794Y-55412299D01*
X145917381Y-55414656D01*
X145915744Y-55416863D01*
X145913899Y-55418899D01*
X145911863Y-55420744D01*
X145909656Y-55422381D01*
X145907299Y-55423794D01*
X145904815Y-55424969D01*
X145902228Y-55425894D01*
X145899563Y-55426562D01*
X145896844Y-55426965D01*
X145894100Y-55427100D01*
X144750100Y-55427100D01*
X144747356Y-55426965D01*
X144744637Y-55426562D01*
X144741972Y-55425894D01*
X144739385Y-55424969D01*
X144736901Y-55423794D01*
X144734544Y-55422381D01*
X144732337Y-55420744D01*
X144730301Y-55418899D01*
X144728456Y-55416863D01*
X144726819Y-55414656D01*
X144725406Y-55412299D01*
X144724231Y-55409815D01*
X144723306Y-55407228D01*
X144722638Y-55404563D01*
X144722235Y-55401844D01*
X144722100Y-55399100D01*
X144722100Y-55055100D01*
X144722235Y-55052356D01*
X144722638Y-55049637D01*
X144723306Y-55046972D01*
X144724231Y-55044385D01*
X144725406Y-55041901D01*
X144726819Y-55039544D01*
X144728456Y-55037337D01*
X144730301Y-55035301D01*
X144732337Y-55033456D01*
X144734544Y-55031819D01*
X144736901Y-55030406D01*
X144739385Y-55029231D01*
X144741972Y-55028306D01*
X144744637Y-55027638D01*
X144747356Y-55027235D01*
X144750100Y-55027100D01*
X145894100Y-55027100D01*
X145896844Y-55027235D01*
X145896844Y-55027235D01*
G37*
D13*
X145322100Y-55227100D03*
D14*
X145322100Y-54577100D03*
X145322100Y-53927100D03*
X151172100Y-53927100D03*
X151172100Y-54577100D03*
X151172100Y-55227100D03*
X151172100Y-55877100D03*
D10*
X153454100Y-54560100D03*
X153454100Y-56260100D03*
X152107900Y-58673100D03*
X152107900Y-56973100D03*
X155017100Y-53124100D03*
X156717100Y-53124100D03*
D15*
X160119100Y-51897100D03*
X158219100Y-51897100D03*
X159169100Y-54097100D03*
D10*
X163272100Y-51219100D03*
X164972100Y-51219100D03*
X161836100Y-57276100D03*
X161836100Y-55576100D03*
X160058100Y-59181100D03*
X160058100Y-57481100D03*
X141654900Y-58940700D03*
X139954900Y-58940700D03*
X158903300Y-142328900D03*
X160603300Y-142328900D03*
D18*
X151142100Y-143935100D03*
X151142100Y-148495100D03*
D19*
X143962100Y-146215100D03*
D17*
X164042300Y-139306300D03*
X164042300Y-154546300D03*
X169891500Y-154546300D03*
X164042300Y-152006300D03*
X169891500Y-152006300D03*
X164042300Y-149466300D03*
X169891500Y-149466300D03*
X164042300Y-146926300D03*
X169891500Y-146926300D03*
X164042300Y-144386300D03*
X169891500Y-144386300D03*
X164042300Y-141846300D03*
X164042300Y-136766300D03*
X169891500Y-141846300D03*
X169891500Y-139306300D03*
X169891500Y-136766300D03*
D20*
X160032700Y-149002500D03*
X160032700Y-145002500D03*
D21*
X148018500Y-151195700D03*
X148018500Y-154620700D03*
X155663900Y-149692700D03*
X155663900Y-146267700D03*
D11*
X135506100Y-61383100D03*
D12*
G36*
X135030844Y-60783235D02*
G01*
X135033563Y-60783638D01*
X135036228Y-60784306D01*
X135038815Y-60785231D01*
X135041299Y-60786406D01*
X135043656Y-60787819D01*
X135045863Y-60789456D01*
X135047899Y-60791301D01*
X135049744Y-60793337D01*
X135051381Y-60795544D01*
X135052794Y-60797901D01*
X135053969Y-60800385D01*
X135054894Y-60802972D01*
X135055562Y-60805637D01*
X135055965Y-60808356D01*
X135056100Y-60811100D01*
X135056100Y-61955100D01*
X135055965Y-61957844D01*
X135055562Y-61960563D01*
X135054894Y-61963228D01*
X135053969Y-61965815D01*
X135052794Y-61968299D01*
X135051381Y-61970656D01*
X135049744Y-61972863D01*
X135047899Y-61974899D01*
X135045863Y-61976744D01*
X135043656Y-61978381D01*
X135041299Y-61979794D01*
X135038815Y-61980969D01*
X135036228Y-61981894D01*
X135033563Y-61982562D01*
X135030844Y-61982965D01*
X135028100Y-61983100D01*
X134684100Y-61983100D01*
X134681356Y-61982965D01*
X134678637Y-61982562D01*
X134675972Y-61981894D01*
X134673385Y-61980969D01*
X134670901Y-61979794D01*
X134668544Y-61978381D01*
X134666337Y-61976744D01*
X134664301Y-61974899D01*
X134662456Y-61972863D01*
X134660819Y-61970656D01*
X134659406Y-61968299D01*
X134658231Y-61965815D01*
X134657306Y-61963228D01*
X134656638Y-61960563D01*
X134656235Y-61957844D01*
X134656100Y-61955100D01*
X134656100Y-60811100D01*
X134656235Y-60808356D01*
X134656638Y-60805637D01*
X134657306Y-60802972D01*
X134658231Y-60800385D01*
X134659406Y-60797901D01*
X134660819Y-60795544D01*
X134662456Y-60793337D01*
X134664301Y-60791301D01*
X134666337Y-60789456D01*
X134668544Y-60787819D01*
X134670901Y-60786406D01*
X134673385Y-60785231D01*
X134675972Y-60784306D01*
X134678637Y-60783638D01*
X134681356Y-60783235D01*
X134684100Y-60783100D01*
X135028100Y-60783100D01*
X135030844Y-60783235D01*
X135030844Y-60783235D01*
G37*
D13*
X134856100Y-61383100D03*
D11*
X134206100Y-61383100D03*
X133556100Y-61383100D03*
X133556100Y-55533100D03*
X134206100Y-55533100D03*
X134856100Y-55533100D03*
X135506100Y-55533100D03*
D10*
X151308700Y-63055500D03*
X153008700Y-63055500D03*
D22*
X160026100Y-152946100D03*
X156026100Y-152946100D03*
D10*
X159575500Y-138380100D03*
X159575500Y-140080100D03*
D21*
X133489700Y-150073700D03*
X133489700Y-146648700D03*
D10*
X133261100Y-154939100D03*
X133261100Y-153239100D03*
X170599100Y-114807100D03*
X170599100Y-113107100D03*
X170599100Y-111505100D03*
X170599100Y-109805100D03*
X166826300Y-111747300D03*
X165126300Y-111747300D03*
X166851700Y-114261900D03*
X165151700Y-114261900D03*
X166902500Y-116776500D03*
X165202500Y-116776500D03*
X166851700Y-119367300D03*
X165151700Y-119367300D03*
D23*
X145757900Y-108314700D03*
X140677900Y-108314700D03*
X140677900Y-114163900D03*
X143217900Y-108314700D03*
X148297900Y-108314700D03*
X143217900Y-114163900D03*
X145757900Y-114163900D03*
X148297900Y-114163900D03*
D24*
X160941100Y-95660100D03*
X161741100Y-95660100D03*
X162541100Y-95660100D03*
X163341100Y-95660100D03*
X164141100Y-95660100D03*
X164941100Y-95660100D03*
X165741100Y-95660100D03*
X166541100Y-95660100D03*
D25*
X167941100Y-97060100D03*
X167941100Y-97860100D03*
X167941100Y-98660100D03*
X167941100Y-99460100D03*
X167941100Y-100260100D03*
X167941100Y-101060100D03*
X167941100Y-101860100D03*
X167941100Y-102660100D03*
D24*
X166541100Y-104060100D03*
X165741100Y-104060100D03*
X164941100Y-104060100D03*
X164141100Y-104060100D03*
X163341100Y-104060100D03*
X162541100Y-104060100D03*
X161741100Y-104060100D03*
X160941100Y-104060100D03*
D25*
X159541100Y-102660100D03*
X159541100Y-101860100D03*
X159541100Y-101060100D03*
X159541100Y-100260100D03*
X159541100Y-99460100D03*
X159541100Y-98660100D03*
X159541100Y-97860100D03*
X159541100Y-97060100D03*
D10*
X170052100Y-67602100D03*
X168352100Y-67602100D03*
D17*
X169866100Y-72047100D03*
X169866100Y-69507100D03*
X169866100Y-74587100D03*
X164016900Y-69507100D03*
X164016900Y-72047100D03*
X164016900Y-74587100D03*
D26*
X157252100Y-100080100D03*
X155752100Y-100080100D03*
X155752100Y-102180100D03*
X157252100Y-102180100D03*
D10*
X157225100Y-98336100D03*
X155525100Y-98336100D03*
X155525100Y-103924100D03*
X157225100Y-103924100D03*
D23*
X158127700Y-68901100D03*
X160667700Y-68901100D03*
X155587700Y-68901100D03*
X160667700Y-63051900D03*
X158127700Y-63051900D03*
X155587700Y-63051900D03*
D14*
X155794900Y-156873300D03*
D12*
G36*
X156369644Y-157323435D02*
G01*
X156372363Y-157323838D01*
X156375028Y-157324506D01*
X156377615Y-157325431D01*
X156380099Y-157326606D01*
X156382456Y-157328019D01*
X156384663Y-157329656D01*
X156386699Y-157331501D01*
X156388544Y-157333537D01*
X156390181Y-157335744D01*
X156391594Y-157338101D01*
X156392769Y-157340585D01*
X156393694Y-157343172D01*
X156394362Y-157345837D01*
X156394765Y-157348556D01*
X156394900Y-157351300D01*
X156394900Y-157695300D01*
X156394765Y-157698044D01*
X156394362Y-157700763D01*
X156393694Y-157703428D01*
X156392769Y-157706015D01*
X156391594Y-157708499D01*
X156390181Y-157710856D01*
X156388544Y-157713063D01*
X156386699Y-157715099D01*
X156384663Y-157716944D01*
X156382456Y-157718581D01*
X156380099Y-157719994D01*
X156377615Y-157721169D01*
X156375028Y-157722094D01*
X156372363Y-157722762D01*
X156369644Y-157723165D01*
X156366900Y-157723300D01*
X155222900Y-157723300D01*
X155220156Y-157723165D01*
X155217437Y-157722762D01*
X155214772Y-157722094D01*
X155212185Y-157721169D01*
X155209701Y-157719994D01*
X155207344Y-157718581D01*
X155205137Y-157716944D01*
X155203101Y-157715099D01*
X155201256Y-157713063D01*
X155199619Y-157710856D01*
X155198206Y-157708499D01*
X155197031Y-157706015D01*
X155196106Y-157703428D01*
X155195438Y-157700763D01*
X155195035Y-157698044D01*
X155194900Y-157695300D01*
X155194900Y-157351300D01*
X155195035Y-157348556D01*
X155195438Y-157345837D01*
X155196106Y-157343172D01*
X155197031Y-157340585D01*
X155198206Y-157338101D01*
X155199619Y-157335744D01*
X155201256Y-157333537D01*
X155203101Y-157331501D01*
X155205137Y-157329656D01*
X155207344Y-157328019D01*
X155209701Y-157326606D01*
X155212185Y-157325431D01*
X155214772Y-157324506D01*
X155217437Y-157323838D01*
X155220156Y-157323435D01*
X155222900Y-157323300D01*
X156366900Y-157323300D01*
X156369644Y-157323435D01*
X156369644Y-157323435D01*
G37*
D13*
X155794900Y-157523300D03*
D14*
X155794900Y-158173300D03*
X155794900Y-158823300D03*
X149944900Y-158823300D03*
X149944900Y-158173300D03*
X149944900Y-157523300D03*
X149944900Y-156873300D03*
D10*
X145402300Y-156718900D03*
X145402300Y-158418900D03*
X141566900Y-156744300D03*
X141566900Y-158444300D03*
X147840700Y-156769700D03*
X147840700Y-158469700D03*
X138823700Y-143637900D03*
X138823700Y-145337900D03*
X143395700Y-158520500D03*
X143395700Y-156820500D03*
X161861500Y-51613700D03*
X161861500Y-53313700D03*
X158534100Y-59308100D03*
X158534100Y-57608100D03*
X134937500Y-53720100D03*
X134937500Y-52020100D03*
X129921900Y-55689500D03*
X131621900Y-55689500D03*
X141654900Y-60540900D03*
X139954900Y-60540900D03*
X141555100Y-74993500D03*
X143255100Y-74993500D03*
X128446900Y-55765700D03*
X126746900Y-55765700D03*
X135560700Y-80733900D03*
X137260700Y-80733900D03*
X152234900Y-101294300D03*
X152234900Y-99594300D03*
X135636900Y-107226100D03*
X137336900Y-107226100D03*
X143585300Y-127139700D03*
X141885300Y-127139700D03*
X132815700Y-133413500D03*
X131115700Y-133413500D03*
X154139900Y-154532700D03*
X154139900Y-152832700D03*
D15*
X138478300Y-51643100D03*
X136578300Y-51643100D03*
X137528300Y-53843100D03*
D10*
X146824700Y-58673100D03*
X146824700Y-56973100D03*
M02*
