G04 #@! TF.GenerationSoftware,KiCad,Pcbnew,(6.0.0-rc1-dev-1542-gf9f87b3ff-dirty)*
G04 #@! TF.CreationDate,2019-02-04T09:57:11-08:00
G04 #@! TF.ProjectId,qcd-23,7163642d-3233-42e6-9b69-6361645f7063,rev?*
G04 #@! TF.SameCoordinates,Original*
G04 #@! TF.FileFunction,Copper,L1,Top*
G04 #@! TF.FilePolarity,Positive*
%FSLAX46Y46*%
G04 Gerber Fmt 4.6, Leading zero omitted, Abs format (unit mm)*
G04 Created by KiCad (PCBNEW (6.0.0-rc1-dev-1542-gf9f87b3ff-dirty)) date Monday, 04 February 2019 at 09:57:11*
%MOMM*%
%LPD*%
G04 APERTURE LIST*
%ADD10C,1.930400*%
%ADD11R,1.000000X1.000000*%
%ADD12C,2.286000*%
%ADD13C,1.524000*%
%ADD14R,1.524000X1.524000*%
%ADD15R,0.400000X1.200000*%
%ADD16C,0.127000*%
%ADD17C,0.400000*%
%ADD18R,1.200000X0.400000*%
%ADD19R,1.000000X1.400000*%
%ADD20R,1.400000X1.000000*%
%ADD21R,3.556000X1.016000*%
%ADD22R,1.308000X1.308000*%
%ADD23C,1.308000*%
%ADD24C,1.016000*%
%ADD25R,3.000000X1.600000*%
%ADD26R,6.200000X5.800000*%
%ADD27R,1.700000X1.800000*%
%ADD28R,1.000000X2.300000*%
%ADD29C,1.651000*%
%ADD30R,1.800000X1.700000*%
%ADD31R,1.016000X3.556000*%
%ADD32R,0.500000X1.250000*%
%ADD33R,1.250000X0.500000*%
%ADD34R,1.150000X1.400000*%
%ADD35C,0.787400*%
%ADD36C,0.812800*%
%ADD37C,0.203200*%
%ADD38C,0.254000*%
G04 APERTURE END LIST*
D10*
X130746500Y-59778900D03*
X130746500Y-62191900D03*
X130746500Y-51219100D03*
X143751300Y-68491100D03*
X141338300Y-68491100D03*
X152311100Y-68491100D03*
X143751300Y-80683100D03*
X141338300Y-80683100D03*
X152311100Y-80683100D03*
X127393700Y-68567300D03*
X124980700Y-68567300D03*
X135953500Y-68567300D03*
D11*
X128816100Y-59790700D03*
X128816100Y-58090700D03*
X146000100Y-75730100D03*
X147700100Y-75730100D03*
X148208100Y-83223100D03*
X146508100Y-83223100D03*
X127546100Y-52958100D03*
X127546100Y-51258100D03*
X128689100Y-65658100D03*
X128689100Y-63958100D03*
X163741100Y-78690100D03*
X163741100Y-80390100D03*
X150572100Y-77762100D03*
X152272100Y-77762100D03*
X133896100Y-67768100D03*
X133896100Y-69468100D03*
X138507100Y-65316100D03*
X140207100Y-65316100D03*
X140207100Y-63665100D03*
X138507100Y-63665100D03*
X168909100Y-122466100D03*
X167209100Y-122466100D03*
D12*
X158664900Y-84366100D03*
X163664900Y-84366100D03*
X168664900Y-84366100D03*
D13*
X138772900Y-69837300D03*
D14*
X138772900Y-67297300D03*
D15*
X149222100Y-72686100D03*
D16*
G36*
X148746844Y-72086235D02*
G01*
X148749563Y-72086638D01*
X148752228Y-72087306D01*
X148754815Y-72088231D01*
X148757299Y-72089406D01*
X148759656Y-72090819D01*
X148761863Y-72092456D01*
X148763899Y-72094301D01*
X148765744Y-72096337D01*
X148767381Y-72098544D01*
X148768794Y-72100901D01*
X148769969Y-72103385D01*
X148770894Y-72105972D01*
X148771562Y-72108637D01*
X148771965Y-72111356D01*
X148772100Y-72114100D01*
X148772100Y-73258100D01*
X148771965Y-73260844D01*
X148771562Y-73263563D01*
X148770894Y-73266228D01*
X148769969Y-73268815D01*
X148768794Y-73271299D01*
X148767381Y-73273656D01*
X148765744Y-73275863D01*
X148763899Y-73277899D01*
X148761863Y-73279744D01*
X148759656Y-73281381D01*
X148757299Y-73282794D01*
X148754815Y-73283969D01*
X148752228Y-73284894D01*
X148749563Y-73285562D01*
X148746844Y-73285965D01*
X148744100Y-73286100D01*
X148400100Y-73286100D01*
X148397356Y-73285965D01*
X148394637Y-73285562D01*
X148391972Y-73284894D01*
X148389385Y-73283969D01*
X148386901Y-73282794D01*
X148384544Y-73281381D01*
X148382337Y-73279744D01*
X148380301Y-73277899D01*
X148378456Y-73275863D01*
X148376819Y-73273656D01*
X148375406Y-73271299D01*
X148374231Y-73268815D01*
X148373306Y-73266228D01*
X148372638Y-73263563D01*
X148372235Y-73260844D01*
X148372100Y-73258100D01*
X148372100Y-72114100D01*
X148372235Y-72111356D01*
X148372638Y-72108637D01*
X148373306Y-72105972D01*
X148374231Y-72103385D01*
X148375406Y-72100901D01*
X148376819Y-72098544D01*
X148378456Y-72096337D01*
X148380301Y-72094301D01*
X148382337Y-72092456D01*
X148384544Y-72090819D01*
X148386901Y-72089406D01*
X148389385Y-72088231D01*
X148391972Y-72087306D01*
X148394637Y-72086638D01*
X148397356Y-72086235D01*
X148400100Y-72086100D01*
X148744100Y-72086100D01*
X148746844Y-72086235D01*
X148746844Y-72086235D01*
G37*
D17*
X148572100Y-72686100D03*
D15*
X147922100Y-72686100D03*
X147272100Y-72686100D03*
X147272100Y-66836100D03*
X147922100Y-66836100D03*
X148572100Y-66836100D03*
X149222100Y-66836100D03*
D18*
X130844100Y-65910100D03*
D16*
G36*
X131418844Y-65060235D02*
G01*
X131421563Y-65060638D01*
X131424228Y-65061306D01*
X131426815Y-65062231D01*
X131429299Y-65063406D01*
X131431656Y-65064819D01*
X131433863Y-65066456D01*
X131435899Y-65068301D01*
X131437744Y-65070337D01*
X131439381Y-65072544D01*
X131440794Y-65074901D01*
X131441969Y-65077385D01*
X131442894Y-65079972D01*
X131443562Y-65082637D01*
X131443965Y-65085356D01*
X131444100Y-65088100D01*
X131444100Y-65432100D01*
X131443965Y-65434844D01*
X131443562Y-65437563D01*
X131442894Y-65440228D01*
X131441969Y-65442815D01*
X131440794Y-65445299D01*
X131439381Y-65447656D01*
X131437744Y-65449863D01*
X131435899Y-65451899D01*
X131433863Y-65453744D01*
X131431656Y-65455381D01*
X131429299Y-65456794D01*
X131426815Y-65457969D01*
X131424228Y-65458894D01*
X131421563Y-65459562D01*
X131418844Y-65459965D01*
X131416100Y-65460100D01*
X130272100Y-65460100D01*
X130269356Y-65459965D01*
X130266637Y-65459562D01*
X130263972Y-65458894D01*
X130261385Y-65457969D01*
X130258901Y-65456794D01*
X130256544Y-65455381D01*
X130254337Y-65453744D01*
X130252301Y-65451899D01*
X130250456Y-65449863D01*
X130248819Y-65447656D01*
X130247406Y-65445299D01*
X130246231Y-65442815D01*
X130245306Y-65440228D01*
X130244638Y-65437563D01*
X130244235Y-65434844D01*
X130244100Y-65432100D01*
X130244100Y-65088100D01*
X130244235Y-65085356D01*
X130244638Y-65082637D01*
X130245306Y-65079972D01*
X130246231Y-65077385D01*
X130247406Y-65074901D01*
X130248819Y-65072544D01*
X130250456Y-65070337D01*
X130252301Y-65068301D01*
X130254337Y-65066456D01*
X130256544Y-65064819D01*
X130258901Y-65063406D01*
X130261385Y-65062231D01*
X130263972Y-65061306D01*
X130266637Y-65060638D01*
X130269356Y-65060235D01*
X130272100Y-65060100D01*
X131416100Y-65060100D01*
X131418844Y-65060235D01*
X131418844Y-65060235D01*
G37*
D17*
X130844100Y-65260100D03*
D18*
X130844100Y-64610100D03*
X130844100Y-63960100D03*
X136694100Y-63960100D03*
X136694100Y-64610100D03*
X136694100Y-65260100D03*
X136694100Y-65910100D03*
D19*
X129263100Y-73909100D03*
X131163100Y-73909100D03*
X130213100Y-71709100D03*
D11*
X131864100Y-67895100D03*
X131864100Y-69595100D03*
X166027100Y-80517100D03*
X166027100Y-78817100D03*
D19*
X168379100Y-80640100D03*
X170279100Y-80640100D03*
X169329100Y-78440100D03*
X164310100Y-89108100D03*
X162410100Y-89108100D03*
X163360100Y-91308100D03*
X146408100Y-81148100D03*
X148308100Y-81148100D03*
X147358100Y-78948100D03*
D11*
X149302100Y-75730100D03*
X151002100Y-75730100D03*
D10*
X127393700Y-83045300D03*
X124980700Y-83045300D03*
X135953500Y-83045300D03*
X143751300Y-92875100D03*
X141338300Y-92875100D03*
X152311100Y-92875100D03*
X143751300Y-105067100D03*
X141338300Y-105067100D03*
X152311100Y-105067100D03*
X130746500Y-98590100D03*
X130746500Y-101003100D03*
X130746500Y-90030300D03*
D11*
X127634100Y-80556100D03*
X125934100Y-80556100D03*
X133896100Y-80214100D03*
X133896100Y-81914100D03*
X130252100Y-80048100D03*
X131952100Y-80048100D03*
X166103300Y-109523900D03*
X166103300Y-107823900D03*
X150699100Y-102908100D03*
X152399100Y-102908100D03*
X133642100Y-88469100D03*
X133642100Y-90169100D03*
X135420100Y-88469100D03*
X135420100Y-90169100D03*
X135254100Y-85890100D03*
X133554100Y-85890100D03*
X168909100Y-125006100D03*
X167209100Y-125006100D03*
X144603100Y-101130100D03*
X146303100Y-101130100D03*
X142913100Y-101042100D03*
X142913100Y-102742100D03*
D12*
X158664900Y-108750100D03*
X163664900Y-108750100D03*
X168664900Y-108750100D03*
D13*
X138772900Y-96507300D03*
D14*
X138772900Y-93967300D03*
D15*
X148841100Y-98467100D03*
D16*
G36*
X148365844Y-97867235D02*
G01*
X148368563Y-97867638D01*
X148371228Y-97868306D01*
X148373815Y-97869231D01*
X148376299Y-97870406D01*
X148378656Y-97871819D01*
X148380863Y-97873456D01*
X148382899Y-97875301D01*
X148384744Y-97877337D01*
X148386381Y-97879544D01*
X148387794Y-97881901D01*
X148388969Y-97884385D01*
X148389894Y-97886972D01*
X148390562Y-97889637D01*
X148390965Y-97892356D01*
X148391100Y-97895100D01*
X148391100Y-99039100D01*
X148390965Y-99041844D01*
X148390562Y-99044563D01*
X148389894Y-99047228D01*
X148388969Y-99049815D01*
X148387794Y-99052299D01*
X148386381Y-99054656D01*
X148384744Y-99056863D01*
X148382899Y-99058899D01*
X148380863Y-99060744D01*
X148378656Y-99062381D01*
X148376299Y-99063794D01*
X148373815Y-99064969D01*
X148371228Y-99065894D01*
X148368563Y-99066562D01*
X148365844Y-99066965D01*
X148363100Y-99067100D01*
X148019100Y-99067100D01*
X148016356Y-99066965D01*
X148013637Y-99066562D01*
X148010972Y-99065894D01*
X148008385Y-99064969D01*
X148005901Y-99063794D01*
X148003544Y-99062381D01*
X148001337Y-99060744D01*
X147999301Y-99058899D01*
X147997456Y-99056863D01*
X147995819Y-99054656D01*
X147994406Y-99052299D01*
X147993231Y-99049815D01*
X147992306Y-99047228D01*
X147991638Y-99044563D01*
X147991235Y-99041844D01*
X147991100Y-99039100D01*
X147991100Y-97895100D01*
X147991235Y-97892356D01*
X147991638Y-97889637D01*
X147992306Y-97886972D01*
X147993231Y-97884385D01*
X147994406Y-97881901D01*
X147995819Y-97879544D01*
X147997456Y-97877337D01*
X147999301Y-97875301D01*
X148001337Y-97873456D01*
X148003544Y-97871819D01*
X148005901Y-97870406D01*
X148008385Y-97869231D01*
X148010972Y-97868306D01*
X148013637Y-97867638D01*
X148016356Y-97867235D01*
X148019100Y-97867100D01*
X148363100Y-97867100D01*
X148365844Y-97867235D01*
X148365844Y-97867235D01*
G37*
D17*
X148191100Y-98467100D03*
D15*
X147541100Y-98467100D03*
X146891100Y-98467100D03*
X146891100Y-92617100D03*
X147541100Y-92617100D03*
X148191100Y-92617100D03*
X148841100Y-92617100D03*
X130127100Y-81822100D03*
D16*
G36*
X130951844Y-81222235D02*
G01*
X130954563Y-81222638D01*
X130957228Y-81223306D01*
X130959815Y-81224231D01*
X130962299Y-81225406D01*
X130964656Y-81226819D01*
X130966863Y-81228456D01*
X130968899Y-81230301D01*
X130970744Y-81232337D01*
X130972381Y-81234544D01*
X130973794Y-81236901D01*
X130974969Y-81239385D01*
X130975894Y-81241972D01*
X130976562Y-81244637D01*
X130976965Y-81247356D01*
X130977100Y-81250100D01*
X130977100Y-82394100D01*
X130976965Y-82396844D01*
X130976562Y-82399563D01*
X130975894Y-82402228D01*
X130974969Y-82404815D01*
X130973794Y-82407299D01*
X130972381Y-82409656D01*
X130970744Y-82411863D01*
X130968899Y-82413899D01*
X130966863Y-82415744D01*
X130964656Y-82417381D01*
X130962299Y-82418794D01*
X130959815Y-82419969D01*
X130957228Y-82420894D01*
X130954563Y-82421562D01*
X130951844Y-82421965D01*
X130949100Y-82422100D01*
X130605100Y-82422100D01*
X130602356Y-82421965D01*
X130599637Y-82421562D01*
X130596972Y-82420894D01*
X130594385Y-82419969D01*
X130591901Y-82418794D01*
X130589544Y-82417381D01*
X130587337Y-82415744D01*
X130585301Y-82413899D01*
X130583456Y-82411863D01*
X130581819Y-82409656D01*
X130580406Y-82407299D01*
X130579231Y-82404815D01*
X130578306Y-82402228D01*
X130577638Y-82399563D01*
X130577235Y-82396844D01*
X130577100Y-82394100D01*
X130577100Y-81250100D01*
X130577235Y-81247356D01*
X130577638Y-81244637D01*
X130578306Y-81241972D01*
X130579231Y-81239385D01*
X130580406Y-81236901D01*
X130581819Y-81234544D01*
X130583456Y-81232337D01*
X130585301Y-81230301D01*
X130587337Y-81228456D01*
X130589544Y-81226819D01*
X130591901Y-81225406D01*
X130594385Y-81224231D01*
X130596972Y-81223306D01*
X130599637Y-81222638D01*
X130602356Y-81222235D01*
X130605100Y-81222100D01*
X130949100Y-81222100D01*
X130951844Y-81222235D01*
X130951844Y-81222235D01*
G37*
D17*
X130777100Y-81822100D03*
D15*
X131427100Y-81822100D03*
X132077100Y-81822100D03*
X132077100Y-87672100D03*
X131427100Y-87672100D03*
X130777100Y-87672100D03*
X130127100Y-87672100D03*
D20*
X136393100Y-78712100D03*
X136393100Y-76812100D03*
X134193100Y-77762100D03*
D11*
X130252100Y-78270100D03*
X131952100Y-78270100D03*
X168821100Y-93676100D03*
X168821100Y-95376100D03*
D19*
X172057100Y-92918100D03*
X170157100Y-92918100D03*
X171107100Y-95118100D03*
X160754100Y-89743100D03*
X158854100Y-89743100D03*
X159804100Y-91943100D03*
X139296100Y-102738100D03*
X141196100Y-102738100D03*
X140246100Y-100538100D03*
D11*
X148540100Y-101257100D03*
X150240100Y-101257100D03*
D21*
X156498500Y-114236500D03*
X156498500Y-129476500D03*
X162347700Y-129476500D03*
X156498500Y-126936500D03*
X162347700Y-126936500D03*
X156498500Y-124396500D03*
X162347700Y-124396500D03*
X156498500Y-121856500D03*
X162347700Y-121856500D03*
X156498500Y-119316500D03*
X162347700Y-119316500D03*
X156498500Y-116776500D03*
X156498500Y-111696500D03*
X162347700Y-116776500D03*
X162347700Y-114236500D03*
X162347700Y-111696500D03*
D10*
X127393700Y-109715300D03*
X124980700Y-109715300D03*
X135953500Y-109715300D03*
X143751300Y-117259100D03*
X141338300Y-117259100D03*
X152311100Y-117259100D03*
X143751300Y-129451100D03*
X141338300Y-129451100D03*
X152311100Y-129451100D03*
X130746500Y-125209300D03*
X130746500Y-127622300D03*
X130746500Y-116649500D03*
D11*
X127126100Y-107353100D03*
X125426100Y-107353100D03*
X134277100Y-105360100D03*
X134277100Y-107060100D03*
X130887100Y-104813100D03*
X132587100Y-104813100D03*
X160566100Y-133857100D03*
X160566100Y-132157100D03*
X147625700Y-127800100D03*
X149325700Y-127800100D03*
X133007100Y-115266100D03*
X133007100Y-116966100D03*
X134785100Y-115266100D03*
X134785100Y-116966100D03*
X136270100Y-112814100D03*
X134570100Y-112814100D03*
X168909100Y-127546100D03*
X167209100Y-127546100D03*
X142151100Y-121920900D03*
X142151100Y-123620900D03*
X142215500Y-120078500D03*
X143915500Y-120078500D03*
D12*
X158664900Y-133134100D03*
X163664900Y-133134100D03*
X168664900Y-133134100D03*
D13*
X138772900Y-123126500D03*
D14*
X138772900Y-120586500D03*
D18*
X145449100Y-123720500D03*
D16*
G36*
X146023844Y-122870635D02*
G01*
X146026563Y-122871038D01*
X146029228Y-122871706D01*
X146031815Y-122872631D01*
X146034299Y-122873806D01*
X146036656Y-122875219D01*
X146038863Y-122876856D01*
X146040899Y-122878701D01*
X146042744Y-122880737D01*
X146044381Y-122882944D01*
X146045794Y-122885301D01*
X146046969Y-122887785D01*
X146047894Y-122890372D01*
X146048562Y-122893037D01*
X146048965Y-122895756D01*
X146049100Y-122898500D01*
X146049100Y-123242500D01*
X146048965Y-123245244D01*
X146048562Y-123247963D01*
X146047894Y-123250628D01*
X146046969Y-123253215D01*
X146045794Y-123255699D01*
X146044381Y-123258056D01*
X146042744Y-123260263D01*
X146040899Y-123262299D01*
X146038863Y-123264144D01*
X146036656Y-123265781D01*
X146034299Y-123267194D01*
X146031815Y-123268369D01*
X146029228Y-123269294D01*
X146026563Y-123269962D01*
X146023844Y-123270365D01*
X146021100Y-123270500D01*
X144877100Y-123270500D01*
X144874356Y-123270365D01*
X144871637Y-123269962D01*
X144868972Y-123269294D01*
X144866385Y-123268369D01*
X144863901Y-123267194D01*
X144861544Y-123265781D01*
X144859337Y-123264144D01*
X144857301Y-123262299D01*
X144855456Y-123260263D01*
X144853819Y-123258056D01*
X144852406Y-123255699D01*
X144851231Y-123253215D01*
X144850306Y-123250628D01*
X144849638Y-123247963D01*
X144849235Y-123245244D01*
X144849100Y-123242500D01*
X144849100Y-122898500D01*
X144849235Y-122895756D01*
X144849638Y-122893037D01*
X144850306Y-122890372D01*
X144851231Y-122887785D01*
X144852406Y-122885301D01*
X144853819Y-122882944D01*
X144855456Y-122880737D01*
X144857301Y-122878701D01*
X144859337Y-122876856D01*
X144861544Y-122875219D01*
X144863901Y-122873806D01*
X144866385Y-122872631D01*
X144868972Y-122871706D01*
X144871637Y-122871038D01*
X144874356Y-122870635D01*
X144877100Y-122870500D01*
X146021100Y-122870500D01*
X146023844Y-122870635D01*
X146023844Y-122870635D01*
G37*
D17*
X145449100Y-123070500D03*
D18*
X145449100Y-122420500D03*
X145449100Y-121770500D03*
X151299100Y-121770500D03*
X151299100Y-122420500D03*
X151299100Y-123070500D03*
X151299100Y-123720500D03*
D15*
X130635100Y-106841100D03*
D16*
G36*
X131459844Y-106241235D02*
G01*
X131462563Y-106241638D01*
X131465228Y-106242306D01*
X131467815Y-106243231D01*
X131470299Y-106244406D01*
X131472656Y-106245819D01*
X131474863Y-106247456D01*
X131476899Y-106249301D01*
X131478744Y-106251337D01*
X131480381Y-106253544D01*
X131481794Y-106255901D01*
X131482969Y-106258385D01*
X131483894Y-106260972D01*
X131484562Y-106263637D01*
X131484965Y-106266356D01*
X131485100Y-106269100D01*
X131485100Y-107413100D01*
X131484965Y-107415844D01*
X131484562Y-107418563D01*
X131483894Y-107421228D01*
X131482969Y-107423815D01*
X131481794Y-107426299D01*
X131480381Y-107428656D01*
X131478744Y-107430863D01*
X131476899Y-107432899D01*
X131474863Y-107434744D01*
X131472656Y-107436381D01*
X131470299Y-107437794D01*
X131467815Y-107438969D01*
X131465228Y-107439894D01*
X131462563Y-107440562D01*
X131459844Y-107440965D01*
X131457100Y-107441100D01*
X131113100Y-107441100D01*
X131110356Y-107440965D01*
X131107637Y-107440562D01*
X131104972Y-107439894D01*
X131102385Y-107438969D01*
X131099901Y-107437794D01*
X131097544Y-107436381D01*
X131095337Y-107434744D01*
X131093301Y-107432899D01*
X131091456Y-107430863D01*
X131089819Y-107428656D01*
X131088406Y-107426299D01*
X131087231Y-107423815D01*
X131086306Y-107421228D01*
X131085638Y-107418563D01*
X131085235Y-107415844D01*
X131085100Y-107413100D01*
X131085100Y-106269100D01*
X131085235Y-106266356D01*
X131085638Y-106263637D01*
X131086306Y-106260972D01*
X131087231Y-106258385D01*
X131088406Y-106255901D01*
X131089819Y-106253544D01*
X131091456Y-106251337D01*
X131093301Y-106249301D01*
X131095337Y-106247456D01*
X131097544Y-106245819D01*
X131099901Y-106244406D01*
X131102385Y-106243231D01*
X131104972Y-106242306D01*
X131107637Y-106241638D01*
X131110356Y-106241235D01*
X131113100Y-106241100D01*
X131457100Y-106241100D01*
X131459844Y-106241235D01*
X131459844Y-106241235D01*
G37*
D17*
X131285100Y-106841100D03*
D15*
X131935100Y-106841100D03*
X132585100Y-106841100D03*
X132585100Y-112691100D03*
X131935100Y-112691100D03*
X131285100Y-112691100D03*
X130635100Y-112691100D03*
D20*
X135504100Y-103350100D03*
X135504100Y-101450100D03*
X133304100Y-102400100D03*
D11*
X129324100Y-105536100D03*
X129324100Y-103836100D03*
X158725500Y-136334500D03*
X160425500Y-136334500D03*
D19*
X171295100Y-88981100D03*
X169395100Y-88981100D03*
X170345100Y-91181100D03*
X172260300Y-101782700D03*
X170360300Y-101782700D03*
X171310300Y-103982700D03*
X147170100Y-119933900D03*
X149070100Y-119933900D03*
X148120100Y-117733900D03*
D11*
X143700500Y-123570100D03*
X143700500Y-121870100D03*
D10*
X127393700Y-136385300D03*
X124980700Y-136385300D03*
X135953500Y-136385300D03*
X143751300Y-141643100D03*
X141338300Y-141643100D03*
X152311100Y-141643100D03*
X143751300Y-153835100D03*
X141338300Y-153835100D03*
X152311100Y-153835100D03*
X130746500Y-151930100D03*
X130746500Y-154343100D03*
X130746500Y-143370300D03*
D11*
X127585100Y-133896100D03*
X129285100Y-133896100D03*
X131903100Y-136182100D03*
X133603100Y-136182100D03*
X126530100Y-140588100D03*
X126530100Y-138888100D03*
X160693100Y-156668100D03*
X160693100Y-158368100D03*
X145746100Y-135166100D03*
X147446100Y-135166100D03*
X134873100Y-143421100D03*
X133173100Y-143421100D03*
X137172700Y-143612500D03*
X137172700Y-145312500D03*
X136055100Y-141096100D03*
X136055100Y-139396100D03*
X168782100Y-130086100D03*
X167082100Y-130086100D03*
X141516100Y-135459100D03*
X141516100Y-137159100D03*
X139865100Y-135459100D03*
X139865100Y-137159100D03*
D12*
X158664900Y-157518100D03*
X163664900Y-157518100D03*
X168664900Y-157518100D03*
D13*
X138772900Y-149847300D03*
D14*
X138772900Y-147307300D03*
D18*
X145449100Y-138808100D03*
D16*
G36*
X146023844Y-137958235D02*
G01*
X146026563Y-137958638D01*
X146029228Y-137959306D01*
X146031815Y-137960231D01*
X146034299Y-137961406D01*
X146036656Y-137962819D01*
X146038863Y-137964456D01*
X146040899Y-137966301D01*
X146042744Y-137968337D01*
X146044381Y-137970544D01*
X146045794Y-137972901D01*
X146046969Y-137975385D01*
X146047894Y-137977972D01*
X146048562Y-137980637D01*
X146048965Y-137983356D01*
X146049100Y-137986100D01*
X146049100Y-138330100D01*
X146048965Y-138332844D01*
X146048562Y-138335563D01*
X146047894Y-138338228D01*
X146046969Y-138340815D01*
X146045794Y-138343299D01*
X146044381Y-138345656D01*
X146042744Y-138347863D01*
X146040899Y-138349899D01*
X146038863Y-138351744D01*
X146036656Y-138353381D01*
X146034299Y-138354794D01*
X146031815Y-138355969D01*
X146029228Y-138356894D01*
X146026563Y-138357562D01*
X146023844Y-138357965D01*
X146021100Y-138358100D01*
X144877100Y-138358100D01*
X144874356Y-138357965D01*
X144871637Y-138357562D01*
X144868972Y-138356894D01*
X144866385Y-138355969D01*
X144863901Y-138354794D01*
X144861544Y-138353381D01*
X144859337Y-138351744D01*
X144857301Y-138349899D01*
X144855456Y-138347863D01*
X144853819Y-138345656D01*
X144852406Y-138343299D01*
X144851231Y-138340815D01*
X144850306Y-138338228D01*
X144849638Y-138335563D01*
X144849235Y-138332844D01*
X144849100Y-138330100D01*
X144849100Y-137986100D01*
X144849235Y-137983356D01*
X144849638Y-137980637D01*
X144850306Y-137977972D01*
X144851231Y-137975385D01*
X144852406Y-137972901D01*
X144853819Y-137970544D01*
X144855456Y-137968337D01*
X144857301Y-137966301D01*
X144859337Y-137964456D01*
X144861544Y-137962819D01*
X144863901Y-137961406D01*
X144866385Y-137960231D01*
X144868972Y-137959306D01*
X144871637Y-137958638D01*
X144874356Y-137958235D01*
X144877100Y-137958100D01*
X146021100Y-137958100D01*
X146023844Y-137958235D01*
X146023844Y-137958235D01*
G37*
D17*
X145449100Y-138158100D03*
D18*
X145449100Y-137508100D03*
X145449100Y-136858100D03*
X151299100Y-136858100D03*
X151299100Y-137508100D03*
X151299100Y-138158100D03*
X151299100Y-138808100D03*
X128431100Y-140586100D03*
D16*
G36*
X129005844Y-139736235D02*
G01*
X129008563Y-139736638D01*
X129011228Y-139737306D01*
X129013815Y-139738231D01*
X129016299Y-139739406D01*
X129018656Y-139740819D01*
X129020863Y-139742456D01*
X129022899Y-139744301D01*
X129024744Y-139746337D01*
X129026381Y-139748544D01*
X129027794Y-139750901D01*
X129028969Y-139753385D01*
X129029894Y-139755972D01*
X129030562Y-139758637D01*
X129030965Y-139761356D01*
X129031100Y-139764100D01*
X129031100Y-140108100D01*
X129030965Y-140110844D01*
X129030562Y-140113563D01*
X129029894Y-140116228D01*
X129028969Y-140118815D01*
X129027794Y-140121299D01*
X129026381Y-140123656D01*
X129024744Y-140125863D01*
X129022899Y-140127899D01*
X129020863Y-140129744D01*
X129018656Y-140131381D01*
X129016299Y-140132794D01*
X129013815Y-140133969D01*
X129011228Y-140134894D01*
X129008563Y-140135562D01*
X129005844Y-140135965D01*
X129003100Y-140136100D01*
X127859100Y-140136100D01*
X127856356Y-140135965D01*
X127853637Y-140135562D01*
X127850972Y-140134894D01*
X127848385Y-140133969D01*
X127845901Y-140132794D01*
X127843544Y-140131381D01*
X127841337Y-140129744D01*
X127839301Y-140127899D01*
X127837456Y-140125863D01*
X127835819Y-140123656D01*
X127834406Y-140121299D01*
X127833231Y-140118815D01*
X127832306Y-140116228D01*
X127831638Y-140113563D01*
X127831235Y-140110844D01*
X127831100Y-140108100D01*
X127831100Y-139764100D01*
X127831235Y-139761356D01*
X127831638Y-139758637D01*
X127832306Y-139755972D01*
X127833231Y-139753385D01*
X127834406Y-139750901D01*
X127835819Y-139748544D01*
X127837456Y-139746337D01*
X127839301Y-139744301D01*
X127841337Y-139742456D01*
X127843544Y-139740819D01*
X127845901Y-139739406D01*
X127848385Y-139738231D01*
X127850972Y-139737306D01*
X127853637Y-139736638D01*
X127856356Y-139736235D01*
X127859100Y-139736100D01*
X129003100Y-139736100D01*
X129005844Y-139736235D01*
X129005844Y-139736235D01*
G37*
D17*
X128431100Y-139936100D03*
D18*
X128431100Y-139286100D03*
X128431100Y-138636100D03*
X134281100Y-138636100D03*
X134281100Y-139286100D03*
X134281100Y-139936100D03*
X134281100Y-140586100D03*
D19*
X127866100Y-148712100D03*
X129766100Y-148712100D03*
X128816100Y-146512100D03*
D11*
X126569100Y-142659100D03*
X128269100Y-142659100D03*
X170243500Y-131621900D03*
X170243500Y-129921900D03*
D19*
X167866100Y-89489100D03*
X165966100Y-89489100D03*
X166916100Y-91689100D03*
X172184100Y-97109100D03*
X170284100Y-97109100D03*
X171234100Y-99309100D03*
D20*
X142362100Y-133449100D03*
X142362100Y-131549100D03*
X140162100Y-132499100D03*
D11*
X143167100Y-137159100D03*
X143167100Y-135459100D03*
D10*
X148602700Y-59804300D03*
X148602700Y-62217300D03*
X148602700Y-51244500D03*
D11*
X152653100Y-51473100D03*
X150953100Y-51473100D03*
D18*
X145322100Y-55877100D03*
D16*
G36*
X145896844Y-55027235D02*
G01*
X145899563Y-55027638D01*
X145902228Y-55028306D01*
X145904815Y-55029231D01*
X145907299Y-55030406D01*
X145909656Y-55031819D01*
X145911863Y-55033456D01*
X145913899Y-55035301D01*
X145915744Y-55037337D01*
X145917381Y-55039544D01*
X145918794Y-55041901D01*
X145919969Y-55044385D01*
X145920894Y-55046972D01*
X145921562Y-55049637D01*
X145921965Y-55052356D01*
X145922100Y-55055100D01*
X145922100Y-55399100D01*
X145921965Y-55401844D01*
X145921562Y-55404563D01*
X145920894Y-55407228D01*
X145919969Y-55409815D01*
X145918794Y-55412299D01*
X145917381Y-55414656D01*
X145915744Y-55416863D01*
X145913899Y-55418899D01*
X145911863Y-55420744D01*
X145909656Y-55422381D01*
X145907299Y-55423794D01*
X145904815Y-55424969D01*
X145902228Y-55425894D01*
X145899563Y-55426562D01*
X145896844Y-55426965D01*
X145894100Y-55427100D01*
X144750100Y-55427100D01*
X144747356Y-55426965D01*
X144744637Y-55426562D01*
X144741972Y-55425894D01*
X144739385Y-55424969D01*
X144736901Y-55423794D01*
X144734544Y-55422381D01*
X144732337Y-55420744D01*
X144730301Y-55418899D01*
X144728456Y-55416863D01*
X144726819Y-55414656D01*
X144725406Y-55412299D01*
X144724231Y-55409815D01*
X144723306Y-55407228D01*
X144722638Y-55404563D01*
X144722235Y-55401844D01*
X144722100Y-55399100D01*
X144722100Y-55055100D01*
X144722235Y-55052356D01*
X144722638Y-55049637D01*
X144723306Y-55046972D01*
X144724231Y-55044385D01*
X144725406Y-55041901D01*
X144726819Y-55039544D01*
X144728456Y-55037337D01*
X144730301Y-55035301D01*
X144732337Y-55033456D01*
X144734544Y-55031819D01*
X144736901Y-55030406D01*
X144739385Y-55029231D01*
X144741972Y-55028306D01*
X144744637Y-55027638D01*
X144747356Y-55027235D01*
X144750100Y-55027100D01*
X145894100Y-55027100D01*
X145896844Y-55027235D01*
X145896844Y-55027235D01*
G37*
D17*
X145322100Y-55227100D03*
D18*
X145322100Y-54577100D03*
X145322100Y-53927100D03*
X151172100Y-53927100D03*
X151172100Y-54577100D03*
X151172100Y-55227100D03*
X151172100Y-55877100D03*
D11*
X153454100Y-54560100D03*
X153454100Y-56260100D03*
X152107900Y-58673100D03*
X152107900Y-56973100D03*
X155017100Y-53124100D03*
X156717100Y-53124100D03*
D19*
X160119100Y-51897100D03*
X158219100Y-51897100D03*
X159169100Y-54097100D03*
D11*
X163272100Y-51219100D03*
X164972100Y-51219100D03*
D22*
X166992300Y-51371500D03*
D23*
X166992300Y-61531500D03*
X164452300Y-58991500D03*
X164452300Y-56451500D03*
X164452300Y-53911500D03*
X169532300Y-58991500D03*
X169532300Y-56451500D03*
X169532300Y-53911500D03*
D11*
X161836100Y-57276100D03*
X161836100Y-55576100D03*
X160058100Y-59181100D03*
X160058100Y-57481100D03*
D24*
X137299700Y-55562500D03*
X142379700Y-55562500D03*
X139839700Y-53022500D03*
D11*
X141654900Y-58940700D03*
X139954900Y-58940700D03*
X158903300Y-142328900D03*
X160603300Y-142328900D03*
D25*
X151142100Y-143935100D03*
X151142100Y-148495100D03*
D26*
X143962100Y-146215100D03*
D21*
X164042300Y-139306300D03*
X164042300Y-154546300D03*
X169891500Y-154546300D03*
X164042300Y-152006300D03*
X169891500Y-152006300D03*
X164042300Y-149466300D03*
X169891500Y-149466300D03*
X164042300Y-146926300D03*
X169891500Y-146926300D03*
X164042300Y-144386300D03*
X169891500Y-144386300D03*
X164042300Y-141846300D03*
X164042300Y-136766300D03*
X169891500Y-141846300D03*
X169891500Y-139306300D03*
X169891500Y-136766300D03*
D27*
X160032700Y-149002500D03*
X160032700Y-145002500D03*
D28*
X148018500Y-151195700D03*
X148018500Y-154620700D03*
X155663900Y-149692700D03*
X155663900Y-146267700D03*
D29*
X150837900Y-134327900D03*
X155917900Y-134327900D03*
X153377900Y-134327900D03*
D15*
X135506100Y-61383100D03*
D16*
G36*
X135030844Y-60783235D02*
G01*
X135033563Y-60783638D01*
X135036228Y-60784306D01*
X135038815Y-60785231D01*
X135041299Y-60786406D01*
X135043656Y-60787819D01*
X135045863Y-60789456D01*
X135047899Y-60791301D01*
X135049744Y-60793337D01*
X135051381Y-60795544D01*
X135052794Y-60797901D01*
X135053969Y-60800385D01*
X135054894Y-60802972D01*
X135055562Y-60805637D01*
X135055965Y-60808356D01*
X135056100Y-60811100D01*
X135056100Y-61955100D01*
X135055965Y-61957844D01*
X135055562Y-61960563D01*
X135054894Y-61963228D01*
X135053969Y-61965815D01*
X135052794Y-61968299D01*
X135051381Y-61970656D01*
X135049744Y-61972863D01*
X135047899Y-61974899D01*
X135045863Y-61976744D01*
X135043656Y-61978381D01*
X135041299Y-61979794D01*
X135038815Y-61980969D01*
X135036228Y-61981894D01*
X135033563Y-61982562D01*
X135030844Y-61982965D01*
X135028100Y-61983100D01*
X134684100Y-61983100D01*
X134681356Y-61982965D01*
X134678637Y-61982562D01*
X134675972Y-61981894D01*
X134673385Y-61980969D01*
X134670901Y-61979794D01*
X134668544Y-61978381D01*
X134666337Y-61976744D01*
X134664301Y-61974899D01*
X134662456Y-61972863D01*
X134660819Y-61970656D01*
X134659406Y-61968299D01*
X134658231Y-61965815D01*
X134657306Y-61963228D01*
X134656638Y-61960563D01*
X134656235Y-61957844D01*
X134656100Y-61955100D01*
X134656100Y-60811100D01*
X134656235Y-60808356D01*
X134656638Y-60805637D01*
X134657306Y-60802972D01*
X134658231Y-60800385D01*
X134659406Y-60797901D01*
X134660819Y-60795544D01*
X134662456Y-60793337D01*
X134664301Y-60791301D01*
X134666337Y-60789456D01*
X134668544Y-60787819D01*
X134670901Y-60786406D01*
X134673385Y-60785231D01*
X134675972Y-60784306D01*
X134678637Y-60783638D01*
X134681356Y-60783235D01*
X134684100Y-60783100D01*
X135028100Y-60783100D01*
X135030844Y-60783235D01*
X135030844Y-60783235D01*
G37*
D17*
X134856100Y-61383100D03*
D15*
X134206100Y-61383100D03*
X133556100Y-61383100D03*
X133556100Y-55533100D03*
X134206100Y-55533100D03*
X134856100Y-55533100D03*
X135506100Y-55533100D03*
D11*
X151308700Y-63055500D03*
X153008700Y-63055500D03*
D30*
X160026100Y-152946100D03*
X156026100Y-152946100D03*
D11*
X159575500Y-138380100D03*
X159575500Y-140080100D03*
D28*
X133489700Y-150073700D03*
X133489700Y-146648700D03*
D23*
X139952100Y-159002100D03*
X134952100Y-159002100D03*
X137452100Y-154002100D03*
D11*
X133261100Y-154939100D03*
X133261100Y-153239100D03*
X170599100Y-114807100D03*
X170599100Y-113107100D03*
X170599100Y-111505100D03*
X170599100Y-109805100D03*
X166826300Y-111747300D03*
X165126300Y-111747300D03*
X166851700Y-114261900D03*
X165151700Y-114261900D03*
X166902500Y-116776500D03*
X165202500Y-116776500D03*
X166851700Y-119367300D03*
X165151700Y-119367300D03*
D31*
X145757900Y-108314700D03*
X140677900Y-108314700D03*
X140677900Y-114163900D03*
X143217900Y-108314700D03*
X148297900Y-108314700D03*
X143217900Y-114163900D03*
X145757900Y-114163900D03*
X148297900Y-114163900D03*
D32*
X160941100Y-95660100D03*
X161741100Y-95660100D03*
X162541100Y-95660100D03*
X163341100Y-95660100D03*
X164141100Y-95660100D03*
X164941100Y-95660100D03*
X165741100Y-95660100D03*
X166541100Y-95660100D03*
D33*
X167941100Y-97060100D03*
X167941100Y-97860100D03*
X167941100Y-98660100D03*
X167941100Y-99460100D03*
X167941100Y-100260100D03*
X167941100Y-101060100D03*
X167941100Y-101860100D03*
X167941100Y-102660100D03*
D32*
X166541100Y-104060100D03*
X165741100Y-104060100D03*
X164941100Y-104060100D03*
X164141100Y-104060100D03*
X163341100Y-104060100D03*
X162541100Y-104060100D03*
X161741100Y-104060100D03*
X160941100Y-104060100D03*
D33*
X159541100Y-102660100D03*
X159541100Y-101860100D03*
X159541100Y-101060100D03*
X159541100Y-100260100D03*
X159541100Y-99460100D03*
X159541100Y-98660100D03*
X159541100Y-97860100D03*
X159541100Y-97060100D03*
D11*
X170052100Y-67602100D03*
X168352100Y-67602100D03*
D21*
X169866100Y-72047100D03*
X169866100Y-69507100D03*
X169866100Y-74587100D03*
X164016900Y-69507100D03*
X164016900Y-72047100D03*
X164016900Y-74587100D03*
D34*
X157252100Y-100080100D03*
X155752100Y-100080100D03*
X155752100Y-102180100D03*
X157252100Y-102180100D03*
D11*
X157225100Y-98336100D03*
X155525100Y-98336100D03*
X155525100Y-103924100D03*
X157225100Y-103924100D03*
D31*
X158127700Y-68901100D03*
X160667700Y-68901100D03*
X155587700Y-68901100D03*
X160667700Y-63051900D03*
X158127700Y-63051900D03*
X155587700Y-63051900D03*
D18*
X155794900Y-156873300D03*
D16*
G36*
X156369644Y-157323435D02*
G01*
X156372363Y-157323838D01*
X156375028Y-157324506D01*
X156377615Y-157325431D01*
X156380099Y-157326606D01*
X156382456Y-157328019D01*
X156384663Y-157329656D01*
X156386699Y-157331501D01*
X156388544Y-157333537D01*
X156390181Y-157335744D01*
X156391594Y-157338101D01*
X156392769Y-157340585D01*
X156393694Y-157343172D01*
X156394362Y-157345837D01*
X156394765Y-157348556D01*
X156394900Y-157351300D01*
X156394900Y-157695300D01*
X156394765Y-157698044D01*
X156394362Y-157700763D01*
X156393694Y-157703428D01*
X156392769Y-157706015D01*
X156391594Y-157708499D01*
X156390181Y-157710856D01*
X156388544Y-157713063D01*
X156386699Y-157715099D01*
X156384663Y-157716944D01*
X156382456Y-157718581D01*
X156380099Y-157719994D01*
X156377615Y-157721169D01*
X156375028Y-157722094D01*
X156372363Y-157722762D01*
X156369644Y-157723165D01*
X156366900Y-157723300D01*
X155222900Y-157723300D01*
X155220156Y-157723165D01*
X155217437Y-157722762D01*
X155214772Y-157722094D01*
X155212185Y-157721169D01*
X155209701Y-157719994D01*
X155207344Y-157718581D01*
X155205137Y-157716944D01*
X155203101Y-157715099D01*
X155201256Y-157713063D01*
X155199619Y-157710856D01*
X155198206Y-157708499D01*
X155197031Y-157706015D01*
X155196106Y-157703428D01*
X155195438Y-157700763D01*
X155195035Y-157698044D01*
X155194900Y-157695300D01*
X155194900Y-157351300D01*
X155195035Y-157348556D01*
X155195438Y-157345837D01*
X155196106Y-157343172D01*
X155197031Y-157340585D01*
X155198206Y-157338101D01*
X155199619Y-157335744D01*
X155201256Y-157333537D01*
X155203101Y-157331501D01*
X155205137Y-157329656D01*
X155207344Y-157328019D01*
X155209701Y-157326606D01*
X155212185Y-157325431D01*
X155214772Y-157324506D01*
X155217437Y-157323838D01*
X155220156Y-157323435D01*
X155222900Y-157323300D01*
X156366900Y-157323300D01*
X156369644Y-157323435D01*
X156369644Y-157323435D01*
G37*
D17*
X155794900Y-157523300D03*
D18*
X155794900Y-158173300D03*
X155794900Y-158823300D03*
X149944900Y-158823300D03*
X149944900Y-158173300D03*
X149944900Y-157523300D03*
X149944900Y-156873300D03*
D11*
X145402300Y-156718900D03*
X145402300Y-158418900D03*
X141566900Y-156744300D03*
X141566900Y-158444300D03*
X147840700Y-156769700D03*
X147840700Y-158469700D03*
X138823700Y-143637900D03*
X138823700Y-145337900D03*
X143395700Y-158520500D03*
X143395700Y-156820500D03*
X161861500Y-51613700D03*
X161861500Y-53313700D03*
X158534100Y-59308100D03*
X158534100Y-57608100D03*
X134937500Y-53720100D03*
X134937500Y-52020100D03*
X129921900Y-55689500D03*
X131621900Y-55689500D03*
X141654900Y-60540900D03*
X139954900Y-60540900D03*
X141555100Y-74993500D03*
X143255100Y-74993500D03*
X128446900Y-55765700D03*
X126746900Y-55765700D03*
X135560700Y-80733900D03*
X137260700Y-80733900D03*
X152234900Y-101294300D03*
X152234900Y-99594300D03*
X135636900Y-107226100D03*
X137336900Y-107226100D03*
X143585300Y-127139700D03*
X141885300Y-127139700D03*
X132815700Y-133413500D03*
X131115700Y-133413500D03*
X154139900Y-154532700D03*
X154139900Y-152832700D03*
D19*
X138478300Y-51643100D03*
X136578300Y-51643100D03*
X137528300Y-53843100D03*
D11*
X146824700Y-58673100D03*
X146824700Y-56973100D03*
D35*
X147713700Y-74079100D03*
X149339300Y-74079100D03*
X153606500Y-59194700D03*
X171284900Y-86880700D03*
D36*
X143725900Y-150583900D03*
X144106900Y-59169300D03*
X144183100Y-65163700D03*
X128663700Y-157899100D03*
D35*
X139941300Y-75069700D03*
X136944100Y-105422700D03*
X139357100Y-107251500D03*
X170675300Y-116141500D03*
X166611300Y-98463100D03*
X164985700Y-87287100D03*
X164579300Y-97040700D03*
X165188900Y-117970300D03*
X157873700Y-117970300D03*
X156248100Y-87693500D03*
X161734500Y-66560700D03*
X167830500Y-65747900D03*
X169456100Y-65747900D03*
X169862500Y-77127100D03*
X159296100Y-72859900D03*
D36*
X159600900Y-121881900D03*
D35*
X144284700Y-139560300D03*
X148932900Y-95008700D03*
X153606500Y-87083900D03*
X128003300Y-86271100D03*
X127596900Y-84645500D03*
X132067300Y-66763900D03*
X129832100Y-77127100D03*
X145300700Y-56781700D03*
X155638500Y-51930300D03*
X149136100Y-71234300D03*
X132880100Y-118783100D03*
X129832100Y-106794300D03*
D36*
X150253700Y-141693900D03*
X150761700Y-146494500D03*
X136385300Y-61963300D03*
D35*
X149948900Y-136867900D03*
X145681700Y-70421500D03*
X145072100Y-87490300D03*
X138163300Y-142151100D03*
X149948900Y-122440700D03*
X155435300Y-96024700D03*
X140195300Y-67373500D03*
X140601700Y-72453500D03*
X146494500Y-73977500D03*
X154419300Y-85458300D03*
X154419300Y-88099900D03*
X150964900Y-108013500D03*
X149644100Y-54978300D03*
X145884900Y-66967100D03*
X137756900Y-138087100D03*
X144259300Y-136258300D03*
X132676900Y-109435900D03*
X147104100Y-99885500D03*
X150964900Y-89319100D03*
X133489700Y-66560700D03*
X132676900Y-83019900D03*
X133489700Y-72047100D03*
X129832100Y-155765500D03*
X132067300Y-140728700D03*
X145884900Y-124675900D03*
D36*
X156781500Y-159778700D03*
D35*
X162064700Y-94145100D03*
X159702500Y-79565500D03*
X171462700Y-91071700D03*
X169608500Y-87566500D03*
X169964100Y-98691700D03*
X144868900Y-131584700D03*
X129730500Y-150152100D03*
X136944100Y-101511100D03*
X138976100Y-101307900D03*
X151980900Y-87693500D03*
X145681700Y-79362300D03*
X162547300Y-101307900D03*
X165188900Y-100291900D03*
X157695900Y-89903300D03*
X152387300Y-127317500D03*
X149948900Y-113499900D03*
X166408100Y-97243900D03*
D36*
X166027100Y-110655100D03*
D35*
X154825700Y-90944700D03*
X153200100Y-90944700D03*
X170065700Y-123761500D03*
X167627300Y-96024700D03*
D36*
X168084500Y-110655100D03*
D35*
X162953700Y-113017300D03*
X162750500Y-97040700D03*
X151168100Y-90335100D03*
D36*
X145986500Y-104178100D03*
D35*
X153606500Y-125082300D03*
D36*
X154114500Y-130822700D03*
X167957500Y-115404900D03*
X165265100Y-115430300D03*
D35*
X170065700Y-100088700D03*
X167093900Y-120688100D03*
D36*
X149288500Y-131813300D03*
D35*
X151980900Y-86677500D03*
X136740900Y-102527100D03*
X161937700Y-134023100D03*
X164985700Y-135445500D03*
X167627300Y-93789500D03*
X169862500Y-128536700D03*
X153809700Y-107810300D03*
X149136100Y-116547900D03*
X138772900Y-112687100D03*
X142024100Y-109435900D03*
X166230300Y-132168900D03*
X166204900Y-156197300D03*
X165798500Y-94399100D03*
X128003300Y-143776700D03*
X128612900Y-145199100D03*
X158483300Y-96227900D03*
X133896100Y-118783100D03*
X157060900Y-97040700D03*
X153606500Y-98056700D03*
X138366500Y-116141500D03*
X146316700Y-127850900D03*
X145503900Y-126098300D03*
X145681700Y-130771900D03*
X155232100Y-108419900D03*
X161124900Y-83629500D03*
X161683700Y-99428300D03*
X136334500Y-142354300D03*
X140601700Y-125082300D03*
D36*
X161734500Y-110553500D03*
X161632900Y-120688100D03*
D35*
X168440100Y-103543100D03*
X166204900Y-77533500D03*
X161937700Y-73266300D03*
X163563300Y-100291900D03*
X165188900Y-77533500D03*
X162852100Y-66484500D03*
X167805100Y-75958700D03*
X172504100Y-105575100D03*
X159270700Y-66408300D03*
D36*
X137553700Y-57188100D03*
X139306300Y-55283100D03*
X147027900Y-64579500D03*
X154139900Y-63588900D03*
D35*
X156908500Y-72250300D03*
D36*
X152361900Y-155714700D03*
X144335500Y-155486100D03*
X153377900Y-159118300D03*
D37*
X130644900Y-59855100D02*
X128816100Y-59855100D01*
X128816100Y-59855100D02*
X128816100Y-59790700D01*
X130644900Y-59855100D02*
X130746500Y-59778900D01*
X152184100Y-80581500D02*
X152184100Y-78930500D01*
X152184100Y-78930500D02*
X152184100Y-77939900D01*
X152184100Y-77939900D02*
X152272100Y-77762100D01*
X152184100Y-80581500D02*
X152311100Y-80683100D01*
X143255100Y-74993500D02*
X143356700Y-74891900D01*
X143356700Y-74891900D02*
X146596100Y-74891900D01*
X146596100Y-74891900D02*
X146850100Y-75145900D01*
X146850100Y-75145900D02*
X146850100Y-76644500D01*
X146850100Y-76644500D02*
X147764500Y-77558900D01*
X147764500Y-77558900D02*
X148374100Y-77558900D01*
X148374100Y-77558900D02*
X149745700Y-78930500D01*
X149745700Y-78930500D02*
X152184100Y-78930500D01*
X135115300Y-69405500D02*
X133896100Y-69405500D01*
X135953500Y-68567300D02*
X135115300Y-69405500D01*
X133896100Y-69405500D02*
X133896100Y-69468100D01*
X150761700Y-76111100D02*
X150761700Y-77736700D01*
X150964900Y-75907900D02*
X150761700Y-76111100D01*
X150761700Y-77736700D02*
X150572100Y-77762100D01*
X150964900Y-75907900D02*
X151002100Y-75730100D01*
X147307300Y-73672700D02*
X147307300Y-72859900D01*
X147713700Y-74079100D02*
X147307300Y-73672700D01*
X150964900Y-75704700D02*
X149339300Y-74079100D01*
X147307300Y-72859900D02*
X147272100Y-72686100D01*
X150964900Y-75704700D02*
X151002100Y-75730100D01*
X127596900Y-62903100D02*
X127596900Y-53149500D01*
X128612900Y-63919100D02*
X127596900Y-62903100D01*
X127596900Y-53149500D02*
X127546100Y-52958100D01*
X128612900Y-63919100D02*
X128689100Y-63958100D01*
X128816100Y-63919100D02*
X130644900Y-63919100D01*
X130644900Y-63919100D02*
X130844100Y-63960100D01*
X128816100Y-63919100D02*
X128689100Y-63958100D01*
X168821100Y-93676100D02*
X169137700Y-93992700D01*
X169137700Y-93992700D02*
X171234100Y-93992700D01*
X171234100Y-93992700D02*
X172057100Y-93169700D01*
X172057100Y-93169700D02*
X172057100Y-92918100D01*
X172057100Y-92918100D02*
X172427900Y-92780900D01*
X172427900Y-92780900D02*
X172427900Y-88988900D01*
X172427900Y-88988900D02*
X171912100Y-88981100D01*
X171912100Y-88981100D02*
X171295100Y-88981100D01*
X171295100Y-88981100D02*
X170169700Y-90106500D01*
X170169700Y-90106500D02*
X168287700Y-90106500D01*
X168287700Y-90106500D02*
X167866100Y-89684900D01*
X167866100Y-89684900D02*
X167866100Y-89489100D01*
X167866100Y-89489100D02*
X166766100Y-90589100D01*
X166766100Y-90589100D02*
X164884100Y-90589100D01*
X164884100Y-90589100D02*
X164310100Y-90015100D01*
X164310100Y-90015100D02*
X164310100Y-89108100D01*
X164310100Y-89108100D02*
X163108500Y-90233500D01*
X163108500Y-90233500D02*
X161632900Y-90233500D01*
X161632900Y-90233500D02*
X161066300Y-89743100D01*
X161066300Y-89743100D02*
X160754100Y-89743100D01*
X172184100Y-97109100D02*
X172057100Y-96982100D01*
X172057100Y-96982100D02*
X172057100Y-92918100D01*
X172260300Y-101782700D02*
X172656500Y-101386500D01*
X172656500Y-101386500D02*
X172656500Y-97581500D01*
X172184100Y-97109100D02*
X172656500Y-97581500D01*
D38*
X164042300Y-146926300D02*
X169891500Y-146926300D01*
X169891500Y-146926300D02*
X169891500Y-149466300D01*
X169891500Y-149466300D02*
X169891500Y-152006300D01*
X164042300Y-152006300D02*
X164042300Y-149466300D01*
X164042300Y-146926300D02*
X164042300Y-149466300D01*
X169891500Y-152006300D02*
X163334700Y-151930100D01*
X163334700Y-151930100D02*
X162648900Y-151930100D01*
X162648900Y-151930100D02*
X162572700Y-151853900D01*
X162572700Y-151853900D02*
X162572700Y-152006300D01*
X162572700Y-152006300D02*
X162648900Y-152082500D01*
X157264100Y-146899100D02*
X158610300Y-146899100D01*
X158610300Y-146899100D02*
X161758100Y-146899100D01*
X161758100Y-146899100D02*
X164042300Y-146926300D01*
X143751300Y-153835100D02*
X144411700Y-153835100D01*
D37*
X143649700Y-117157500D02*
X143243300Y-117157500D01*
X143243300Y-117157500D02*
X141414500Y-117157500D01*
X141414500Y-117157500D02*
X141338300Y-117259100D01*
X143649700Y-117157500D02*
X143751300Y-117259100D01*
X141414500Y-104965500D02*
X139382500Y-102933500D01*
X139382500Y-102933500D02*
X139296100Y-102738100D01*
X143040100Y-104355900D02*
X143040100Y-102933500D01*
X143751300Y-105067100D02*
X143040100Y-104355900D01*
X143040100Y-102933500D02*
X142913100Y-102742100D01*
X142430500Y-104965500D02*
X141414500Y-104965500D01*
X143040100Y-104355900D02*
X142430500Y-104965500D01*
X141414500Y-104965500D02*
X141338300Y-105067100D01*
X169659300Y-109639100D02*
X170472100Y-109639100D01*
X168846500Y-108826300D02*
X169659300Y-109639100D01*
X170472100Y-109639100D02*
X170599100Y-109805100D01*
X168846500Y-108826300D02*
X168664900Y-108750100D01*
X154622500Y-102933500D02*
X155435300Y-103746300D01*
X154622500Y-97650300D02*
X154622500Y-99479100D01*
X154622500Y-99479100D02*
X154622500Y-102933500D01*
X154825700Y-97447100D02*
X154622500Y-97650300D01*
X156248100Y-97447100D02*
X154825700Y-97447100D01*
X157060900Y-98259900D02*
X156248100Y-97447100D01*
X155435300Y-103746300D02*
X155525100Y-103924100D01*
X157060900Y-98259900D02*
X157225100Y-98336100D01*
X158686500Y-100088700D02*
X159499300Y-100088700D01*
X158280100Y-99682300D02*
X158686500Y-100088700D01*
X158280100Y-99275900D02*
X158280100Y-99682300D01*
X157264100Y-98259900D02*
X158280100Y-99275900D01*
X159499300Y-100088700D02*
X159541100Y-100260100D01*
X157264100Y-98259900D02*
X157225100Y-98336100D01*
X158889700Y-98666300D02*
X159499300Y-98666300D01*
X158280100Y-99275900D02*
X158889700Y-98666300D01*
X159499300Y-98666300D02*
X159541100Y-98660100D01*
X164376100Y-99275900D02*
X167830500Y-99275900D01*
X159702500Y-98666300D02*
X160108900Y-98666300D01*
X167830500Y-99275900D02*
X167941100Y-99460100D01*
X159702500Y-98666300D02*
X159541100Y-98660100D01*
X168643300Y-104762300D02*
X168643300Y-108623100D01*
X164376100Y-100495100D02*
X168643300Y-104762300D01*
X164376100Y-99275900D02*
X164376100Y-100495100D01*
X168643300Y-108623100D02*
X168664900Y-108750100D01*
X133286500Y-150685500D02*
X133286500Y-152920700D01*
X133286500Y-152920700D02*
X133286500Y-153123900D01*
X133692900Y-150279100D02*
X133286500Y-150685500D01*
X133286500Y-153123900D02*
X133261100Y-153239100D01*
X133692900Y-150279100D02*
X133489700Y-150073700D01*
X128003300Y-151295100D02*
X128003300Y-148856700D01*
X130644900Y-153936700D02*
X128003300Y-151295100D01*
X130644900Y-154343100D02*
X130644900Y-153936700D01*
X128003300Y-148856700D02*
X127866100Y-148712100D01*
X130644900Y-154343100D02*
X130746500Y-154343100D01*
X135115300Y-158813500D02*
X135928100Y-158000700D01*
X133286500Y-152920700D02*
X133261100Y-153239100D01*
X135115300Y-158813500D02*
X134952100Y-159002100D01*
X141211300Y-132397500D02*
X142227300Y-133413500D01*
X141211300Y-129552700D02*
X141211300Y-131584700D01*
X141211300Y-131584700D02*
X141211300Y-132397500D01*
X142227300Y-133413500D02*
X142362100Y-133449100D01*
X141211300Y-129552700D02*
X141338300Y-129451100D01*
X143649700Y-129349500D02*
X141414500Y-129349500D01*
X141414500Y-129349500D02*
X141338300Y-129451100D01*
X143649700Y-129349500D02*
X143751300Y-129451100D01*
X139992100Y-140322300D02*
X139992100Y-137274300D01*
X141312900Y-141643100D02*
X139992100Y-140322300D01*
X139992100Y-137274300D02*
X139865100Y-137159100D01*
X157746700Y-146875500D02*
X157264100Y-146899100D01*
X166204900Y-133210300D02*
X168643300Y-133210300D01*
X164172900Y-135242300D02*
X166204900Y-133210300D01*
X168643300Y-133210300D02*
X168664900Y-133134100D01*
X143649700Y-153733500D02*
X141414500Y-153733500D01*
X141414500Y-153733500D02*
X141338300Y-153835100D01*
X143649700Y-153733500D02*
X143751300Y-153835100D01*
X169659300Y-152107900D02*
X170472100Y-152107900D01*
X169659300Y-152107900D02*
X169891500Y-152006300D01*
X139382500Y-131584700D02*
X141211300Y-131584700D01*
X138976100Y-131991100D02*
X139382500Y-131584700D01*
X138976100Y-136258300D02*
X138976100Y-131991100D01*
X139788900Y-137071100D02*
X138976100Y-136258300D01*
X139788900Y-137071100D02*
X139865100Y-137159100D01*
X153606500Y-59194700D02*
X153174700Y-58712100D01*
X153174700Y-58712100D02*
X152107900Y-58673100D01*
X168236900Y-80581500D02*
X166204900Y-80581500D01*
X166204900Y-80581500D02*
X166027100Y-80517100D01*
X168236900Y-80581500D02*
X168379100Y-80640100D01*
X168440100Y-84035900D02*
X168440100Y-80784700D01*
X168643300Y-84239100D02*
X168440100Y-84035900D01*
X168440100Y-80784700D02*
X168379100Y-80640100D01*
X168643300Y-84239100D02*
X168664900Y-84366100D01*
X164376100Y-59042300D02*
X163969700Y-59042300D01*
X163969700Y-59042300D02*
X160108900Y-59042300D01*
X160108900Y-59042300D02*
X160058100Y-59181100D01*
X164376100Y-59042300D02*
X164452300Y-58991500D01*
X163969700Y-69608700D02*
X163563300Y-69608700D01*
X163969700Y-69608700D02*
X164016900Y-69507100D01*
X163969700Y-69405500D02*
X163969700Y-59042300D01*
X163969700Y-59042300D02*
X164452300Y-58991500D01*
X163969700Y-69405500D02*
X164016900Y-69507100D01*
X171284900Y-86880700D02*
X171284900Y-88912700D01*
X171284900Y-88912700D02*
X171295100Y-88981100D01*
X132473700Y-103339900D02*
X135318500Y-103339900D01*
X130848100Y-101714300D02*
X132473700Y-103339900D01*
X130848100Y-101104700D02*
X130848100Y-101714300D01*
X135318500Y-103339900D02*
X135504100Y-103350100D01*
X130848100Y-101104700D02*
X130746500Y-101003100D01*
X143649700Y-68389500D02*
X141414500Y-68389500D01*
X141414500Y-68389500D02*
X141338300Y-68491100D01*
X143649700Y-68389500D02*
X143751300Y-68491100D01*
X143649700Y-92773500D02*
X141414500Y-92773500D01*
X141414500Y-92773500D02*
X141338300Y-92875100D01*
X143649700Y-92773500D02*
X143751300Y-92875100D01*
X146494500Y-81191100D02*
X146494500Y-83223100D01*
X146494500Y-83223100D02*
X146508100Y-83223100D01*
X146494500Y-81191100D02*
X146408100Y-81148100D01*
X144056100Y-80987900D02*
X146291300Y-80987900D01*
X143751300Y-80683100D02*
X144056100Y-80987900D01*
X146291300Y-80987900D02*
X146408100Y-81148100D01*
X139382500Y-78752700D02*
X137452100Y-78752700D01*
X137452100Y-78752700D02*
X136537700Y-78752700D01*
X141211300Y-80581500D02*
X139382500Y-78752700D01*
X136537700Y-78752700D02*
X136393100Y-78712100D01*
X141211300Y-80581500D02*
X141338300Y-80683100D01*
X132270500Y-76923900D02*
X130644900Y-75298300D01*
X130644900Y-75298300D02*
X129425700Y-74079100D01*
X135115300Y-76923900D02*
X132270500Y-76923900D01*
X135318500Y-77127100D02*
X135115300Y-76923900D01*
X135318500Y-77533500D02*
X135318500Y-77127100D01*
X136334500Y-78549500D02*
X135318500Y-77533500D01*
X129425700Y-74079100D02*
X129263100Y-73909100D01*
X136334500Y-78549500D02*
X136393100Y-78712100D01*
X126784100Y-81394300D02*
X125971300Y-82207100D01*
X125971300Y-82207100D02*
X125158500Y-83019900D01*
X126784100Y-79159100D02*
X126784100Y-81394300D01*
X130644900Y-75298300D02*
X126784100Y-79159100D01*
X125158500Y-83019900D02*
X124980700Y-83045300D01*
X141414500Y-80581500D02*
X143649700Y-80581500D01*
X143649700Y-80581500D02*
X143751300Y-80683100D01*
X141414500Y-80581500D02*
X141338300Y-80683100D01*
X124955300Y-81191100D02*
X124955300Y-68592700D01*
X125971300Y-82207100D02*
X124955300Y-81191100D01*
X124955300Y-68592700D02*
X124980700Y-68567300D01*
X132676900Y-100901500D02*
X130848100Y-100901500D01*
X138366500Y-95211900D02*
X132676900Y-100901500D01*
X139585700Y-95211900D02*
X138366500Y-95211900D01*
X141211300Y-93586300D02*
X139585700Y-95211900D01*
X141211300Y-92976700D02*
X141211300Y-93586300D01*
X130848100Y-100901500D02*
X130746500Y-101003100D01*
X141211300Y-92976700D02*
X141338300Y-92875100D01*
D38*
X168664900Y-157518100D02*
X169706300Y-156476700D01*
X169706300Y-156476700D02*
X172148500Y-156476700D01*
X172148500Y-156476700D02*
X172478700Y-156146500D01*
X172478700Y-156146500D02*
X172478700Y-152996900D01*
X172478700Y-152996900D02*
X171488100Y-152006300D01*
X171488100Y-152006300D02*
X169891500Y-152006300D01*
X155663900Y-146267700D02*
X156295300Y-146899100D01*
X156295300Y-146899100D02*
X157264100Y-146899100D01*
D37*
X141566900Y-158444300D02*
X141123300Y-158000700D01*
X141123300Y-158000700D02*
X135928100Y-158000700D01*
X148018500Y-154620700D02*
X147232900Y-153835100D01*
X147232900Y-153835100D02*
X143751300Y-153835100D01*
X143751300Y-141643100D02*
X143962100Y-141853900D01*
X143962100Y-141853900D02*
X143962100Y-146215100D01*
X143962100Y-146215100D02*
X143725900Y-146451300D01*
X143725900Y-146451300D02*
X143725900Y-150583900D01*
X170243500Y-131621900D02*
X168731300Y-133134100D01*
X168731300Y-133134100D02*
X168664900Y-133134100D01*
X143915500Y-120078500D02*
X144136300Y-120035500D01*
X144136300Y-120035500D02*
X147170100Y-119933900D01*
X143751300Y-117259100D02*
X143915500Y-117423300D01*
X143915500Y-117423300D02*
X143915500Y-120078500D01*
X140677900Y-114163900D02*
X143217900Y-114163900D01*
X143217900Y-114163900D02*
X145681700Y-114163900D01*
X145681700Y-114163900D02*
X145757900Y-114163900D01*
X145757900Y-114163900D02*
X148297900Y-114163900D01*
X143217900Y-114163900D02*
X143243300Y-114189300D01*
X143243300Y-114189300D02*
X143243300Y-117157500D01*
X164376100Y-99275900D02*
X163664900Y-98564700D01*
X163664900Y-98564700D02*
X161251900Y-98564700D01*
X161251900Y-98564700D02*
X161156500Y-98660100D01*
X161156500Y-98660100D02*
X159541100Y-98660100D01*
X141312900Y-141643100D02*
X141338300Y-141643100D01*
X145681700Y-114109500D02*
X145757900Y-114163900D01*
X145681700Y-114109500D02*
X145681700Y-114163900D01*
D38*
X159575500Y-140080100D02*
X159753300Y-140257900D01*
X159753300Y-140257900D02*
X159753300Y-143167100D01*
X159753300Y-143167100D02*
X159448500Y-143471900D01*
X159448500Y-143471900D02*
X158762700Y-143471900D01*
X158762700Y-143471900D02*
X158610300Y-143624300D01*
X158610300Y-143624300D02*
X158610300Y-146899100D01*
X159575500Y-140080100D02*
X159741500Y-140246100D01*
X159741500Y-140246100D02*
X160845500Y-140246100D01*
X160845500Y-140246100D02*
X160769300Y-140169900D01*
X160769300Y-140169900D02*
X160769300Y-137477500D01*
X160769300Y-137477500D02*
X158711900Y-137477500D01*
X158711900Y-137477500D02*
X158725500Y-137463900D01*
X158725500Y-137463900D02*
X158725500Y-136334500D01*
X160769300Y-137477500D02*
X160820100Y-137426700D01*
X160820100Y-137426700D02*
X161353500Y-137426700D01*
X161353500Y-137426700D02*
X161582100Y-137198100D01*
X161582100Y-137198100D02*
X161582100Y-135597900D01*
X161582100Y-135597900D02*
X161937700Y-135242300D01*
X161937700Y-135242300D02*
X164172900Y-135242300D01*
D37*
X148602700Y-62166500D02*
X145605500Y-59169300D01*
X145605500Y-59169300D02*
X144106900Y-59169300D01*
X144183100Y-65163700D02*
X143751300Y-65697100D01*
X143751300Y-65697100D02*
X143751300Y-68491100D01*
X148602700Y-62166500D02*
X148602700Y-62217300D01*
X151308700Y-63055500D02*
X150470500Y-62217300D01*
X150470500Y-62217300D02*
X148602700Y-62217300D01*
X131952100Y-153239100D02*
X133261100Y-153239100D01*
X131952100Y-153239100D02*
X130848100Y-154343100D01*
X130848100Y-154343100D02*
X130746500Y-154343100D01*
X128663700Y-157899100D02*
X129766700Y-159002100D01*
X129766700Y-159002100D02*
X134952100Y-159002100D01*
X138341100Y-153454100D02*
X140881100Y-153454100D01*
X137706100Y-152819100D02*
X138341100Y-153454100D01*
X133261100Y-152819100D02*
X137706100Y-152819100D01*
X140881100Y-153454100D02*
X141338300Y-153835100D01*
X133261100Y-152819100D02*
X133261100Y-153239100D01*
X126746900Y-55765700D02*
X124980700Y-57531900D01*
X124980700Y-57531900D02*
X124980700Y-68567300D01*
X141555100Y-74993500D02*
X141478900Y-75069700D01*
X141478900Y-75069700D02*
X139941300Y-75069700D01*
X137260700Y-80733900D02*
X137452100Y-80542500D01*
X137452100Y-80542500D02*
X137452100Y-78752700D01*
X146824700Y-56973100D02*
X147293700Y-57442100D01*
X147293700Y-57442100D02*
X150126700Y-57442100D01*
X150126700Y-57442100D02*
X151357700Y-58673100D01*
X151357700Y-58673100D02*
X152107900Y-58673100D01*
X152234900Y-99594300D02*
X152350100Y-99479100D01*
X152350100Y-99479100D02*
X154622500Y-99479100D01*
X137336900Y-107226100D02*
X136944100Y-106833300D01*
X136944100Y-106833300D02*
X136944100Y-105422700D01*
X139357100Y-107251500D02*
X139296100Y-107190500D01*
X139296100Y-107190500D02*
X139296100Y-102738100D01*
X141885300Y-127139700D02*
X141338300Y-127686700D01*
X141338300Y-127686700D02*
X141338300Y-129451100D01*
X154139900Y-152832700D02*
X153592900Y-152285700D01*
X153592900Y-152285700D02*
X151676100Y-152285700D01*
X151676100Y-152285700D02*
X150025100Y-153936700D01*
X150025100Y-153936700D02*
X148501100Y-153936700D01*
X148501100Y-153936700D02*
X148018500Y-154419300D01*
X148018500Y-154419300D02*
X148018500Y-154620700D01*
X131115700Y-133413500D02*
X130746500Y-133044300D01*
X130746500Y-133044300D02*
X130746500Y-127622300D01*
X163766500Y-84239100D02*
X163766500Y-80581500D01*
X163766500Y-80581500D02*
X163741100Y-80390100D01*
X163766500Y-84239100D02*
X163664900Y-84366100D01*
X163766500Y-78752700D02*
X164757100Y-78752700D01*
X164757100Y-78752700D02*
X166001700Y-78752700D01*
X166001700Y-78752700D02*
X166027100Y-78817100D01*
X163766500Y-78752700D02*
X163741100Y-78690100D01*
X166408100Y-78549500D02*
X169252900Y-78549500D01*
X166204900Y-78752700D02*
X166408100Y-78549500D01*
X169252900Y-78549500D02*
X169329100Y-78440100D01*
X166204900Y-78752700D02*
X166027100Y-78817100D01*
X169049700Y-121831100D02*
X169049700Y-122440700D01*
X170675300Y-120205500D02*
X169049700Y-121831100D01*
X170675300Y-116141500D02*
X170675300Y-120205500D01*
X167017700Y-98056700D02*
X166611300Y-98463100D01*
X167830500Y-98056700D02*
X167017700Y-98056700D01*
X169049700Y-122440700D02*
X168909100Y-122466100D01*
X167830500Y-98056700D02*
X167941100Y-97860100D01*
X165188900Y-97040700D02*
X164579300Y-97040700D01*
X166611300Y-98463100D02*
X165188900Y-97040700D01*
X164985700Y-87287100D02*
X165696900Y-86575900D01*
X165696900Y-86575900D02*
X165696900Y-82308700D01*
X165696900Y-82308700D02*
X164757100Y-81368900D01*
X164757100Y-81368900D02*
X164757100Y-78752700D01*
X157873700Y-117970300D02*
X165188900Y-117970300D01*
X156248100Y-84035900D02*
X156248100Y-87693500D01*
X160718500Y-79565500D02*
X156248100Y-84035900D01*
X160718500Y-71843900D02*
X160718500Y-79565500D01*
X161734500Y-70827900D02*
X160718500Y-71843900D01*
X161734500Y-66560700D02*
X161734500Y-70827900D01*
X169456100Y-65747900D02*
X167830500Y-65747900D01*
X169862500Y-77939900D02*
X169862500Y-77127100D01*
X169456100Y-78346300D02*
X169862500Y-77939900D01*
X169456100Y-78346300D02*
X169329100Y-78440100D01*
X149136100Y-66763900D02*
X148729700Y-66763900D01*
X148729700Y-66763900D02*
X148572100Y-66836100D01*
X149136100Y-66763900D02*
X149222100Y-66836100D01*
X152717500Y-66967100D02*
X149339300Y-66967100D01*
X149339300Y-66967100D02*
X149222100Y-66836100D01*
X152717500Y-66967100D02*
X153758900Y-68008500D01*
X153758900Y-68008500D02*
X153758900Y-72961500D01*
X153758900Y-72961500D02*
X153911300Y-73113900D01*
X153911300Y-73113900D02*
X159042100Y-73113900D01*
X159042100Y-73113900D02*
X159296100Y-72859900D01*
X159600900Y-121881900D02*
X161836100Y-121881900D01*
X161836100Y-121881900D02*
X161861500Y-121856500D01*
X161861500Y-121856500D02*
X162347700Y-121856500D01*
X146316700Y-138696700D02*
X145478500Y-138696700D01*
X145478500Y-138696700D02*
X145449100Y-138808100D01*
X127698500Y-158940500D02*
X126987300Y-158229300D01*
X128892300Y-160032700D02*
X127698500Y-158940500D01*
X128612900Y-141541500D02*
X128612900Y-140728700D01*
X129222500Y-142151100D02*
X128612900Y-141541500D01*
X129222500Y-143573500D02*
X129222500Y-142151100D01*
X126987300Y-145808700D02*
X129222500Y-143573500D01*
X126987300Y-158229300D02*
X126987300Y-145808700D01*
X128612900Y-140728700D02*
X128431100Y-140586100D01*
X144284700Y-139560300D02*
X145300700Y-138899900D01*
X145300700Y-138899900D02*
X145449100Y-138808100D01*
X148932900Y-95008700D02*
X148932900Y-98463100D01*
X153606500Y-76720700D02*
X153606500Y-87083900D01*
X149745700Y-72859900D02*
X153606500Y-76720700D01*
X149339300Y-72859900D02*
X149745700Y-72859900D01*
X148932900Y-98463100D02*
X148841100Y-98467100D01*
X149339300Y-72859900D02*
X149222100Y-72686100D01*
X129019300Y-106794300D02*
X129832100Y-106794300D01*
X129832100Y-106794300D02*
X130441700Y-106794300D01*
X128003300Y-105778300D02*
X129019300Y-106794300D01*
X128003300Y-86271100D02*
X128003300Y-105778300D01*
X130035300Y-82207100D02*
X127596900Y-84645500D01*
X130035300Y-82003900D02*
X130035300Y-82207100D01*
X130441700Y-106794300D02*
X130635100Y-106841100D01*
X130035300Y-82003900D02*
X130127100Y-81822100D01*
X131254500Y-65951100D02*
X130848100Y-65951100D01*
X132067300Y-66763900D02*
X131254500Y-65951100D01*
X129425700Y-77533500D02*
X129832100Y-77127100D01*
X129425700Y-81191100D02*
X129425700Y-77533500D01*
X130035300Y-81800700D02*
X129425700Y-81191100D01*
X130848100Y-65951100D02*
X130844100Y-65910100D01*
X130035300Y-81800700D02*
X130127100Y-81822100D01*
X145300700Y-56781700D02*
X145275300Y-55994300D01*
X145275300Y-55994300D02*
X145322100Y-55877100D01*
X155638500Y-51930300D02*
X158076900Y-51930300D01*
X158076900Y-51930300D02*
X158219100Y-51897100D01*
X149136100Y-71234300D02*
X149136100Y-72656700D01*
X149136100Y-72656700D02*
X149222100Y-72686100D01*
X141008100Y-125895100D02*
X141249400Y-125653800D01*
X139992100Y-125895100D02*
X141008100Y-125895100D01*
X132880100Y-118783100D02*
X139992100Y-125895100D01*
X146316700Y-138696700D02*
X146596100Y-138417300D01*
X146596100Y-138417300D02*
X146596100Y-132702300D01*
X146596100Y-132702300D02*
X147231100Y-131991100D01*
X147231100Y-131991100D02*
X147231100Y-130695700D01*
X142189200Y-125653800D02*
X141249400Y-125653800D01*
D38*
X160032700Y-149002500D02*
X159342500Y-149692700D01*
X159342500Y-149692700D02*
X155663900Y-149692700D01*
X155663900Y-149692700D02*
X154466300Y-148495100D01*
X154466300Y-148495100D02*
X151142100Y-148495100D01*
D37*
X155794900Y-156873300D02*
X157492700Y-155175500D01*
X157492700Y-155175500D02*
X157492700Y-151549100D01*
X157492700Y-151549100D02*
X155663900Y-149720300D01*
X155663900Y-149720300D02*
X155663900Y-149692700D01*
D38*
X144284700Y-139560300D02*
X146418300Y-141693900D01*
X146418300Y-141693900D02*
X150253700Y-141693900D01*
X150761700Y-146494500D02*
X151142100Y-146874900D01*
X151142100Y-146874900D02*
X151142100Y-148495100D01*
D37*
X145275300Y-123863100D02*
X145449100Y-123720500D01*
X128892300Y-160032700D02*
X151853900Y-160032700D01*
X135506100Y-61383100D02*
X136131300Y-62008300D01*
X136131300Y-62008300D02*
X136385300Y-61963300D01*
X151853900Y-160032700D02*
X152311100Y-159575500D01*
X152311100Y-159575500D02*
X152311100Y-159016700D01*
X152311100Y-159016700D02*
X154454500Y-156873300D01*
X154454500Y-156873300D02*
X155794900Y-156873300D01*
X142189200Y-125653800D02*
X142303500Y-125539500D01*
X142303500Y-125539500D02*
X142887700Y-124955300D01*
X142887700Y-124955300D02*
X144462500Y-124955300D01*
X144462500Y-124955300D02*
X145449100Y-123968700D01*
X145449100Y-123968700D02*
X145449100Y-123720500D01*
X147231100Y-130695700D02*
X144665700Y-128130300D01*
X144665700Y-128130300D02*
X142963900Y-128130300D01*
X142963900Y-128130300D02*
X142735300Y-127901700D01*
X142735300Y-127901700D02*
X142735300Y-125996700D01*
X142735300Y-125996700D02*
X142303500Y-125564900D01*
X142303500Y-125564900D02*
X142303500Y-125539500D01*
X133692900Y-146824700D02*
X133489700Y-146648700D01*
X136740900Y-138493500D02*
X134302500Y-138493500D01*
X138163300Y-139915900D02*
X136740900Y-138493500D01*
X138163300Y-142151100D02*
X138163300Y-139915900D01*
X134302500Y-138493500D02*
X134281100Y-138636100D01*
X133896100Y-146824700D02*
X133489700Y-146648700D01*
X137960100Y-62699900D02*
X136740900Y-63919100D01*
X143040100Y-62699900D02*
X138366500Y-62699900D01*
X138366500Y-62699900D02*
X137960100Y-62699900D01*
X147104100Y-66763900D02*
X143040100Y-62699900D01*
X136740900Y-63919100D02*
X136694100Y-63960100D01*
X147104100Y-66763900D02*
X147272100Y-66836100D01*
X146494500Y-53759100D02*
X151168100Y-53759100D01*
X144741900Y-52006500D02*
X146494500Y-53759100D01*
X151168100Y-53759100D02*
X151172100Y-53927100D01*
X133083300Y-112687100D02*
X132676900Y-112687100D01*
X134708900Y-111061500D02*
X133083300Y-112687100D01*
X136537700Y-111061500D02*
X134708900Y-111061500D01*
X138163300Y-109435900D02*
X136537700Y-111061500D01*
X138163300Y-100901500D02*
X138163300Y-109435900D01*
X146291300Y-92773500D02*
X138163300Y-100901500D01*
X146697700Y-92773500D02*
X146291300Y-92773500D01*
X132676900Y-112687100D02*
X132585100Y-112691100D01*
X146697700Y-92773500D02*
X146891100Y-92617100D01*
X147307300Y-87490300D02*
X145072100Y-87490300D01*
X145072100Y-87490300D02*
X132270500Y-87490300D01*
X151371300Y-91554300D02*
X147307300Y-87490300D01*
X152793700Y-91554300D02*
X151371300Y-91554300D01*
X153606500Y-92367100D02*
X152793700Y-91554300D01*
X153606500Y-93383100D02*
X153606500Y-92367100D01*
X152793700Y-94195900D02*
X153200100Y-93789500D01*
X153200100Y-93789500D02*
X153606500Y-93383100D01*
X147713700Y-94195900D02*
X152793700Y-94195900D01*
X146900900Y-93383100D02*
X147713700Y-94195900D01*
X146900900Y-92773500D02*
X146900900Y-93383100D01*
X132270500Y-87490300D02*
X132077100Y-87672100D01*
X146900900Y-92773500D02*
X146891100Y-92617100D01*
X149948900Y-136867900D02*
X151168100Y-136867900D01*
X151168100Y-136867900D02*
X151299100Y-136858100D01*
X147104100Y-68999100D02*
X147104100Y-66967100D01*
X145681700Y-70421500D02*
X147104100Y-68999100D01*
X147104100Y-66967100D02*
X147272100Y-66836100D01*
D38*
X156026100Y-152946100D02*
X154806900Y-151726900D01*
X154806900Y-151726900D02*
X150685500Y-151726900D01*
X150685500Y-151726900D02*
X149491700Y-152920700D01*
X149491700Y-152920700D02*
X145910300Y-152920700D01*
X145910300Y-152920700D02*
X144716500Y-151726900D01*
X144716500Y-151726900D02*
X135978900Y-151726900D01*
X135978900Y-151726900D02*
X135280400Y-151028400D01*
X135280400Y-151028400D02*
X135280400Y-148209000D01*
X135280400Y-148209000D02*
X133720100Y-146648700D01*
X133720100Y-146648700D02*
X133489700Y-146648700D01*
X133720100Y-146648700D02*
X134023100Y-146345700D01*
X134023100Y-146345700D02*
X134023100Y-142328900D01*
X134023100Y-142328900D02*
X133591300Y-141897100D01*
X133591300Y-141897100D02*
X133083300Y-141897100D01*
X133083300Y-141897100D02*
X132981700Y-141795500D01*
X132981700Y-141795500D02*
X132981700Y-139179300D01*
X132981700Y-139179300D02*
X133524900Y-138636100D01*
X133524900Y-138636100D02*
X134281100Y-138636100D01*
D37*
X149944900Y-158823300D02*
X150005500Y-158762700D01*
X150005500Y-158762700D02*
X151193500Y-158762700D01*
X151193500Y-158762700D02*
X154470100Y-155740100D01*
X154470100Y-155740100D02*
X156026100Y-154184100D01*
X156026100Y-154184100D02*
X156026100Y-152946100D01*
X150558500Y-121831100D02*
X151168100Y-121831100D01*
X149948900Y-122440700D02*
X150558500Y-121831100D01*
X151168100Y-121831100D02*
X151299100Y-121770500D01*
X153200100Y-93789500D02*
X155435300Y-96024700D01*
X133556100Y-55533100D02*
X133540500Y-55517500D01*
X138366500Y-62699900D02*
X138518900Y-62547500D01*
X138518900Y-62547500D02*
X138518900Y-56476900D01*
X133556100Y-55533100D02*
X133556100Y-56390900D01*
X133556100Y-56390900D02*
X133642100Y-56476900D01*
X133642100Y-56476900D02*
X134073900Y-56908700D01*
X134073900Y-56908700D02*
X136563100Y-56908700D01*
X136563100Y-56908700D02*
X136994900Y-56476900D01*
X136994900Y-56476900D02*
X138518900Y-56476900D01*
X144741900Y-52006500D02*
X141262100Y-52006500D01*
X141262100Y-52006500D02*
X139738100Y-50482500D01*
X139738100Y-50482500D02*
X134353300Y-50482500D01*
X134353300Y-50482500D02*
X130746500Y-54089300D01*
X130746500Y-54089300D02*
X130746500Y-56451500D01*
X130746500Y-56451500D02*
X131229100Y-56934100D01*
X131229100Y-56934100D02*
X133159500Y-56934100D01*
X133159500Y-56934100D02*
X133616700Y-56476900D01*
X133616700Y-56476900D02*
X133642100Y-56476900D01*
X149136100Y-75704700D02*
X148526500Y-75704700D01*
X148526500Y-75704700D02*
X147713700Y-75704700D01*
X147713700Y-75704700D02*
X147700100Y-75730100D01*
X149136100Y-75704700D02*
X149302100Y-75730100D01*
X148526500Y-75704700D02*
X148526500Y-72859900D01*
X148526500Y-72859900D02*
X148572100Y-72686100D01*
X163341100Y-104060100D02*
X163341100Y-104679700D01*
X163341100Y-104679700D02*
X160362900Y-107657900D01*
X160362900Y-107657900D02*
X160362900Y-109232700D01*
X160362900Y-109232700D02*
X158610300Y-110985300D01*
X158610300Y-110985300D02*
X158610300Y-111442500D01*
X158610300Y-111442500D02*
X158483300Y-111569500D01*
X158483300Y-111569500D02*
X156625500Y-111569500D01*
X156625500Y-111569500D02*
X156498500Y-111696500D01*
X156498500Y-111696500D02*
X153116700Y-108314700D01*
X153116700Y-108314700D02*
X150964900Y-108314700D01*
X150964900Y-108314700D02*
X148297900Y-108314700D01*
X141211300Y-64528700D02*
X140398500Y-63715900D01*
X141211300Y-66357500D02*
X141211300Y-64528700D01*
X140195300Y-67373500D02*
X141211300Y-66357500D01*
X144462500Y-72453500D02*
X140601700Y-72453500D01*
X146494500Y-73977500D02*
X144462500Y-72453500D01*
X154419300Y-88099900D02*
X154419300Y-85458300D01*
X150964900Y-108314700D02*
X150964900Y-108013500D01*
X140398500Y-63715900D02*
X140207100Y-63665100D01*
X140195300Y-65747900D02*
X140195300Y-65341500D01*
X138772900Y-67170300D02*
X140195300Y-65747900D01*
X140195300Y-65341500D02*
X140207100Y-65316100D01*
X138772900Y-67170300D02*
X138772900Y-67297300D01*
X145478500Y-54775100D02*
X145478500Y-54978300D01*
X145478500Y-54978300D02*
X145478500Y-55181500D01*
X145478500Y-55181500D02*
X145322100Y-55227100D01*
X145478500Y-54775100D02*
X145322100Y-54577100D01*
X149644100Y-54978300D02*
X145478500Y-54978300D01*
X145884900Y-68186300D02*
X145884900Y-66967100D01*
X144259300Y-69811900D02*
X145884900Y-68186300D01*
X138772900Y-69811900D02*
X144259300Y-69811900D01*
X138772900Y-69811900D02*
X138772900Y-69837300D01*
X132092700Y-139306300D02*
X132067300Y-139306300D01*
X132067300Y-139306300D02*
X128612900Y-139306300D01*
X133515100Y-137883900D02*
X132092700Y-139306300D01*
X137553700Y-137883900D02*
X133515100Y-137883900D01*
X137756900Y-138087100D02*
X137553700Y-137883900D01*
X144259300Y-137071100D02*
X144259300Y-136258300D01*
X144665700Y-137477500D02*
X144259300Y-137071100D01*
X145275300Y-137477500D02*
X144665700Y-137477500D01*
X128612900Y-139306300D02*
X128431100Y-139286100D01*
X145275300Y-137477500D02*
X145449100Y-137508100D01*
X132067300Y-108826300D02*
X132067300Y-106997500D01*
X132676900Y-109435900D02*
X132067300Y-108826300D01*
X132067300Y-106997500D02*
X131935100Y-106841100D01*
X147510500Y-99479100D02*
X147510500Y-98666300D01*
X147104100Y-99885500D02*
X147510500Y-99479100D01*
X147510500Y-98666300D02*
X147541100Y-98467100D01*
X131457700Y-82613500D02*
X131457700Y-82003900D01*
X133896100Y-85051900D02*
X132270500Y-83426300D01*
X132270500Y-83426300D02*
X131457700Y-82613500D01*
X146697700Y-85051900D02*
X133896100Y-85051900D01*
X150964900Y-89319100D02*
X146697700Y-85051900D01*
X131457700Y-82003900D02*
X131427100Y-81822100D01*
X131660900Y-64731900D02*
X130848100Y-64731900D01*
X133489700Y-66560700D02*
X131660900Y-64731900D01*
X132270500Y-83426300D02*
X132676900Y-83019900D01*
X130848100Y-64731900D02*
X130844100Y-64610100D01*
X147916900Y-72047100D02*
X147916900Y-72656700D01*
X147510500Y-71640700D02*
X147916900Y-72047100D01*
X133896100Y-71640700D02*
X147510500Y-71640700D01*
X133489700Y-72047100D02*
X133896100Y-71640700D01*
X147916900Y-72656700D02*
X147922100Y-72686100D01*
X132067300Y-139306300D02*
X132067300Y-140728700D01*
X146088100Y-122440700D02*
X145478500Y-122440700D01*
X146494500Y-122847100D02*
X146088100Y-122440700D01*
X146494500Y-124066300D02*
X146494500Y-122847100D01*
X145884900Y-124675900D02*
X146494500Y-124066300D01*
X145478500Y-122440700D02*
X145449100Y-122420500D01*
X155794900Y-158173300D02*
X155794900Y-157523300D01*
X155794900Y-157523300D02*
X155825500Y-157492700D01*
X155825500Y-157492700D02*
X156705300Y-157492700D01*
X156705300Y-157492700D02*
X156781500Y-157568900D01*
X156781500Y-157568900D02*
X156781500Y-159778700D01*
X151172100Y-55877100D02*
X150853500Y-55877100D01*
X152653100Y-51473100D02*
X152653100Y-52297700D01*
X152653100Y-52297700D02*
X154647900Y-54292500D01*
X154647900Y-54292500D02*
X154647900Y-55562500D01*
X154647900Y-55562500D02*
X154190700Y-56019700D01*
X154190700Y-56019700D02*
X153694500Y-56019700D01*
X153694500Y-56019700D02*
X153454100Y-56260100D01*
X160667700Y-63051900D02*
X159270700Y-61654900D01*
X159270700Y-61654900D02*
X159270700Y-60794900D01*
X159270700Y-60794900D02*
X158762700Y-60286900D01*
X158762700Y-60286900D02*
X157492700Y-60286900D01*
X157492700Y-60286900D02*
X157137100Y-59931300D01*
X157137100Y-59931300D02*
X157137100Y-56451500D01*
X157137100Y-56451500D02*
X156945700Y-56260100D01*
X156945700Y-56260100D02*
X153454100Y-56260100D01*
X151172100Y-55877100D02*
X151213100Y-55918100D01*
X151213100Y-55918100D02*
X152666700Y-55918100D01*
X152666700Y-55918100D02*
X153008700Y-56260100D01*
X153008700Y-56260100D02*
X153454100Y-56260100D01*
X131864100Y-70015100D02*
X131864100Y-69595100D01*
X130238500Y-71640700D02*
X131864100Y-70015100D01*
X130238500Y-71640700D02*
X130213100Y-71709100D01*
X162064700Y-94145100D02*
X162496500Y-94576900D01*
X158686500Y-78549500D02*
X159702500Y-79565500D01*
X157467300Y-78549500D02*
X158686500Y-78549500D01*
X149339300Y-70421500D02*
X157467300Y-78549500D01*
X146697700Y-70421500D02*
X149339300Y-70421500D01*
X145884900Y-71234300D02*
X146697700Y-70421500D01*
X133083300Y-71234300D02*
X145884900Y-71234300D01*
X131864100Y-70015100D02*
X133083300Y-71234300D01*
X162496500Y-94576900D02*
X162541100Y-95660100D01*
X131864100Y-69608700D02*
X131864100Y-69595100D01*
X158854100Y-89743100D02*
X159042100Y-89555100D01*
X159042100Y-89555100D02*
X159042100Y-87922100D01*
X159042100Y-87922100D02*
X159092900Y-87871300D01*
X159092900Y-87871300D02*
X162648900Y-87871300D01*
X162648900Y-87871300D02*
X162410100Y-88110100D01*
X162410100Y-88110100D02*
X162410100Y-89108100D01*
X162410100Y-89108100D02*
X163494500Y-88023700D01*
X163494500Y-88023700D02*
X165519100Y-88023700D01*
X165519100Y-88023700D02*
X165966100Y-88470700D01*
X165966100Y-88470700D02*
X165966100Y-89489100D01*
X165966100Y-89489100D02*
X167126700Y-88328500D01*
X167126700Y-88328500D02*
X168922700Y-88328500D01*
X168922700Y-88328500D02*
X169395100Y-88800900D01*
X169395100Y-88800900D02*
X169395100Y-88981100D01*
X170157100Y-92918100D02*
X170631900Y-92443300D01*
X170631900Y-92443300D02*
X171056300Y-92443300D01*
X171056300Y-92443300D02*
X171234100Y-92265500D01*
X171234100Y-92265500D02*
X171234100Y-91071700D01*
X171234100Y-91071700D02*
X171462700Y-91071700D01*
X169608500Y-87566500D02*
X169395100Y-87779900D01*
X169395100Y-87779900D02*
X169395100Y-88981100D01*
X170284100Y-97109100D02*
X169964100Y-97429100D01*
X169964100Y-97429100D02*
X169964100Y-98691700D01*
X169964100Y-98691700D02*
X170472100Y-98183700D01*
X170472100Y-98183700D02*
X172173900Y-98183700D01*
X172173900Y-98183700D02*
X172199300Y-98209100D01*
X172199300Y-98209100D02*
X172199300Y-99936300D01*
X172199300Y-99936300D02*
X172173900Y-99961700D01*
X172173900Y-99961700D02*
X172173900Y-100545900D01*
X172173900Y-100545900D02*
X172097700Y-100622100D01*
X172097700Y-100622100D02*
X170954700Y-100622100D01*
X170954700Y-100622100D02*
X170360300Y-101216500D01*
X170360300Y-101216500D02*
X170360300Y-101782700D01*
X144868900Y-131584700D02*
X142430500Y-131584700D01*
X142430500Y-131584700D02*
X142362100Y-131549100D01*
X129755900Y-149669500D02*
X129832100Y-148856700D01*
X129730500Y-150152100D02*
X129755900Y-149669500D01*
X129832100Y-148856700D02*
X129766100Y-148712100D01*
X135521700Y-76720700D02*
X136334500Y-76720700D01*
X132880100Y-74079100D02*
X135521700Y-76720700D01*
X131254500Y-74079100D02*
X132880100Y-74079100D01*
X136334500Y-76720700D02*
X136393100Y-76812100D01*
X131254500Y-74079100D02*
X131163100Y-73909100D01*
X136944100Y-101511100D02*
X135521700Y-101511100D01*
X139382500Y-101307900D02*
X138976100Y-101307900D01*
X139788900Y-101714300D02*
X139382500Y-101307900D01*
X139992100Y-101714300D02*
X139788900Y-101714300D01*
X141008100Y-102730300D02*
X139992100Y-101714300D01*
X135521700Y-101511100D02*
X135504100Y-101450100D01*
X141008100Y-102730300D02*
X141196100Y-102738100D01*
X148323300Y-81800700D02*
X148323300Y-81191100D01*
X151168100Y-84645500D02*
X148323300Y-81800700D01*
X151168100Y-86880700D02*
X151168100Y-84645500D01*
X151980900Y-87693500D02*
X151168100Y-86880700D01*
X148323300Y-81191100D02*
X148308100Y-81148100D01*
X143243300Y-76923900D02*
X136537700Y-76923900D01*
X145681700Y-79362300D02*
X143243300Y-76923900D01*
X136537700Y-76923900D02*
X136393100Y-76812100D01*
X168236900Y-68186300D02*
X168236900Y-67779900D01*
X166611300Y-69811900D02*
X168236900Y-68186300D01*
X166611300Y-73063100D02*
X166611300Y-69811900D01*
X165188900Y-74485500D02*
X166611300Y-73063100D01*
X164172900Y-74485500D02*
X165188900Y-74485500D01*
X168236900Y-67779900D02*
X168352100Y-67602100D01*
X164172900Y-74485500D02*
X164016900Y-74587100D01*
X160312100Y-100901500D02*
X159702500Y-100901500D01*
X160515300Y-100698300D02*
X160312100Y-100901500D01*
X160515300Y-99885500D02*
X160515300Y-100698300D01*
X160108900Y-99479100D02*
X160515300Y-99885500D01*
X159702500Y-99479100D02*
X160108900Y-99479100D01*
X159702500Y-100901500D02*
X159541100Y-101060100D01*
X159702500Y-99479100D02*
X159541100Y-99460100D01*
X167220900Y-101714300D02*
X167830500Y-101714300D01*
X166814500Y-101307900D02*
X167220900Y-101714300D01*
X166814500Y-100698300D02*
X166814500Y-101307900D01*
X167220900Y-100291900D02*
X166814500Y-100698300D01*
X167830500Y-100291900D02*
X167220900Y-100291900D01*
X167830500Y-101714300D02*
X167941100Y-101860100D01*
X167830500Y-100291900D02*
X167941100Y-100260100D01*
X161937700Y-100698300D02*
X160515300Y-100698300D01*
X162547300Y-101307900D02*
X161937700Y-100698300D01*
X166408100Y-100291900D02*
X165188900Y-100291900D01*
X166814500Y-100698300D02*
X166408100Y-100291900D01*
X171894500Y-113499900D02*
X170675300Y-114719100D01*
X171894500Y-105981500D02*
X171894500Y-113499900D01*
X171691300Y-105778300D02*
X171894500Y-105981500D01*
X171691300Y-105371900D02*
X171691300Y-105778300D01*
X172300900Y-104762300D02*
X171691300Y-105371900D01*
X172300900Y-103339900D02*
X172300900Y-104762300D01*
X171894500Y-102933500D02*
X172300900Y-103339900D01*
X171488100Y-102933500D02*
X171894500Y-102933500D01*
X170472100Y-101917500D02*
X171488100Y-102933500D01*
X170675300Y-114719100D02*
X170599100Y-114807100D01*
X170472100Y-101917500D02*
X170360300Y-101782700D01*
X170472100Y-114922300D02*
X170599100Y-114807100D01*
X170268900Y-86880700D02*
X170268900Y-80784700D01*
X169659300Y-87490300D02*
X170268900Y-86880700D01*
X170268900Y-80784700D02*
X170279100Y-80640100D01*
X169659300Y-87490300D02*
X169608500Y-87566500D01*
X169252900Y-100291900D02*
X168033700Y-100291900D01*
X170268900Y-101307900D02*
X169252900Y-100291900D01*
X168033700Y-100291900D02*
X167941100Y-100260100D01*
X170268900Y-101307900D02*
X170360300Y-101782700D01*
X169252900Y-66763900D02*
X168440100Y-67576700D01*
X170675300Y-66763900D02*
X169252900Y-66763900D01*
X172504100Y-68592700D02*
X170675300Y-66763900D01*
X172504100Y-78549500D02*
X172504100Y-68592700D01*
X170472100Y-80581500D02*
X172504100Y-78549500D01*
X168440100Y-67576700D02*
X168352100Y-67602100D01*
X170472100Y-80581500D02*
X170279100Y-80640100D01*
X149944900Y-158173300D02*
X149888900Y-158229300D01*
X149888900Y-158229300D02*
X149034500Y-158229300D01*
X149034500Y-158229300D02*
X148882100Y-158381700D01*
X148882100Y-158381700D02*
X148882100Y-159499300D01*
X148882100Y-159499300D02*
X140982700Y-159499300D01*
X140982700Y-159499300D02*
X140485500Y-159002100D01*
X140485500Y-159002100D02*
X139952100Y-159002100D01*
X149136100Y-124066300D02*
X149136100Y-120002300D01*
X152387300Y-127317500D02*
X149136100Y-124066300D01*
X149136100Y-120002300D02*
X149070100Y-119933900D01*
X149136100Y-117563900D02*
X149136100Y-119799100D01*
X149948900Y-116751100D02*
X149136100Y-117563900D01*
X149948900Y-113499900D02*
X149948900Y-116751100D01*
X149136100Y-119799100D02*
X149070100Y-119933900D01*
D38*
X159575500Y-138380100D02*
X159536500Y-138341100D01*
X159536500Y-138341100D02*
X157365700Y-138341100D01*
X157365700Y-138341100D02*
X157314900Y-138264900D01*
X157314900Y-138264900D02*
X157314900Y-133946900D01*
X157314900Y-133946900D02*
X157060900Y-133692900D01*
X157060900Y-133692900D02*
X157060900Y-133210300D01*
X157060900Y-133210300D02*
X156857700Y-133007100D01*
X156857700Y-133007100D02*
X154317700Y-133007100D01*
X154317700Y-133007100D02*
X153377900Y-133946900D01*
X153377900Y-133946900D02*
X153377900Y-134327900D01*
D37*
X157822900Y-89776300D02*
X158762700Y-89776300D01*
X157695900Y-89903300D02*
X157822900Y-89776300D01*
X158762700Y-89776300D02*
X158854100Y-89743100D01*
X156498500Y-121856500D02*
X157387500Y-122745500D01*
X157387500Y-122745500D02*
X165468300Y-122745500D01*
X165468300Y-122745500D02*
X165747700Y-122466100D01*
X165747700Y-122466100D02*
X167209100Y-122466100D01*
X163360100Y-91308100D02*
X164941100Y-92889100D01*
X164941100Y-92889100D02*
X164941100Y-95660100D01*
X164985700Y-96227900D02*
X164985700Y-95821500D01*
X166001700Y-97243900D02*
X164985700Y-96227900D01*
X166408100Y-97243900D02*
X166001700Y-97243900D01*
X164985700Y-95821500D02*
X164941100Y-95660100D01*
X165126300Y-111747300D02*
X162398500Y-111747300D01*
X162398500Y-111747300D02*
X162347700Y-111696500D01*
X166027100Y-110655100D02*
X166027100Y-110846500D01*
X166027100Y-110846500D02*
X165126300Y-111747300D01*
X148120100Y-82613500D02*
X148120100Y-83223100D01*
X147307300Y-81800700D02*
X148120100Y-82613500D01*
X147307300Y-78955900D02*
X147307300Y-81800700D01*
X148120100Y-83223100D02*
X148208100Y-83223100D01*
X147307300Y-78955900D02*
X147358100Y-78948100D01*
X146088100Y-77533500D02*
X146088100Y-75907900D01*
X147307300Y-78752700D02*
X146088100Y-77533500D01*
X146088100Y-75907900D02*
X146000100Y-75730100D01*
X147307300Y-78752700D02*
X147358100Y-78948100D01*
X158889700Y-97853500D02*
X159499300Y-97853500D01*
X154012900Y-92976700D02*
X158889700Y-97853500D01*
X154012900Y-90741500D02*
X154012900Y-92976700D01*
X148323300Y-85051900D02*
X154012900Y-90741500D01*
X148323300Y-83223100D02*
X148323300Y-85051900D01*
X159499300Y-97853500D02*
X159541100Y-97860100D01*
X148323300Y-83223100D02*
X148208100Y-83223100D01*
X127596900Y-82816700D02*
X127596900Y-80581500D01*
X127393700Y-83019900D02*
X127596900Y-82816700D01*
X127596900Y-80581500D02*
X127634100Y-80556100D01*
X127393700Y-83019900D02*
X127393700Y-83045300D01*
X134912100Y-82003900D02*
X134378700Y-82003900D01*
X134378700Y-82003900D02*
X133896100Y-82003900D01*
X135953500Y-83045300D02*
X134912100Y-82003900D01*
X133896100Y-82003900D02*
X133896100Y-81914100D01*
X135560700Y-80733900D02*
X134378700Y-81915900D01*
X134378700Y-81915900D02*
X134378700Y-82003900D01*
X152387300Y-104965500D02*
X152387300Y-102933500D01*
X152387300Y-102933500D02*
X152399100Y-102908100D01*
X152387300Y-104965500D02*
X152311100Y-105067100D01*
X152234900Y-101294300D02*
X152399100Y-101458500D01*
X152399100Y-101458500D02*
X152399100Y-102908100D01*
X130848100Y-90131900D02*
X133489700Y-90131900D01*
X133489700Y-90131900D02*
X133642100Y-90169100D01*
X130848100Y-90131900D02*
X130746500Y-90030300D01*
X150355300Y-102527100D02*
X150355300Y-102120700D01*
X150355300Y-102120700D02*
X150355300Y-101307900D01*
X150558500Y-102730300D02*
X150355300Y-102527100D01*
X150355300Y-101307900D02*
X150240100Y-101257100D01*
X150558500Y-102730300D02*
X150699100Y-102908100D01*
X146697700Y-99275900D02*
X146697700Y-98666300D01*
X145478500Y-100495100D02*
X146697700Y-99275900D01*
X145478500Y-101917500D02*
X145478500Y-100495100D01*
X145681700Y-102120700D02*
X145478500Y-101917500D01*
X150355300Y-102120700D02*
X145681700Y-102120700D01*
X146697700Y-98666300D02*
X146891100Y-98467100D01*
X132067300Y-81800700D02*
X132067300Y-80175100D01*
X132067300Y-81800700D02*
X132077100Y-81822100D01*
X132067300Y-80175100D02*
X133896100Y-80175100D01*
X133896100Y-80175100D02*
X133896100Y-80214100D01*
X132067300Y-80175100D02*
X131952100Y-80048100D01*
X164172900Y-108216700D02*
X165392100Y-108216700D01*
X163766500Y-108623100D02*
X164172900Y-108216700D01*
X165392100Y-108216700D02*
X166103300Y-107823900D01*
X163766500Y-108623100D02*
X163664900Y-108750100D01*
X146494500Y-101307900D02*
X148323300Y-101307900D01*
X148323300Y-101307900D02*
X148526500Y-101307900D01*
X148526500Y-101307900D02*
X148540100Y-101257100D01*
X146494500Y-101307900D02*
X146303100Y-101130100D01*
X148323300Y-101307900D02*
X148323300Y-98666300D01*
X148323300Y-98666300D02*
X148191100Y-98467100D01*
X148323300Y-101307900D02*
X148540100Y-101257100D01*
X138772900Y-93586300D02*
X135521700Y-90335100D01*
X138772900Y-93967300D02*
X138772900Y-93586300D01*
X135521700Y-90335100D02*
X135420100Y-90169100D01*
X133896100Y-78143100D02*
X132067300Y-78143100D01*
X134099300Y-77939900D02*
X133896100Y-78143100D01*
X132067300Y-78143100D02*
X131952100Y-78270100D01*
X134099300Y-77939900D02*
X134193100Y-77762100D01*
X161734500Y-96227900D02*
X161734500Y-95821500D01*
X161328100Y-96634300D02*
X161734500Y-96227900D01*
X160515300Y-96634300D02*
X161328100Y-96634300D01*
X154825700Y-90944700D02*
X160515300Y-96634300D01*
X153200100Y-90538300D02*
X153200100Y-90944700D01*
X146697700Y-84035900D02*
X153200100Y-90538300D01*
X138950700Y-84035900D02*
X146697700Y-84035900D01*
X161734500Y-95821500D02*
X161741100Y-95660100D01*
X133896100Y-78143100D02*
X134193100Y-77762100D01*
X133896100Y-78143100D02*
X135470900Y-79717900D01*
X135470900Y-79717900D02*
X136410700Y-79717900D01*
X136410700Y-79717900D02*
X136410700Y-81521300D01*
X136410700Y-81521300D02*
X138950700Y-84035900D01*
X171107100Y-95118100D02*
X170849100Y-95376100D01*
X170849100Y-95376100D02*
X168821100Y-95376100D01*
X167941100Y-97060100D02*
X168301900Y-96699300D01*
X168301900Y-96699300D02*
X168821100Y-96180100D01*
X168821100Y-96180100D02*
X168821100Y-95376100D01*
X170065700Y-123761500D02*
X168846500Y-124879100D01*
X168846500Y-124879100D02*
X168909100Y-125006100D01*
X167627300Y-96024700D02*
X168301900Y-96699300D01*
X166103300Y-109523900D02*
X166648500Y-109523900D01*
X166648500Y-109523900D02*
X167424100Y-110299500D01*
X167424100Y-110299500D02*
X167805100Y-110299500D01*
X167805100Y-110299500D02*
X168084500Y-110655100D01*
X162347700Y-114236500D02*
X163306921Y-114245191D01*
X163306921Y-114245191D02*
X165151700Y-114261900D01*
X163969700Y-94195900D02*
X163969700Y-95618300D01*
X161734500Y-91960700D02*
X163969700Y-94195900D01*
X159905700Y-91960700D02*
X161734500Y-91960700D01*
X163969700Y-95618300D02*
X164141100Y-95660100D01*
X159905700Y-91960700D02*
X159804100Y-91943100D01*
X163360100Y-97040700D02*
X162750500Y-97040700D01*
X163969700Y-96431100D02*
X163360100Y-97040700D01*
X163969700Y-95821500D02*
X163969700Y-96431100D01*
X163969700Y-95821500D02*
X164141100Y-95660100D01*
X162953700Y-113017300D02*
X162953700Y-113891969D01*
X162953700Y-113891969D02*
X163306921Y-114245191D01*
X143040100Y-101104700D02*
X144462500Y-101104700D01*
X144462500Y-101104700D02*
X144603100Y-101130100D01*
X143040100Y-101104700D02*
X142913100Y-101042100D01*
X158483300Y-104152700D02*
X160921700Y-104152700D01*
X156451300Y-106184700D02*
X158483300Y-104152700D01*
X152996900Y-106184700D02*
X156451300Y-106184700D01*
X152793700Y-106387900D02*
X152996900Y-106184700D01*
X149745700Y-106387900D02*
X152793700Y-106387900D01*
X145884900Y-102527100D02*
X149745700Y-106387900D01*
X145478500Y-102527100D02*
X145884900Y-102527100D01*
X144665700Y-101714300D02*
X145478500Y-102527100D01*
X144665700Y-101307900D02*
X144665700Y-101714300D01*
X160921700Y-104152700D02*
X160941100Y-104060100D01*
X144665700Y-101307900D02*
X144603100Y-101130100D01*
X142633700Y-100698300D02*
X140398500Y-100698300D01*
X142836900Y-100901500D02*
X142633700Y-100698300D01*
X140398500Y-100698300D02*
X140246100Y-100538100D01*
X142836900Y-100901500D02*
X142913100Y-101042100D01*
X146697700Y-86067900D02*
X135318500Y-86067900D01*
X150964900Y-90335100D02*
X146697700Y-86067900D01*
X151168100Y-90335100D02*
X150964900Y-90335100D01*
X135318500Y-86067900D02*
X135254100Y-85890100D01*
X164141100Y-104060100D02*
X164141100Y-104717900D01*
X164141100Y-104717900D02*
X163817300Y-105041700D01*
X163817300Y-105041700D02*
X163715700Y-105041700D01*
X163715700Y-105041700D02*
X160820100Y-107937300D01*
X160820100Y-107937300D02*
X160820100Y-109486700D01*
X160820100Y-109486700D02*
X159143700Y-111163100D01*
X159143700Y-111163100D02*
X159143700Y-113550700D01*
X159143700Y-113550700D02*
X158534100Y-114160300D01*
X158534100Y-114160300D02*
X156574700Y-114160300D01*
X156574700Y-114160300D02*
X156498500Y-114236500D01*
X156498500Y-114236500D02*
X156473100Y-114211100D01*
X156473100Y-114211100D02*
X154139900Y-114211100D01*
X154139900Y-114211100D02*
X150710900Y-110731300D01*
X150710900Y-110731300D02*
X146570700Y-110731300D01*
X146570700Y-110731300D02*
X145757900Y-109969300D01*
X145757900Y-109969300D02*
X145757900Y-108314700D01*
X145757900Y-108314700D02*
X146037300Y-108035300D01*
X146037300Y-108035300D02*
X145986500Y-104178100D01*
X167209100Y-125006100D02*
X167209100Y-125017900D01*
X167209100Y-125017900D02*
X167195500Y-125031500D01*
X167195500Y-125031500D02*
X165392100Y-123228100D01*
X165392100Y-123228100D02*
X157594300Y-123228100D01*
X157594300Y-123228100D02*
X156498500Y-124323900D01*
X156498500Y-124323900D02*
X156498500Y-124396500D01*
X148729700Y-92570300D02*
X148323300Y-92570300D01*
X148323300Y-92570300D02*
X148191100Y-92617100D01*
X148729700Y-92570300D02*
X148841100Y-92617100D01*
X148120100Y-91960700D02*
X148120100Y-92570300D01*
X147713700Y-91554300D02*
X148120100Y-91960700D01*
X146697700Y-91554300D02*
X147713700Y-91554300D01*
X145072100Y-93179900D02*
X146697700Y-91554300D01*
X145072100Y-93383100D02*
X145072100Y-93179900D01*
X137756900Y-100698300D02*
X145072100Y-93383100D01*
X137756900Y-103339900D02*
X137756900Y-100698300D01*
X134912100Y-106184700D02*
X137756900Y-103339900D01*
X133692900Y-106184700D02*
X134912100Y-106184700D01*
X133286500Y-106591100D02*
X133692900Y-106184700D01*
X133286500Y-109029500D02*
X133286500Y-106591100D01*
X133489700Y-109232700D02*
X133286500Y-109029500D01*
X133489700Y-109639100D02*
X133489700Y-109232700D01*
X131457700Y-111671100D02*
X133489700Y-109639100D01*
X130238500Y-111671100D02*
X131457700Y-111671100D01*
X129425700Y-112483900D02*
X130238500Y-111671100D01*
X129425700Y-120611900D02*
X129425700Y-112483900D01*
X138569700Y-129755900D02*
X129425700Y-120611900D01*
X138569700Y-138950700D02*
X138569700Y-129755900D01*
X148120100Y-92570300D02*
X148191100Y-92617100D01*
X162347700Y-124396500D02*
X161433300Y-125310900D01*
X161433300Y-125310900D02*
X153606500Y-125310900D01*
X153606500Y-125310900D02*
X153225500Y-125310900D01*
X153606500Y-125082300D02*
X153606500Y-125310900D01*
X148729700Y-139103100D02*
X148729700Y-133108700D01*
X150964900Y-141338300D02*
X148729700Y-139103100D01*
X150964900Y-142151100D02*
X150964900Y-141338300D01*
X150355300Y-142760700D02*
X150964900Y-142151100D01*
X149542500Y-142760700D02*
X150355300Y-142760700D01*
X147510500Y-144792700D02*
X149542500Y-142760700D01*
X147510500Y-149263100D02*
X147510500Y-144792700D01*
X145478500Y-151295100D02*
X147510500Y-149263100D01*
X142430500Y-151295100D02*
X145478500Y-151295100D01*
X139992100Y-148856700D02*
X142430500Y-151295100D01*
X139992100Y-140931900D02*
X139992100Y-148856700D01*
X139382500Y-140322300D02*
X139992100Y-140931900D01*
X138569700Y-138950700D02*
X139382500Y-139763500D01*
X139382500Y-139763500D02*
X139382500Y-140322300D01*
X148729700Y-133108700D02*
X149161500Y-132676900D01*
X149161500Y-132676900D02*
X152260300Y-132676900D01*
X154114500Y-130822700D02*
X152260300Y-132676900D01*
X162347700Y-126936500D02*
X161204700Y-125793500D01*
X161204700Y-125793500D02*
X152336500Y-125793500D01*
X152336500Y-125793500D02*
X151299100Y-124756100D01*
X151299100Y-124756100D02*
X151299100Y-123720500D01*
X151299100Y-123070500D02*
X151299100Y-123720500D01*
X151371300Y-138290300D02*
X151371300Y-138696700D01*
X151371300Y-138696700D02*
X151299100Y-138808100D01*
X151371300Y-138290300D02*
X151299100Y-138158100D01*
X150152100Y-138087100D02*
X151168100Y-138087100D01*
X149136100Y-137071100D02*
X150152100Y-138087100D01*
X151168100Y-138087100D02*
X151299100Y-138158100D01*
X162347700Y-129476500D02*
X160950700Y-130873500D01*
X160950700Y-130873500D02*
X155486100Y-130873500D01*
X155486100Y-130873500D02*
X153250900Y-133108700D01*
X153250900Y-133108700D02*
X150202900Y-133108700D01*
X150202900Y-133108700D02*
X149136100Y-134175500D01*
X149136100Y-134175500D02*
X149136100Y-137071100D01*
X167017700Y-130162300D02*
X167082100Y-130086100D01*
X156498500Y-129476500D02*
X157641500Y-128333500D01*
X157641500Y-128333500D02*
X165442900Y-128333500D01*
X165442900Y-128333500D02*
X167082100Y-129972700D01*
X167082100Y-129972700D02*
X167082100Y-130086100D01*
X167209100Y-127546100D02*
X166878900Y-127876300D01*
X166878900Y-127876300D02*
X158000700Y-127876300D01*
X158000700Y-127876300D02*
X157060900Y-126936500D01*
X157060900Y-126936500D02*
X156498500Y-126936500D01*
X171310300Y-103982700D02*
X170515100Y-103187500D01*
X170515100Y-103187500D02*
X169710100Y-103187500D01*
X169710100Y-103187500D02*
X169506900Y-102984300D01*
X169506900Y-102984300D02*
X169506900Y-101307900D01*
X169506900Y-101307900D02*
X169259100Y-101060100D01*
X169259100Y-101060100D02*
X167941100Y-101060100D01*
X162347700Y-116776500D02*
X165202500Y-116776500D01*
X171284900Y-109029500D02*
X171284900Y-104152700D01*
X171488100Y-109232700D02*
X171284900Y-109029500D01*
X171488100Y-110451900D02*
X171488100Y-109232700D01*
X171284900Y-110655100D02*
X171488100Y-110451900D01*
X169456100Y-110655100D02*
X171284900Y-110655100D01*
X168643300Y-111467900D02*
X169456100Y-110655100D01*
X168236900Y-111467900D02*
X168643300Y-111467900D01*
X168033700Y-111671100D02*
X168236900Y-111467900D01*
X171284900Y-104152700D02*
X171310300Y-103982700D01*
X168033700Y-111671100D02*
X168033700Y-114973100D01*
X168033700Y-114973100D02*
X167957500Y-115404900D01*
X165265100Y-115430300D02*
X165265100Y-116713900D01*
X165265100Y-116713900D02*
X165202500Y-116776500D01*
X171234100Y-99309100D02*
X170962500Y-99580700D01*
X170962500Y-99580700D02*
X169608500Y-99580700D01*
X169608500Y-99580700D02*
X169481500Y-99453700D01*
X169481500Y-99453700D02*
X169125900Y-99098100D01*
X169125900Y-99098100D02*
X169125900Y-98666300D01*
X169125900Y-98666300D02*
X169119700Y-98660100D01*
X169119700Y-98660100D02*
X167941100Y-98660100D01*
X162347700Y-119316500D02*
X165151700Y-119367300D01*
X170065700Y-100088700D02*
X169456100Y-99479100D01*
X169456100Y-99479100D02*
X169481500Y-99453700D01*
X167093900Y-120688100D02*
X166472500Y-120688100D01*
X166472500Y-120688100D02*
X165151700Y-119367300D01*
X127190500Y-109435900D02*
X127190500Y-107403900D01*
X127393700Y-109639100D02*
X127190500Y-109435900D01*
X127190500Y-107403900D02*
X127126100Y-107353100D01*
X127393700Y-109639100D02*
X127393700Y-109715300D01*
X134302500Y-108013500D02*
X134302500Y-107200700D01*
X135928100Y-109639100D02*
X134302500Y-108013500D01*
X134302500Y-107200700D02*
X134277100Y-107060100D01*
X135928100Y-109639100D02*
X135953500Y-109715300D01*
X135636900Y-107226100D02*
X135470900Y-107060100D01*
X135470900Y-107060100D02*
X134277100Y-107060100D01*
X152311100Y-129451100D02*
X150660100Y-127800100D01*
X150660100Y-127800100D02*
X149325700Y-127800100D01*
X143585300Y-127139700D02*
X143788500Y-127342900D01*
X143788500Y-127342900D02*
X144487900Y-127342900D01*
X144487900Y-127342900D02*
X146443700Y-129298700D01*
X146443700Y-129298700D02*
X149085300Y-129298700D01*
X149085300Y-129298700D02*
X149325700Y-129058300D01*
X149325700Y-129058300D02*
X149325700Y-127800100D01*
X131051300Y-116954300D02*
X132880100Y-116954300D01*
X130746500Y-116649500D02*
X131051300Y-116954300D01*
X132880100Y-116954300D02*
X133007100Y-116966100D01*
X147625700Y-127800100D02*
X147078700Y-127253100D01*
X147078700Y-127253100D02*
X147078700Y-121780300D01*
X147078700Y-121780300D02*
X147068900Y-121770500D01*
X147068900Y-121770500D02*
X145449100Y-121770500D01*
X145449100Y-121770500D02*
X145349500Y-121870100D01*
X145349500Y-121870100D02*
X143700500Y-121870100D01*
X132880100Y-105168700D02*
X134099300Y-105168700D01*
X132676900Y-104965500D02*
X132880100Y-105168700D01*
X134099300Y-105168700D02*
X134277100Y-105360100D01*
X132676900Y-104965500D02*
X132676900Y-106794300D01*
X132676900Y-106794300D02*
X132585100Y-106841100D01*
X132676900Y-104965500D02*
X132587100Y-104813100D01*
X162750500Y-132194300D02*
X160718500Y-132194300D01*
X163563300Y-133007100D02*
X162750500Y-132194300D01*
X160718500Y-132194300D02*
X160566100Y-132157100D01*
X163563300Y-133007100D02*
X163664900Y-133134100D01*
X145449100Y-123070500D02*
X145418500Y-123101100D01*
X145418500Y-123101100D02*
X144564100Y-123101100D01*
X144564100Y-123101100D02*
X144095100Y-123570100D01*
X144095100Y-123570100D02*
X143700500Y-123570100D01*
X143700500Y-123570100D02*
X143649700Y-123620900D01*
X143649700Y-123620900D02*
X142151100Y-123620900D01*
X135521700Y-117157500D02*
X134912100Y-117157500D01*
X138772900Y-120408700D02*
X135521700Y-117157500D01*
X134912100Y-117157500D02*
X134785100Y-116966100D01*
X138772900Y-120408700D02*
X138772900Y-120586500D01*
X127393700Y-136385300D02*
X127393700Y-134023100D01*
X127393700Y-134023100D02*
X127585100Y-133896100D01*
X135928100Y-136258300D02*
X133692900Y-136258300D01*
X133692900Y-136258300D02*
X133603100Y-136182100D01*
X135928100Y-136258300D02*
X135953500Y-136385300D01*
X132815700Y-133413500D02*
X133603100Y-134200900D01*
X133603100Y-134200900D02*
X133603100Y-136182100D01*
X147510500Y-132524500D02*
X147510500Y-135039100D01*
X148247100Y-131787900D02*
X147510500Y-132524500D01*
X147510500Y-135039100D02*
X147446100Y-135166100D01*
D38*
X149288500Y-131813300D02*
X149263100Y-131787900D01*
X149263100Y-131787900D02*
X148247100Y-131787900D01*
D37*
X154139900Y-154532700D02*
X153442300Y-153835100D01*
X153442300Y-153835100D02*
X152311100Y-153835100D01*
X130746500Y-143370300D02*
X133083300Y-143370300D01*
X133083300Y-143370300D02*
X133173100Y-143421100D01*
X145478500Y-135445500D02*
X143243300Y-135445500D01*
X145681700Y-135242300D02*
X145478500Y-135445500D01*
X143243300Y-135445500D02*
X143167100Y-135459100D01*
X145681700Y-135242300D02*
X145746100Y-135166100D01*
X145478500Y-135445500D02*
X145478500Y-136664700D01*
X145478500Y-136664700D02*
X145449100Y-136858100D01*
X145478500Y-135445500D02*
X145746100Y-135166100D01*
X128409700Y-138696700D02*
X126580900Y-138696700D01*
X126580900Y-138696700D02*
X126530100Y-138888100D01*
X128409700Y-138696700D02*
X128431100Y-138636100D01*
X130848100Y-136258300D02*
X131864100Y-136258300D01*
X128612900Y-138493500D02*
X130848100Y-136258300D01*
X131864100Y-136258300D02*
X131903100Y-136182100D01*
X128612900Y-138493500D02*
X128431100Y-138636100D01*
D38*
X163664900Y-157518100D02*
X161543100Y-157518100D01*
X161543100Y-157518100D02*
X160693100Y-158368100D01*
D37*
X126580900Y-142557500D02*
X126580900Y-140728700D01*
X126580900Y-140728700D02*
X126530100Y-140588100D01*
X126580900Y-142557500D02*
X126569100Y-142659100D01*
X127190500Y-139915900D02*
X128409700Y-139915900D01*
X126580900Y-140525500D02*
X127190500Y-139915900D01*
X128409700Y-139915900D02*
X128431100Y-139936100D01*
X126580900Y-140525500D02*
X126530100Y-140588100D01*
X143040100Y-137071100D02*
X141617700Y-137071100D01*
X141617700Y-137071100D02*
X141516100Y-137159100D01*
X143040100Y-137071100D02*
X143167100Y-137159100D01*
X144056100Y-138087100D02*
X145275300Y-138087100D01*
X143243300Y-137274300D02*
X144056100Y-138087100D01*
X145275300Y-138087100D02*
X145449100Y-138158100D01*
X143243300Y-137274300D02*
X143167100Y-137159100D01*
X138823700Y-143637900D02*
X137172700Y-145288900D01*
X137172700Y-145288900D02*
X137172700Y-145312500D01*
X134302500Y-103949500D02*
X129425700Y-103949500D01*
X134708900Y-104355900D02*
X134302500Y-103949500D01*
X136131300Y-104355900D02*
X134708900Y-104355900D01*
X136537700Y-103949500D02*
X136131300Y-104355900D01*
X136537700Y-102730300D02*
X136537700Y-103949500D01*
X136334500Y-102527100D02*
X136537700Y-102730300D01*
X133489700Y-102527100D02*
X136334500Y-102527100D01*
X129425700Y-103949500D02*
X129324100Y-103836100D01*
X133489700Y-102527100D02*
X133304100Y-102400100D01*
X151980900Y-86677500D02*
X160921700Y-95618300D01*
X136537700Y-102730300D02*
X136740900Y-102527100D01*
X160921700Y-95618300D02*
X160941100Y-95660100D01*
X170345100Y-91181100D02*
X169794100Y-91732100D01*
X169794100Y-91732100D02*
X168186100Y-91732100D01*
X168186100Y-91732100D02*
X167728900Y-92189300D01*
X167728900Y-92189300D02*
X167728900Y-93687900D01*
X167728900Y-93687900D02*
X167627300Y-93789500D01*
X167627300Y-93789500D02*
X166541100Y-94875700D01*
X166541100Y-94875700D02*
X166541100Y-95660100D01*
X168846500Y-135648700D02*
X164985700Y-135648700D01*
X171869100Y-132651500D02*
X168846500Y-135648700D01*
X171869100Y-128536700D02*
X171869100Y-132651500D01*
X169049700Y-127723900D02*
X169862500Y-128536700D01*
X169862500Y-128536700D02*
X171869100Y-128536700D01*
X169049700Y-127723900D02*
X168909100Y-127546100D01*
X161937700Y-134023100D02*
X160718500Y-134023100D01*
X164985700Y-135648700D02*
X164985700Y-135445500D01*
X160718500Y-134023100D02*
X160566100Y-133857100D01*
D38*
X160425500Y-136334500D02*
X160566100Y-136193900D01*
X160566100Y-136193900D02*
X160566100Y-133857100D01*
D37*
X161734500Y-104762300D02*
X161734500Y-104152700D01*
X159905700Y-106591100D02*
X161734500Y-104762300D01*
X155028900Y-106591100D02*
X159905700Y-106591100D01*
X161734500Y-104152700D02*
X161741100Y-104060100D01*
X142151100Y-121920900D02*
X142215500Y-121856500D01*
X142215500Y-121856500D02*
X142215500Y-120078500D01*
X142215500Y-120078500D02*
X143028300Y-120992900D01*
X143028300Y-120992900D02*
X147942300Y-120992900D01*
X147942300Y-120992900D02*
X148120100Y-120789700D01*
X148120100Y-120789700D02*
X148120100Y-117733900D01*
X153809700Y-107810300D02*
X155028900Y-106591100D01*
X148120100Y-117563900D02*
X149136100Y-116547900D01*
X148120100Y-117563900D02*
X148120100Y-117733900D01*
X136334500Y-112890300D02*
X136270100Y-112814100D01*
X164941100Y-104060100D02*
X164941100Y-104806900D01*
X164941100Y-104806900D02*
X164401500Y-105346500D01*
X164401500Y-105346500D02*
X164122100Y-105346500D01*
X164122100Y-105346500D02*
X161353500Y-108115100D01*
X161353500Y-108115100D02*
X161353500Y-109613700D01*
X161353500Y-109613700D02*
X159981900Y-110985300D01*
X159981900Y-110985300D02*
X159981900Y-113398300D01*
X159981900Y-113398300D02*
X158813500Y-114566700D01*
X158813500Y-114566700D02*
X158813500Y-116192300D01*
X158813500Y-116192300D02*
X158584900Y-116420900D01*
X158584900Y-116420900D02*
X156854100Y-116420900D01*
X156854100Y-116420900D02*
X156498500Y-116776500D01*
X156498500Y-116776500D02*
X155355500Y-115633500D01*
X155355500Y-115633500D02*
X154089100Y-115633500D01*
X154089100Y-115633500D02*
X149745700Y-111290100D01*
X149745700Y-111290100D02*
X145630900Y-111290100D01*
X145630900Y-111290100D02*
X143217900Y-108877100D01*
X143217900Y-108877100D02*
X143217900Y-108314700D01*
X138772900Y-112687100D02*
X136334500Y-112687100D01*
X143040100Y-108419900D02*
X142024100Y-109435900D01*
X136334500Y-112687100D02*
X136270100Y-112814100D01*
X143040100Y-108419900D02*
X143217900Y-108314700D01*
X166916100Y-91689100D02*
X165741100Y-92864100D01*
X165741100Y-92864100D02*
X165741100Y-94399100D01*
X165741100Y-94399100D02*
X165741100Y-95660100D01*
X161937700Y-156578300D02*
X160718500Y-156578300D01*
X163563300Y-155613100D02*
X161937700Y-156578300D01*
X166204900Y-156197300D02*
X163563300Y-155613100D01*
X160718500Y-156578300D02*
X160693100Y-156668100D01*
X166230300Y-132168900D02*
X168643300Y-130162300D01*
X168643300Y-130162300D02*
X168782100Y-130086100D01*
X165798500Y-94399100D02*
X165741100Y-94399100D01*
X170243500Y-129921900D02*
X170079300Y-130086100D01*
X170079300Y-130086100D02*
X168782100Y-130086100D01*
X128206500Y-143573500D02*
X128206500Y-142760700D01*
X128003300Y-143776700D02*
X128206500Y-143573500D01*
X128612900Y-146215100D02*
X128612900Y-145199100D01*
X128816100Y-146418300D02*
X128612900Y-146215100D01*
X128206500Y-142760700D02*
X128269100Y-142659100D01*
X128816100Y-146418300D02*
X128816100Y-146512100D01*
X158686500Y-96227900D02*
X159499300Y-97040700D01*
X158483300Y-96227900D02*
X158686500Y-96227900D01*
X133896100Y-116344700D02*
X134099300Y-116141500D01*
X133896100Y-118783100D02*
X133896100Y-116344700D01*
X159499300Y-97040700D02*
X159541100Y-97060100D01*
X154622500Y-97040700D02*
X157060900Y-97040700D01*
X153606500Y-98056700D02*
X154622500Y-97040700D01*
X134099300Y-116141500D02*
X138366500Y-116141500D01*
X146316700Y-127850900D02*
X145503900Y-127038100D01*
X145503900Y-127038100D02*
X145503900Y-126098300D01*
X141414500Y-135445500D02*
X140195300Y-135445500D01*
X140195300Y-135445500D02*
X139992100Y-135445500D01*
X139992100Y-135445500D02*
X139865100Y-135459100D01*
X141414500Y-135445500D02*
X141516100Y-135459100D01*
X140195300Y-135445500D02*
X140195300Y-132600700D01*
X140195300Y-132600700D02*
X140162100Y-132499100D01*
X140195300Y-135445500D02*
X139865100Y-135459100D01*
X162541100Y-104060100D02*
X162541100Y-104641500D01*
X162541100Y-104641500D02*
X160058100Y-107124500D01*
X160058100Y-107124500D02*
X155282900Y-107124500D01*
X155282900Y-107124500D02*
X155219400Y-107188000D01*
X155219400Y-107188000D02*
X155206700Y-107200700D01*
X142633700Y-134429500D02*
X141617700Y-135445500D01*
X143040100Y-134429500D02*
X142633700Y-134429500D01*
X145681700Y-131787900D02*
X143040100Y-134429500D01*
X145681700Y-130771900D02*
X145681700Y-131787900D01*
X155232100Y-107200700D02*
X155232100Y-108419900D01*
X141617700Y-135445500D02*
X141516100Y-135459100D01*
X155232100Y-107200700D02*
X155219400Y-107188000D01*
X162140900Y-72047100D02*
X164016900Y-72047100D01*
X161124900Y-73063100D02*
X162140900Y-72047100D01*
X161124900Y-83629500D02*
X161124900Y-73063100D01*
X165595300Y-103339900D02*
X161683700Y-99428300D01*
X165595300Y-103949500D02*
X165595300Y-103339900D01*
X165595300Y-103949500D02*
X165741100Y-104060100D01*
X136131300Y-142151100D02*
X136131300Y-141135100D01*
X136334500Y-142354300D02*
X136131300Y-142151100D01*
X140601700Y-123253500D02*
X140601700Y-125082300D01*
X139992100Y-122643900D02*
X140601700Y-123253500D01*
X139992100Y-116751100D02*
X139992100Y-122643900D01*
X136131300Y-141135100D02*
X136055100Y-141096100D01*
X165741100Y-104060100D02*
X165741100Y-104743500D01*
X165741100Y-104743500D02*
X164680900Y-105803700D01*
X164680900Y-105803700D02*
X164376100Y-105803700D01*
X164376100Y-105803700D02*
X161912300Y-108267500D01*
X161912300Y-108267500D02*
X161912300Y-110223300D01*
X161632900Y-120688100D02*
X160489900Y-120688100D01*
X160489900Y-120688100D02*
X159346900Y-119316500D01*
X159346900Y-119316500D02*
X156498500Y-119316500D01*
X156498500Y-119316500D02*
X155457100Y-118275100D01*
X155457100Y-118275100D02*
X154089100Y-118275100D01*
X154089100Y-118275100D02*
X153885900Y-118071900D01*
X153885900Y-118071900D02*
X153885900Y-116344700D01*
X153885900Y-116344700D02*
X149339300Y-111798100D01*
X149339300Y-111798100D02*
X141744700Y-111798100D01*
X141744700Y-111798100D02*
X140804900Y-110858300D01*
X140804900Y-110858300D02*
X140804900Y-110705900D01*
X140804900Y-110705900D02*
X140804900Y-109715300D01*
X140804900Y-109715300D02*
X140677900Y-109588300D01*
X140677900Y-109588300D02*
X140677900Y-108314700D01*
X139992100Y-116751100D02*
X139509500Y-116268500D01*
X139509500Y-116268500D02*
X139509500Y-111163100D01*
X139509500Y-111163100D02*
X139966700Y-110705900D01*
X139966700Y-110705900D02*
X140804900Y-110705900D01*
X161912300Y-110223300D02*
X161734500Y-110401100D01*
X161734500Y-110401100D02*
X161734500Y-110553500D01*
X130441700Y-105371900D02*
X129425700Y-105371900D01*
X130848100Y-104965500D02*
X130441700Y-105371900D01*
X129425700Y-105371900D02*
X129324100Y-105536100D01*
X130848100Y-104965500D02*
X130887100Y-104813100D01*
X129222500Y-121018300D02*
X129222500Y-133819900D01*
X129019300Y-120815100D02*
X129222500Y-121018300D01*
X129019300Y-111061500D02*
X129019300Y-120815100D01*
X131254500Y-108826300D02*
X129019300Y-111061500D01*
X131254500Y-106997500D02*
X131254500Y-108826300D01*
X129222500Y-133819900D02*
X129285100Y-133896100D01*
X131254500Y-106997500D02*
X131285100Y-106841100D01*
X131254500Y-106184700D02*
X130441700Y-105371900D01*
X131254500Y-106794300D02*
X131254500Y-106184700D01*
X131254500Y-106794300D02*
X131285100Y-106841100D01*
X130238500Y-78346300D02*
X130238500Y-79971900D01*
X130238500Y-79971900D02*
X130252100Y-80048100D01*
X130238500Y-78346300D02*
X130252100Y-78270100D01*
X125564900Y-87693500D02*
X125564900Y-107200700D01*
X130644900Y-82613500D02*
X125564900Y-87693500D01*
X130644900Y-82003900D02*
X130644900Y-82613500D01*
X125564900Y-107200700D02*
X125426100Y-107353100D01*
X130644900Y-82003900D02*
X130777100Y-81822100D01*
X130441700Y-80784700D02*
X130441700Y-80175100D01*
X130644900Y-80987900D02*
X130441700Y-80784700D01*
X130644900Y-81800700D02*
X130644900Y-80987900D01*
X130441700Y-80175100D02*
X130252100Y-80048100D01*
X130644900Y-81800700D02*
X130777100Y-81822100D01*
X129832100Y-65544700D02*
X128816100Y-65544700D01*
X130035300Y-65341500D02*
X129832100Y-65544700D01*
X130644900Y-65341500D02*
X130035300Y-65341500D01*
X128816100Y-65544700D02*
X128689100Y-65658100D01*
X130644900Y-65341500D02*
X130844100Y-65260100D01*
X125971300Y-73875900D02*
X125971300Y-80378300D01*
X131864100Y-67983100D02*
X131660900Y-68186300D01*
X131660900Y-68186300D02*
X125971300Y-73875900D01*
X125971300Y-80378300D02*
X125934100Y-80556100D01*
X131864100Y-67983100D02*
X131864100Y-67895100D01*
X129832100Y-66357500D02*
X129832100Y-65544700D01*
X131660900Y-68186300D02*
X129832100Y-66357500D01*
X131660900Y-68186300D02*
X131864100Y-67895100D01*
X148729700Y-51320700D02*
X150761700Y-51320700D01*
X150761700Y-51320700D02*
X150953100Y-51473100D01*
X148729700Y-51320700D02*
X148602700Y-51244500D01*
X152158700Y-56934100D02*
X152158700Y-56908700D01*
X152158700Y-56908700D02*
X152107900Y-56973100D01*
X151371300Y-55181500D02*
X151172100Y-55227100D01*
X153403300Y-54571900D02*
X153454100Y-54560100D01*
X153403300Y-54571900D02*
X152793700Y-55181500D01*
X152793700Y-55181500D02*
X151371300Y-55181500D01*
X152158700Y-56908700D02*
X151930100Y-56680100D01*
X151930100Y-56680100D02*
X150101300Y-56680100D01*
X150101300Y-56680100D02*
X150025100Y-56603900D01*
X150025100Y-56603900D02*
X150025100Y-55638700D01*
X150025100Y-55638700D02*
X150436700Y-55227100D01*
X150436700Y-55227100D02*
X151172100Y-55227100D01*
X154825700Y-52133500D02*
X154825700Y-52946300D01*
X153200100Y-50507900D02*
X154825700Y-52133500D01*
X152184100Y-50507900D02*
X153200100Y-50507900D01*
X151777700Y-50914300D02*
X152184100Y-50507900D01*
X151777700Y-53149500D02*
X151777700Y-50914300D01*
X152184100Y-53555900D02*
X151777700Y-53149500D01*
X152184100Y-54165500D02*
X152184100Y-53555900D01*
X151777700Y-54571900D02*
X152184100Y-54165500D01*
X151371300Y-54571900D02*
X151777700Y-54571900D01*
X154825700Y-52946300D02*
X155017100Y-53124100D01*
X151371300Y-54571900D02*
X151172100Y-54577100D01*
X168033700Y-103136700D02*
X168033700Y-102730300D01*
X168440100Y-103543100D02*
X168033700Y-103136700D01*
X168440100Y-77533500D02*
X166204900Y-77533500D01*
X170268900Y-75704700D02*
X168440100Y-77533500D01*
X171691300Y-75704700D02*
X170268900Y-75704700D01*
X172097700Y-75298300D02*
X171691300Y-75704700D01*
X172097700Y-73875900D02*
X172097700Y-75298300D01*
X170268900Y-72047100D02*
X172097700Y-73875900D01*
X169866100Y-72047100D02*
X170268900Y-72047100D01*
X168033700Y-102730300D02*
X167941100Y-102660100D01*
X158280100Y-56400700D02*
X155028900Y-53149500D01*
X162953700Y-56400700D02*
X158280100Y-56400700D01*
X164579300Y-58026300D02*
X162953700Y-56400700D01*
X164985700Y-58026300D02*
X164579300Y-58026300D01*
X166001700Y-59042300D02*
X164985700Y-58026300D01*
X166001700Y-68592700D02*
X166001700Y-59042300D01*
X166204900Y-68795900D02*
X166001700Y-68592700D01*
X166204900Y-72859900D02*
X166204900Y-68795900D01*
X165798500Y-73266300D02*
X166204900Y-72859900D01*
X161937700Y-73266300D02*
X165798500Y-73266300D01*
X155028900Y-53149500D02*
X155017100Y-53124100D01*
X158280100Y-53149500D02*
X156857700Y-53149500D01*
X159092900Y-53962300D02*
X158280100Y-53149500D01*
X156857700Y-53149500D02*
X156717100Y-53124100D01*
X159092900Y-53962300D02*
X159169100Y-54097100D01*
X160515300Y-51523900D02*
X161937700Y-51523900D01*
X161937700Y-51523900D02*
X162344100Y-51523900D01*
X160312100Y-51727100D02*
X160515300Y-51523900D01*
X162344100Y-51523900D02*
X163272100Y-51219100D01*
X160312100Y-51727100D02*
X160119100Y-51897100D01*
X161937700Y-51523900D02*
X161861500Y-51613700D01*
X166814500Y-51523900D02*
X166992300Y-51371500D01*
X162953700Y-53149500D02*
X161937700Y-53149500D01*
X164782500Y-51320700D02*
X162953700Y-53149500D01*
X161937700Y-53149500D02*
X161861500Y-53313700D01*
X164782500Y-51320700D02*
X164972100Y-51219100D01*
X164985700Y-51320700D02*
X166814500Y-51320700D01*
X166814500Y-51320700D02*
X166992300Y-51371500D01*
X164985700Y-51320700D02*
X164972100Y-51219100D01*
X163563300Y-55587900D02*
X161937700Y-55587900D01*
X164376100Y-56400700D02*
X163563300Y-55587900D01*
X161937700Y-55587900D02*
X161836100Y-55576100D01*
X164376100Y-56400700D02*
X164452300Y-56451500D01*
X166408100Y-103136700D02*
X166408100Y-103949500D01*
X163563300Y-100291900D02*
X166408100Y-103136700D01*
X168033700Y-74688700D02*
X165188900Y-77533500D01*
X169862500Y-74688700D02*
X168160700Y-74688700D01*
X168160700Y-74688700D02*
X168033700Y-74688700D01*
X166408100Y-103949500D02*
X166541100Y-104060100D01*
X169862500Y-74688700D02*
X169866100Y-74587100D01*
X167805100Y-75958700D02*
X167805100Y-75044300D01*
X167805100Y-75044300D02*
X168160700Y-74688700D01*
X158534100Y-59308100D02*
X158483300Y-59358900D01*
X162166300Y-60363100D02*
X162852100Y-61048900D01*
X162852100Y-61048900D02*
X162852100Y-66484500D01*
X158534100Y-59308100D02*
X159589100Y-60363100D01*
X159589100Y-60363100D02*
X162166300Y-60363100D01*
D38*
X169891500Y-141846300D02*
X164042300Y-141846300D01*
X164042300Y-141846300D02*
X163559700Y-142328900D01*
X163559700Y-142328900D02*
X160603300Y-142328900D01*
X169891500Y-144386300D02*
X164042300Y-144386300D01*
X160032700Y-145002500D02*
X160534100Y-144799300D01*
X160534100Y-144799300D02*
X159981900Y-144487900D01*
X159981900Y-144487900D02*
X162518300Y-144487900D01*
X162518300Y-144487900D02*
X164042300Y-144386300D01*
X151142100Y-143935100D02*
X148018500Y-147058700D01*
X148018500Y-147058700D02*
X148018500Y-151195700D01*
X154089100Y-137096500D02*
X154089100Y-143370300D01*
X154089100Y-143370300D02*
X153524300Y-143935100D01*
X153524300Y-143935100D02*
X151142100Y-143935100D01*
X150837900Y-134327900D02*
X152311100Y-135801100D01*
X152311100Y-135801100D02*
X152793700Y-135801100D01*
X152793700Y-135801100D02*
X154089100Y-137096500D01*
X158903300Y-142328900D02*
X155917900Y-139343500D01*
X155917900Y-139343500D02*
X155917900Y-134327900D01*
D37*
X134856100Y-61383100D02*
X134206100Y-61383100D01*
X128816100Y-58090700D02*
X129107300Y-58381900D01*
X129107300Y-58381900D02*
X132092700Y-58381900D01*
X132092700Y-58381900D02*
X134206100Y-60495300D01*
X134206100Y-60495300D02*
X134206100Y-61383100D01*
D38*
X164042300Y-136766300D02*
X168135300Y-136690100D01*
X168135300Y-136690100D02*
X168160700Y-136715500D01*
X168160700Y-136715500D02*
X169535900Y-136715500D01*
X169535900Y-136715500D02*
X169891500Y-136766300D01*
D37*
X172504100Y-133819900D02*
X172504100Y-105575100D01*
X169659300Y-136664700D02*
X172504100Y-133819900D01*
X169659300Y-136664700D02*
X169891500Y-136766300D01*
X158127700Y-68901100D02*
X155587700Y-68901100D01*
X158127700Y-68901100D02*
X158127700Y-66408300D01*
X158127700Y-66408300D02*
X159270700Y-66408300D01*
X155587700Y-63051900D02*
X155587700Y-65062100D01*
X155587700Y-65062100D02*
X155765500Y-65341500D01*
X155765500Y-65341500D02*
X159575500Y-65341500D01*
X159575500Y-65341500D02*
X160185100Y-65951100D01*
X160185100Y-65951100D02*
X160185100Y-68922900D01*
X160185100Y-68922900D02*
X160185100Y-69100700D01*
X153008700Y-63055500D02*
X153012300Y-63051900D01*
X153012300Y-63051900D02*
X155587700Y-63051900D01*
X133556100Y-61383100D02*
X133540500Y-61398700D01*
X133556100Y-61383100D02*
X133565900Y-61392900D01*
X133565900Y-61392900D02*
X133565900Y-62598300D01*
X133565900Y-62598300D02*
X134048500Y-63080900D01*
X134048500Y-63080900D02*
X136639300Y-63080900D01*
X136639300Y-63080900D02*
X137553700Y-62166500D01*
X137553700Y-62166500D02*
X137553700Y-57188100D01*
X139306300Y-55283100D02*
X139052300Y-55537100D01*
X139052300Y-55537100D02*
X139052300Y-61252100D01*
X139280900Y-61480700D02*
X143243300Y-61480700D01*
X143243300Y-61480700D02*
X146342100Y-64579500D01*
X146342100Y-64579500D02*
X147027900Y-64579500D01*
X154139900Y-63588900D02*
X153606500Y-63055500D01*
X153606500Y-63055500D02*
X153008700Y-63055500D01*
X160667700Y-68901100D02*
X160645900Y-68922900D01*
X160645900Y-68922900D02*
X160185100Y-68922900D01*
X139052300Y-61252100D02*
X139280900Y-61480700D01*
X144868900Y-60464700D02*
X143167100Y-60464700D01*
X150964900Y-66560700D02*
X144868900Y-60464700D01*
X153276300Y-66560700D02*
X150964900Y-66560700D01*
X156908500Y-72250300D02*
X154546300Y-72250300D01*
X154546300Y-72250300D02*
X154470100Y-72174100D01*
X154470100Y-72174100D02*
X154470100Y-67779900D01*
X154470100Y-67779900D02*
X153606500Y-66916300D01*
X153606500Y-66916300D02*
X153606500Y-66890900D01*
X153606500Y-66890900D02*
X153276300Y-66560700D01*
X143395700Y-156820500D02*
X143497300Y-156718900D01*
X143497300Y-156718900D02*
X145402300Y-156718900D01*
X145402300Y-156718900D02*
X145453100Y-156769700D01*
X145453100Y-156769700D02*
X147840700Y-156769700D01*
X147840700Y-156769700D02*
X147944300Y-156873300D01*
X147944300Y-156873300D02*
X149944900Y-156873300D01*
X149944900Y-156873300D02*
X151103500Y-155714700D01*
X151103500Y-155714700D02*
X152361900Y-155714700D01*
X141654900Y-58940700D02*
X141654900Y-60540900D01*
X141654900Y-60540900D02*
X143090900Y-60540900D01*
X143090900Y-60540900D02*
X143167100Y-60464700D01*
X170599100Y-111505100D02*
X170599100Y-113107100D01*
X166851700Y-119367300D02*
X166851700Y-114261900D01*
X166851700Y-114261900D02*
X166851700Y-111772700D01*
X166851700Y-111772700D02*
X166826300Y-111747300D01*
X166902500Y-116776500D02*
X166902500Y-114312700D01*
X166902500Y-114312700D02*
X166851700Y-114261900D01*
X166851700Y-114261900D02*
X166851700Y-111811700D01*
X166851700Y-111811700D02*
X166890700Y-111772700D01*
X166890700Y-111772700D02*
X166890700Y-111721900D01*
X170599100Y-111505100D02*
X169266500Y-111505100D01*
X169266500Y-111505100D02*
X168719500Y-112052100D01*
X168719500Y-112052100D02*
X168719500Y-115938300D01*
X168719500Y-115938300D02*
X168059100Y-116598700D01*
X168059100Y-116598700D02*
X167080300Y-116598700D01*
X167080300Y-116598700D02*
X166902500Y-116776500D01*
X133286500Y-154952700D02*
X133261100Y-154939100D01*
X136740900Y-154749500D02*
X133286500Y-154749500D01*
X137350500Y-154139900D02*
X136740900Y-154749500D01*
X133286500Y-154749500D02*
X133261100Y-154939100D01*
X137350500Y-154139900D02*
X137452100Y-154002100D01*
X137452100Y-154002100D02*
X138936100Y-155486100D01*
X138936100Y-155486100D02*
X144335500Y-155486100D01*
X153377900Y-159118300D02*
X153825300Y-158823300D01*
X153825300Y-158823300D02*
X155794900Y-158823300D01*
X170065700Y-69405500D02*
X170065700Y-67779900D01*
X170065700Y-67779900D02*
X170052100Y-67602100D01*
X170065700Y-69405500D02*
X169866100Y-69507100D01*
X163156900Y-93992700D02*
X163156900Y-95618300D01*
X162140900Y-92976700D02*
X163156900Y-93992700D01*
X159092900Y-92976700D02*
X162140900Y-92976700D01*
X157060900Y-90944700D02*
X159092900Y-92976700D01*
X158686500Y-86474300D02*
X157060900Y-88099900D01*
X159296100Y-86474300D02*
X158686500Y-86474300D01*
X162344100Y-83426300D02*
X159296100Y-86474300D01*
X162344100Y-78549500D02*
X162344100Y-83426300D01*
X165188900Y-75704700D02*
X162344100Y-78549500D01*
X165798500Y-75704700D02*
X165188900Y-75704700D01*
X167627300Y-73875900D02*
X165798500Y-75704700D01*
X167627300Y-71437500D02*
X167627300Y-73875900D01*
X169456100Y-69608700D02*
X167627300Y-71437500D01*
X169862500Y-69608700D02*
X169456100Y-69608700D01*
X163156900Y-95618300D02*
X163341100Y-95660100D01*
X169862500Y-69608700D02*
X169866100Y-69507100D01*
X156705300Y-88480900D02*
X156705300Y-90182700D01*
X157010100Y-88176100D02*
X156705300Y-88480900D01*
X157010100Y-88176100D02*
X157060900Y-88099900D01*
X157010100Y-90512900D02*
X157010100Y-90868500D01*
X156756100Y-90258900D02*
X157010100Y-90512900D01*
X157010100Y-90868500D02*
X157060900Y-90944700D01*
X156756100Y-90258900D02*
X156705300Y-90182700D01*
X155638500Y-99885500D02*
X155638500Y-98463100D01*
X155638500Y-98463100D02*
X155525100Y-98336100D01*
X155638500Y-99885500D02*
X155752100Y-100080100D01*
X158889700Y-102527100D02*
X159499300Y-102527100D01*
X158280100Y-101917500D02*
X158889700Y-102527100D01*
X158280100Y-101307900D02*
X158280100Y-101917500D01*
X158076900Y-101104700D02*
X158280100Y-101307900D01*
X156451300Y-101104700D02*
X158076900Y-101104700D01*
X155841700Y-100495100D02*
X156451300Y-101104700D01*
X155841700Y-100088700D02*
X155841700Y-100495100D01*
X159499300Y-102527100D02*
X159541100Y-102660100D01*
X155841700Y-100088700D02*
X155752100Y-100080100D01*
X157264100Y-102323900D02*
X157264100Y-103339900D01*
X157264100Y-103339900D02*
X157264100Y-103746300D01*
X157264100Y-103746300D02*
X157225100Y-103924100D01*
X157264100Y-102323900D02*
X157252100Y-102180100D01*
X160108900Y-101917500D02*
X159702500Y-101917500D01*
X160515300Y-102323900D02*
X160108900Y-101917500D01*
X160515300Y-103136700D02*
X160515300Y-102323900D01*
X160312100Y-103339900D02*
X160515300Y-103136700D01*
X157264100Y-103339900D02*
X160312100Y-103339900D01*
X159702500Y-101917500D02*
X159541100Y-101860100D01*
X132270500Y-86067900D02*
X133489700Y-86067900D01*
X131457700Y-86880700D02*
X132270500Y-86067900D01*
X131457700Y-87490300D02*
X131457700Y-86880700D01*
X133489700Y-86067900D02*
X133554100Y-85890100D01*
X131457700Y-87490300D02*
X131427100Y-87672100D01*
X130644900Y-87693500D02*
X130238500Y-87693500D01*
X130238500Y-87693500D02*
X130127100Y-87672100D01*
X130644900Y-87693500D02*
X130777100Y-87672100D01*
X135318500Y-88506300D02*
X133692900Y-88506300D01*
X133692900Y-88506300D02*
X133642100Y-88469100D01*
X135318500Y-88506300D02*
X135420100Y-88469100D01*
X130848100Y-88506300D02*
X130848100Y-87693500D01*
X131051300Y-88709500D02*
X130848100Y-88506300D01*
X133286500Y-88709500D02*
X131051300Y-88709500D01*
X133489700Y-88506300D02*
X133286500Y-88709500D01*
X130848100Y-87693500D02*
X130777100Y-87672100D01*
X133489700Y-88506300D02*
X133642100Y-88469100D01*
X147510500Y-93179900D02*
X147510500Y-92773500D01*
X147916900Y-93586300D02*
X147510500Y-93179900D01*
X151574500Y-93586300D02*
X147916900Y-93586300D01*
X152184100Y-92976700D02*
X151574500Y-93586300D01*
X147510500Y-92773500D02*
X147541100Y-92617100D01*
X152184100Y-92976700D02*
X152311100Y-92875100D01*
X137553700Y-64528700D02*
X138366500Y-63715900D01*
X136740900Y-64528700D02*
X137553700Y-64528700D01*
X138366500Y-63715900D02*
X138507100Y-63665100D01*
X136740900Y-64528700D02*
X136694100Y-64610100D01*
X147916900Y-67576700D02*
X147916900Y-66967100D01*
X148729700Y-68389500D02*
X147916900Y-67576700D01*
X152184100Y-68389500D02*
X148729700Y-68389500D01*
X147916900Y-66967100D02*
X147922100Y-66836100D01*
X152184100Y-68389500D02*
X152311100Y-68491100D01*
X136740900Y-65341500D02*
X138366500Y-65341500D01*
X138366500Y-65341500D02*
X138507100Y-65316100D01*
X134912100Y-67576700D02*
X133896100Y-67576700D01*
X136537700Y-65951100D02*
X134912100Y-67576700D01*
X133896100Y-67576700D02*
X133896100Y-67768100D01*
X136537700Y-65951100D02*
X136694100Y-65910100D01*
X136740900Y-65747900D02*
X136740900Y-65341500D01*
X136740900Y-65341500D02*
X136694100Y-65260100D01*
X136740900Y-65747900D02*
X136694100Y-65910100D01*
X131254500Y-112687100D02*
X130644900Y-112687100D01*
X130644900Y-112687100D02*
X130635100Y-112691100D01*
X131254500Y-112687100D02*
X131285100Y-112691100D01*
X134708900Y-115328700D02*
X133083300Y-115328700D01*
X133083300Y-115328700D02*
X133007100Y-115266100D01*
X134708900Y-115328700D02*
X134785100Y-115266100D01*
X131254500Y-113499900D02*
X131254500Y-112890300D01*
X132880100Y-115125500D02*
X131254500Y-113499900D01*
X131254500Y-112890300D02*
X131285100Y-112691100D01*
X132880100Y-115125500D02*
X133007100Y-115266100D01*
X151299100Y-122420500D02*
X151319300Y-122440700D01*
X151319300Y-122440700D02*
X152463500Y-122440700D01*
X152463500Y-122440700D02*
X152768300Y-122135900D01*
X152768300Y-122135900D02*
X152768300Y-119367300D01*
X152768300Y-119367300D02*
X152311100Y-118910100D01*
X152311100Y-118910100D02*
X152311100Y-117259100D01*
X133692900Y-112890300D02*
X134505700Y-112890300D01*
X132880100Y-113703100D02*
X133692900Y-112890300D01*
X132270500Y-113703100D02*
X132880100Y-113703100D01*
X132067300Y-113499900D02*
X132270500Y-113703100D01*
X132067300Y-112890300D02*
X132067300Y-113499900D01*
X134505700Y-112890300D02*
X134570100Y-112814100D01*
X132067300Y-112890300D02*
X131935100Y-112691100D01*
X134708900Y-141135100D02*
X134708900Y-143370300D01*
X134302500Y-140728700D02*
X134708900Y-141135100D01*
X134708900Y-143370300D02*
X134873100Y-143421100D01*
X134302500Y-140728700D02*
X134281100Y-140586100D01*
X134912100Y-143573500D02*
X134873100Y-143421100D01*
X134302500Y-140525500D02*
X134302500Y-140119100D01*
X134302500Y-140119100D02*
X134281100Y-139936100D01*
X134302500Y-140525500D02*
X134281100Y-140586100D01*
X137172700Y-143612500D02*
X136981300Y-143421100D01*
X136981300Y-143421100D02*
X134873100Y-143421100D01*
X134302500Y-139306300D02*
X135928100Y-139306300D01*
X135928100Y-139306300D02*
X136055100Y-139396100D01*
X134302500Y-139306300D02*
X134281100Y-139286100D01*
X151980900Y-137477500D02*
X151371300Y-137477500D01*
X152387300Y-137883900D02*
X151980900Y-137477500D01*
X152387300Y-141541500D02*
X152387300Y-137883900D01*
X151371300Y-137477500D02*
X151299100Y-137508100D01*
X152387300Y-141541500D02*
X152311100Y-141643100D01*
D38*
X164042300Y-154546300D02*
X160407100Y-154470100D01*
X160407100Y-154470100D02*
X160026100Y-152946100D01*
X164042300Y-154546300D02*
X169891500Y-154546300D01*
D37*
X149944900Y-157523300D02*
X149823100Y-157645100D01*
X149823100Y-157645100D02*
X148831300Y-157645100D01*
X148831300Y-157645100D02*
X148006700Y-158469700D01*
X148006700Y-158469700D02*
X147840700Y-158469700D01*
X147840700Y-158469700D02*
X147789900Y-158418900D01*
X147789900Y-158418900D02*
X145402300Y-158418900D01*
X143395700Y-158520500D02*
X143497300Y-158418900D01*
X143497300Y-158418900D02*
X145402300Y-158418900D01*
X143395700Y-158520500D02*
X141619500Y-156744300D01*
X141619500Y-156744300D02*
X141566900Y-156744300D01*
X138823700Y-145337900D02*
X138772900Y-145388700D01*
X138772900Y-145388700D02*
X138772900Y-147307300D01*
X158534100Y-57608100D02*
X158661100Y-57481100D01*
X161836100Y-57276100D02*
X161631100Y-57481100D01*
X158661100Y-57481100D02*
X160058100Y-57481100D01*
X160058100Y-57481100D02*
X160263100Y-57276100D01*
X160263100Y-57276100D02*
X161836100Y-57276100D01*
X139954900Y-58940700D02*
X139966700Y-58928900D01*
X139966700Y-58928900D02*
X139966700Y-55867300D01*
X139966700Y-55867300D02*
X140271500Y-55562500D01*
X140271500Y-55562500D02*
X142379700Y-55562500D01*
X139954900Y-60540900D02*
X139954900Y-58940700D01*
X139839700Y-53022500D02*
X140744300Y-53927100D01*
X140744300Y-53927100D02*
X145322100Y-53927100D01*
X135506100Y-55533100D02*
X134856100Y-55533100D01*
X134856100Y-55533100D02*
X134849500Y-54142700D01*
X134849500Y-54142700D02*
X134937500Y-53720100D01*
X158026100Y-61658500D02*
X158026100Y-62950300D01*
X158026100Y-62950300D02*
X158127700Y-63051900D01*
X139661900Y-54622700D02*
X143192500Y-54622700D01*
X143192500Y-54622700D02*
X143903700Y-55333900D01*
X143903700Y-55333900D02*
X143903700Y-57670700D01*
X143903700Y-57670700D02*
X144360900Y-58127900D01*
X144360900Y-58127900D02*
X146926300Y-58127900D01*
X146926300Y-58127900D02*
X149517100Y-58127900D01*
X149517100Y-58127900D02*
X150329900Y-58940700D01*
X150329900Y-58940700D02*
X150329900Y-60185300D01*
X150329900Y-60185300D02*
X150583900Y-60439300D01*
X150583900Y-60439300D02*
X155359100Y-60439300D01*
X155359100Y-60439300D02*
X155638500Y-60718700D01*
X155638500Y-60718700D02*
X156959300Y-60718700D01*
X156959300Y-60718700D02*
X157899100Y-61658500D01*
X157899100Y-61658500D02*
X158026100Y-61658500D01*
X137528300Y-53843100D02*
X138933100Y-53843100D01*
X138933100Y-53843100D02*
X139661900Y-54622700D01*
X146824700Y-58673100D02*
X146926300Y-58571500D01*
X146926300Y-58571500D02*
X146926300Y-58127900D01*
X131621900Y-55689500D02*
X131621900Y-54255300D01*
X131621900Y-54255300D02*
X131737100Y-54140100D01*
X131737100Y-54140100D02*
X133845300Y-54140100D01*
X133845300Y-54140100D02*
X134206100Y-54500900D01*
X134206100Y-54500900D02*
X134206100Y-55533100D01*
X130746500Y-51219100D02*
X129921900Y-52043700D01*
X129921900Y-52043700D02*
X129921900Y-55689500D01*
X130746500Y-51219100D02*
X130707500Y-51258100D01*
X130707500Y-51258100D02*
X127546100Y-51258100D01*
X129921900Y-55689500D02*
X129845700Y-55765700D01*
X129845700Y-55765700D02*
X128446900Y-55765700D01*
X134937500Y-52020100D02*
X134937500Y-52031900D01*
X134937500Y-52031900D02*
X135674100Y-52768500D01*
X135674100Y-52768500D02*
X137352900Y-52768500D01*
X137352900Y-52768500D02*
X138478300Y-51643100D01*
M02*
